<ttFont>
          <CharString index="0">
            -106 callsubr
            endchar
          </CharString>
          <CharString index="1">
            -72 callgsubr
            30 -25 -51 callgsubr
            return
          </CharString>
          <CharString index="2">
            -71 callgsubr
            77 hlineto
            2 -23 2 -27 -35 -157 -4 -126 -126 13 callgsubr
            5 203 callsubr
            -8 13 -3 39 34 153 4 131 133 vvcurveto
            33 -4 27 -6 24 vhcurveto
            141 hlineto
            2 40 callgsubr
            -95 hlineto
            -9 return
          </CharString>
          <CharString index="3">
            -90 callsubr
            44 vhcurveto
            return
          </CharString>
          <CharString index="4">
            -101 callgsubr
            -87 -55 -64 -71 return
          </CharString>
          <CharString index="5">
            -84 callsubr
            32 -2 40 -41 callgsubr
            157 -101 callsubr
          </CharString>
          <CharString index="6">
            hlineto
            101 callsubr
            endchar
          </CharString>
          <CharString index="7">
            hhcurveto
            -81 -67 -52 -106 -135 130 -136 50 -91 callsubr
            return
          </CharString>
          <CharString index="8">
            -88 callgsubr
            101 callsubr
            endchar
          </CharString>
          <CharString index="9">
            39 34 147 4 -84 callsubr
            32 -2 40 -41 callgsubr
            157 hlineto
            2 40 callgsubr
            return
          </CharString>
          <CharString index="10">
            -96 callsubr
            hhcurveto
            47 46 19 35 32 hvcurveto
            -24 return
          </CharString>
          <CharString index="11">
            -104 callgsubr
            186 -65 callsubr
            return
          </CharString>
          <CharString index="12">
            151 callsubr
            55 50 -39 -64 -53 -38 -54 -73 -3 hvcurveto
            -15 -17 2 4 -18 hvcurveto
            -2 -5 -1 -5 -5 vvcurveto
            -34 38 -22 36 91 58 66 74 103 -92 95 -94 -59 0 callsubr
            411 8 callgsubr
          </CharString>
          <CharString index="13">
            236 callsubr
            endchar
          </CharString>
          <CharString index="14">
            586 -90 callgsubr
            return
          </CharString>
          <CharString index="15">
            118 95 82 124 99 -80 122 -99 -64 -40 -54 -56 -81 72 -63 49 10 147 callgsubr
            -35 311 callgsubr
            24 32 40 57 32 -64 -67 -110 -73 -59 -102 -3 vhcurveto
            44 -11 -28 52 -41 hhcurveto
            -30 -18 -23 -26 -48 45 -40 56 -16 hvcurveto
            -95 32 62 39 callsubr
            -6 10 hvcurveto
            -4 -14 326 callsubr
            -73 -52 59 99 -36 hvcurveto
            return
          </CharString>
          <CharString index="16">
            -46 callgsubr
            38 29 103 callgsubr
            -57 callsubr
            return
          </CharString>
          <CharString index="17">
            -29 callgsubr
            -32 26 -17 return
          </CharString>
          <CharString index="18">
            -71 callsubr
            -271 293 callsubr
            157 hlineto
            -48 callgsubr
            180 callgsubr
            hvcurveto
            return
          </CharString>
          <CharString index="19">
            -76 callgsubr
            -55 88 -233 161 34 callgsubr
            return
          </CharString>
          <CharString index="20">
            332 callsubr
            19 24 25 10 -2 242 callgsubr
            -12 hhcurveto
            -93 -33 123 callsubr
            return
          </CharString>
          <CharString index="21">
            9 -14 2 -38 -35 vvcurveto
            -65 -1 -62 -1 -57 vhcurveto
            -50 -29 -50 -82 callgsubr
            75 1 72 2 69 vhcurveto
            64 31 56 36 56 hhcurveto
            return
          </CharString>
          <CharString index="22">
            -80 94 -84 -87 callgsubr
            return
          </CharString>
          <CharString index="23">
            134 -33 callgsubr
            return
          </CharString>
          <CharString index="24">
            2 -14 2 rrcurveto
            -2 -5 0 -4 -4 vvcurveto
            -30 30 -23 39 86 56 64 71 100 -91 93 -93 -51 -37 -25 -32 -24 311 callsubr
            31 68 callgsubr
            394 -101 callsubr
          </CharString>
          <CharString index="25">
            -3 -1 -78 callsubr
            return
          </CharString>
          <CharString index="26">
            hlineto
            342 callgsubr
            -78 -50 -38 -66 -86 94 -63 74 hvcurveto
            30 37 349 callsubr
            22 281 callsubr
            -66 -96 -79 40 64 -50 hvcurveto
            -7 -2 -10 -5 -15 vvcurveto
            -46 123 -102 151 95 65 55 69 73 -67 80 -93 vhcurveto
            -33 -32 -5 -29 hhcurveto
            -45 -30 21 38 50 55 13 40 hvcurveto
            27 313 callsubr
            83 21 43 31 31 -15 351 callsubr
            return
          </CharString>
          <CharString index="27">
            61 callsubr
            83 112 rmoveto
            101 -66 60 -110 -100 -84 -48 -65 -32 24 -20 34 14 19 6 10 13 vhcurveto
            -10 11 -4 12 14 vvcurveto
            39 37 27 57 56 37 -35 -70 vhcurveto
            -78 vlineto
            -205 -6 -93 -68 -95 vvcurveto
            -82 62 -46 80 66 54 31 50 36 vhcurveto
            -55 4 26 -26 39 hhcurveto
            30 22 16 23 11 hvcurveto
            -29 4 -20 14 42 vvcurveto
            endchar
          </CharString>
          <CharString index="28">
            651 -100 callgsubr
            return
          </CharString>
          <CharString index="29">
            -7 -6 vvcurveto
            return
          </CharString>
          <CharString index="30">
            -43 -79 callsubr
            return
          </CharString>
          <CharString index="31">
            56 callsubr
            158 hlineto
            1 -27 callsubr
            return
          </CharString>
          <CharString index="32">
            -61 callsubr
            210 hlineto
            80 30 28 38 17 -12 19 -17 7 hvcurveto
            -29 -19 -26 -13 -40 hhcurveto
            endchar
          </CharString>
          <CharString index="33">
            -100 callgsubr
            276 -81 callsubr
            return
          </CharString>
          <CharString index="34">
            -38 -60 -53 -39 -52 -74 -2 hvcurveto
            -12 -1 -11 -83 callsubr
          </CharString>
          <CharString index="35" raw="1">
            f91f158a 390a0b  
          </CharString>
          <CharString index="36">
            hhcurveto
            -83 callgsubr
            return
          </CharString>
          <CharString index="37">
            -46 48 -59 callsubr
            -25 18 -44 vhcurveto
            endchar
          </CharString>
          <CharString index="38">
            20 callgsubr
            -26 56 59 364 callgsubr
            25 4 4 16 hvcurveto
            -1 -61 -1 -59 -58 -54 callsubr
          </CharString>
          <CharString index="39">
            20 -48 2 -82 -38 vvcurveto
            -129 -35 -48 -58 -65 -25 59 70 -1 vhcurveto
            45 1 128 callgsubr
            -156 293 callsubr
            34 102 callsubr
            -47 -1 -42 1 -37 vhcurveto
            -104 3 99 -83 87 hhcurveto
            74 59 48 138 73 -19 91 -31 50 hvcurveto
            return
          </CharString>
          <CharString index="40">
            rmoveto
            -35 callsubr
            -282 vlineto
            -117 62 -55 107 76 55 41 55 32 vhcurveto
            -26 81 callsubr
            endchar
          </CharString>
          <CharString index="41">
            168 callsubr
            118 120 callsubr
            55 5 -10 callgsubr
            1 -72 callgsubr
            30 -25 18 -44 vhcurveto
            endchar
          </CharString>
          <CharString index="42">
            hlineto
            41 -33 25 -56 -62 -60 callsubr
            return
          </CharString>
          <CharString index="43">
            rmoveto
            -69 callgsubr
            return
          </CharString>
          <CharString index="44">
            -32 callgsubr
            -384 vlineto
            -46 18 -24 38 22 18 229 callsubr
            337 callsubr
            return
          </CharString>
          <CharString index="45">
            hlineto
            -58 callsubr
            return
          </CharString>
          <CharString index="46">
            rmoveto
            405 callgsubr
            202 203 vlineto
            39 25 -3 -11 21 hvcurveto
            14 7 10 14 20 vvcurveto
            32 -30 9 -71 vhcurveto
            -211 244 273 hlineto
            40 25 -7 -18 20 hvcurveto
            17 6 12 15 20 vvcurveto
            33 -30 19 -70 vhcurveto
            -316 hlineto
            -42 -22 -12 -24 -16 hvcurveto
            243 callgsubr
            -509 vlineto
            -95 50 -37 101 vhcurveto
            return
          </CharString>
          <CharString index="47">
            305 callsubr
            -22 callsubr
            118 callsubr
            hvcurveto
            -87 callsubr
            return
          </CharString>
          <CharString index="48">
            5 -76 callsubr
            return
          </CharString>
          <CharString index="49">
            1 -27 callsubr
            -26 18 -43 vhcurveto
            return
          </CharString>
          <CharString index="50">
            -26 -11 -29 -33 vvcurveto
            -41 23 -34 35 42 12 43 28 return
          </CharString>
          <CharString index="51">
            39 34 147 4 -84 callsubr
            32 -2 122 callgsubr
            return
          </CharString>
          <CharString index="52">
            9 -45 20 callsubr
            return
          </CharString>
          <CharString index="53">
            214 callgsubr
            54 58 callsubr
            1 3 2 -106 callsubr
            endchar
          </CharString>
          <CharString index="54">
            vvcurveto
            31 -4 34 -20 15 vhcurveto
            return
          </CharString>
          <CharString index="55">
            vvcurveto
            -43 -55 callsubr
            return
          </CharString>
          <CharString index="56">
            -88 callgsubr
            1 -27 callsubr
            return
          </CharString>
          <CharString index="57">
            rmoveto
            -127 -103 94 192 -16 hvcurveto
            193 -16 92 127 127 hhcurveto
            130 105 -96 -192 13 hvcurveto
            -192 16 -92 -126 -129 hhcurveto
            291 303 rmoveto
            226 -122 140 -189 -189 -124 -144 -222 -225 124 -143 189 189 122 146 222 vhcurveto
            return
          </CharString>
          <CharString index="58">
            7 16 -47 callsubr
            return
          </CharString>
          <CharString index="59">
            -46 callsubr
            106 -90 105 return
          </CharString>
          <CharString index="60">
            243 callsubr
            25 27 -8 -7 14 109 callsubr
            34 -37 26 -60 return
          </CharString>
          <CharString index="61">
            -59 callgsubr
            -117 return
          </CharString>
          <CharString index="62">
            13 callgsubr
            5 9 1 3 8 -94 callsubr
          </CharString>
          <CharString index="63">
            rmoveto
            -60 -29 41 53 hvcurveto
            126 1 -76 111 vvcurveto
            12 -1 13 -6 15 vhcurveto
            77 -66 106 -109 54 -57 rrcurveto
            -41 -40 -49 -22 -53 244 callgsubr
            return
          </CharString>
          <CharString index="64">
            -74 callsubr
            174 -101 callsubr
          </CharString>
          <CharString index="65">
            rmoveto
            149 -6 61 57 86 hhcurveto
            85 65 -57 -149 6 hvcurveto
            -148 6 -59 -59 -86 hhcurveto
            -86 -66 59 148 -6 hvcurveto
            387 hmoveto
            174 -114 89 -124 -123 -115 -87 -176 -175 115 -88 123 124 114 88 175 vhcurveto
            return
          </CharString>
          <CharString index="66">
            vvcurveto
            -112 123 -79 109 23 24 4 9 22 vhcurveto
            12 -22 5 -21 -22 vvcurveto
            -29 -20 -22 258 callsubr
            25 -15 24 hhcurveto
            34 27 26 43 41 -20 39 -24 34 hvcurveto
            19 16 13 22 29 vvcurveto
            41 -29 29 -32 -31 -24 -24 -31 -14 4 -13 8 -13 vhcurveto
            -12 -25 -27 -4 -28 hhcurveto
            -66 -51 44 60 return
          </CharString>
          <CharString index="67">
            1 rrcurveto
            1 20 -34 callsubr
            return
          </CharString>
          <CharString index="68">
            -6 -41 -3 -42 -41 -52 callsubr
            return
          </CharString>
          <CharString index="69">
            52 vlineto
            -63 callsubr
            235 vlineto
            92 24 69 55 64 hhcurveto
            67 25 -41 -64 hvcurveto
            -278 81 callsubr
            return
          </CharString>
          <CharString index="70">
            rmoveto
            -70 callgsubr
            return
          </CharString>
          <CharString index="71">
            33 callgsubr
            -46 18 -24 37 23 19 14 18 11 vhcurveto
            -16 99 callgsubr
            return
          </CharString>
          <CharString index="72">
            46 -18 24 -37 -24 -17 -15 -17 -12 393 callgsubr
            -11 -22 vvcurveto
            -273 vlineto
            -70 -27 -54 -40 -64 hhcurveto
            -79 -25 43 63 hvcurveto
            279 194 callgsubr
            return
          </CharString>
          <CharString index="73">
            0 20 21 -1 callgsubr
            vvcurveto
            -21 -1 -23 -1 -22 vhcurveto
            -41 223 callgsubr
            196 callgsubr
            vhcurveto
            return
          </CharString>
          <CharString index="74">
            -31 -59 -36 -58 hhcurveto
            -59 -53 41 67 6 callsubr
            return
          </CharString>
          <CharString index="75">
            2 -72 callgsubr
            30 return
          </CharString>
          <CharString index="76">
            336 callsubr
            5 -56 54 5 203 callsubr
            -8 13 -3 39 34 147 4 -84 callsubr
            return
          </CharString>
          <CharString index="77">
            rmoveto
            79 -80 rlineto
            -12 12 11 -5 8 hhcurveto
            15 9 7 8 2 hvcurveto
            -66 103 rlineto
            32 -21 -17 18 -31 hhcurveto
            -33 -17 -18 -32 -20 hvcurveto
            -67 -103 rlineto
            -8 2 10 -7 14 hhcurveto
            9 10 5 12 12 hvcurveto
            return
          </CharString>
          <CharString index="78">
            23 135 vvcurveto
            82 -31 callgsubr
            return
          </CharString>
          <CharString index="79">
            12 6 6 8 3 hvcurveto
            -81 callgsubr
          </CharString>
          <CharString index="80">
            3 -32 callsubr
            return
          </CharString>
          <CharString index="81">
            33 15 24 20 15 119 callsubr
            -35 -28 -29 310 callgsubr
            21 -8 24 25 vvcurveto
            45 19 34 24 21 vhcurveto
            -212 65 rmoveto
            59 callgsubr
            return
          </CharString>
          <CharString index="82">
            -26 -23 -3 -22 320 callsubr
            28 -1 21 hhcurveto
            73 31 175 callgsubr
            -391 65 rmoveto
            1 callgsubr
            return
          </CharString>
          <CharString index="83">
            2 callgsubr
            32 -32 return
          </CharString>
          <CharString index="84">
            rmoveto
            290 129 vlineto
            115 55 -57 -89 -89 -55 -55 -115 hvcurveto
            51 -63 rmoveto
            125 15 83 73 120 vvcurveto
            135 -105 76 -153 vhcurveto
            -158 hlineto
            -42 -22 -12 -24 -16 hvcurveto
            336 callgsubr
            -580 207 callgsubr
            295 callsubr
            -7 10 22 vvcurveto
            233 90 vlineto
            157 -224 rlineto
            -56 38 20 -23 40 hhcurveto
            31 23 23 36 8 hvcurveto
            -29 -17 13 32 -26 hvcurveto
            endchar
          </CharString>
          <CharString index="85">
            50 -11 -17 52 -47 hhcurveto
            -30 -20 -26 -28 return
          </CharString>
          <CharString index="86">
            rmoveto
            -13 -25 -26 -6 -25 hhcurveto
            -65 -57 42 72 13 callsubr
            return
          </CharString>
          <CharString index="87">
            1 3 3 201 callsubr
            -266 hlineto
            -2 -3 -1 55 callsubr
            return
          </CharString>
          <CharString index="88">
            -55 26 -48 -8 callsubr
            21 -8 return
          </CharString>
          <CharString index="89">
            rmoveto
            -96 callsubr
            hhcurveto
            84 82 62 101 309 callgsubr
            hvcurveto
            return
          </CharString>
          <CharString index="90">
            31 -5 19 -21 -30 vvcurveto
            -36 -15 -24 -24 -18 vhcurveto
            -11 4 11 -6 15 hhcurveto
            37 49 47 69 return
          </CharString>
          <CharString index="91">
            299 callsubr
            -60 -29 41 53 hvcurveto
            130 1 -75 114 vvcurveto
            32 -2 40 -24 17 vhcurveto
            return
          </CharString>
          <CharString index="92" raw="1">
            f91f158a 880b  
          </CharString>
          <CharString index="93">
            -64 61 -91 94 -15 vhcurveto
            -56 -34 -66 -30 -47 -13 rrcurveto
            -33 3 25 -18 30 hhcurveto
            45 122 71 96 73 hvcurveto
            -5 -46 -1 -46 -46 -54 callgsubr
            77 1 73 2 72 vhcurveto
            59 33 55 35 55 hhcurveto
            55 50 -39 -64 -51 -36 -53 -70 -4 hvcurveto
            -16 -2 -19 2 -21 4 rrcurveto
            -1 -5 -1 -5 -5 vvcurveto
            -34 38 -22 36 91 58 66 74 103 -92 95 -94 -59 0 callsubr
            411 8 callgsubr
          </CharString>
          <CharString index="94">
            -12 callsubr
            -16 36 -20 27 vhcurveto
            return
          </CharString>
          <CharString index="95">
            -20 -53 -3 callgsubr
            return
          </CharString>
          <CharString index="96">
            hlineto
            39 callgsubr
            -42 50 -60 49 196 callgsubr
            vhcurveto
            return
          </CharString>
          <CharString index="97">
            vvcurveto
            -43 9 -45 48 5 21 callsubr
            return
          </CharString>
          <CharString index="98">
            -47 49 6 213 callsubr
            -8 13 -3 39 34 return
          </CharString>
          <CharString index="99">
            -100 callsubr
            23 -5 return
          </CharString>
          <CharString index="100">
            vvcurveto
            -98 111 -87 118 10 10 1 2 9 vhcurveto
            -75 -41 -87 -31 -65 -13 rrcurveto
            -34 2 26 -16 27 hhcurveto
            51 133 61 78 71 hvcurveto
            19 -22 15 -27 -27 vvcurveto
            -23 -15 -21 -28 -7 vhcurveto
            -23 9 21 -10 21 hhcurveto
            36 23 29 34 52 -43 49 -33 28 hvcurveto
            14 21 8 22 22 vvcurveto
            34 -20 36 -36 -31 -20 -26 -28 -21 7 -17 10 -16 vhcurveto
            -11 -23 -29 -6 -28 hhcurveto
            -75 -76 37 75 hvcurveto
            158 279 -37 124 12 callsubr
          </CharString>
          <CharString index="101">
            358 callsubr
            -69 -2 -65 vhcurveto
            -55 -41 -72 -20 -52 -3 callgsubr
            -17 36 -20 27 vhcurveto
            return
          </CharString>
          <CharString index="102">
            -96 callsubr
            hhcurveto
            47 47 return
          </CharString>
          <CharString index="103">
            vhcurveto
            -8 13 -3 -56 callsubr
            return
          </CharString>
          <CharString index="104">
            vvcurveto
            -62 -43 -56 -79 -2 vhcurveto
            return
          </CharString>
          <CharString index="105">
            472 128 callsubr
            -58 -329 vlineto
            -88 callsubr
            193 hlineto
            -1 -103 -2 -90 -90 13 callgsubr
            5 9 1 3 8 -107 callgsubr
          </CharString>
          <CharString index="106">
            -130 111 -144 43 11 7 7 return
          </CharString>
          <CharString index="107">
            -43 -28 -34 -26 vhcurveto
            4 30 2 29 48 -53 callsubr
            return
          </CharString>
          <CharString index="108">
            586 -49 callgsubr
            return
          </CharString>
          <CharString index="109">
            rmoveto
            -63 callsubr
            257 vlineto
            100 19 54 34 37 hhcurveto
            32 18 -18 -32 -8 0 -8 -2 -10 hvcurveto
            -2 7 9 -2 8 hhcurveto
            30 26 21 42 41 -32 40 -67 -62 -50 -38 -69 -27 hvcurveto
            endchar
          </CharString>
          <CharString index="110">
            rmoveto
            48 -13 19 -103 -120 -39 -13 -30 -11 5 -11 6 -8 vhcurveto
            2 25 53 3 44 hhcurveto
            60 hlineto
            -2 -150 rlineto
            -64 -47 -54 -34 -80 hhcurveto
            -135 -82 100 178 204 103 115 157 97 47 -47 -58 -6 hvcurveto
            -6 11 12 -2 12 hhcurveto
            33 24 22 30 65 -78 61 -132 -220 -152 -164 -240 -208 135 -122 161 87 69 46 44 36 hvcurveto
            -111 vlineto
            -46 19 -23 37 24 18 13 19 11 vhcurveto
            -16 6 -9 10 22 vvcurveto
            endchar
          </CharString>
          <CharString index="111">
            hhcurveto
            53 52 159 callgsubr
            47 6 203 callsubr
            -9 13 -3 39 34 147 5 132 callgsubr
          </CharString>
          <CharString index="112">
            hhcurveto
            -52 -29 -40 -47 -52 29 -53 39 6 6 2 2 3 hvcurveto
            -16 79 callgsubr
            return
          </CharString>
          <CharString index="113">
            57 43 63 callsubr
            hvcurveto
            return
          </CharString>
          <CharString index="114">
            -42 -27 -55 -28 -50 -16 rrcurveto
            -31 4 24 -15 28 hhcurveto
            54 121 96 73 53 hvcurveto
            -6 -42 -3 -44 -42 -52 callsubr
            vvcurveto
            74 1 return
          </CharString>
          <CharString index="115">
            -36 callgsubr
            32 79 return
          </CharString>
          <CharString index="116">
            -59 48 35 hvcurveto
            44 return
          </CharString>
          <CharString index="117">
            hhcurveto
            -42 -38 -26 -36 -33 30 -13 7 -3 hvcurveto
            32 18 26 18 32 hhcurveto
            50 28 -40 -45 -50 -37 -52 -77 -116 -65 121 92 -35 hvcurveto
            -11 -14 -6 -21 -45 98 -208 163 return
          </CharString>
          <CharString index="118">
            -46 651 -37 callsubr
            return
          </CharString>
          <CharString index="119">
            vvcurveto
            26 -12 22 -14 15 vhcurveto
            141 -55 callgsubr
          </CharString>
          <CharString index="120">
            105 callgsubr
            -178 6 callgsubr
            return
          </CharString>
          <CharString index="121">
            2 3 1 return
          </CharString>
          <CharString index="122">
            48 67 hvcurveto
            150 243 -11 128 vvcurveto
            31 -13 25 -20 19 vhcurveto
            return
          </CharString>
          <CharString index="123">
            6 24 27 351 callgsubr
            return
          </CharString>
          <CharString index="124">
            -31 callsubr
            32 -2 40 -41 callgsubr
            return
          </CharString>
          <CharString index="125">
            rmoveto
            10 -14 2 -41 -35 -16 0 -23 77 callgsubr
            179 callgsubr
            -48 -6 34 -17 42 hhcurveto
            69 295 64 128 86 324 callsubr
            -29 vvcurveto
            -44 10 -41 45 58 callsubr
            1 3 2 -106 callsubr
            endchar
          </CharString>
          <CharString index="126">
            73 557 589 rmoveto
            74 -89 66 -144 -119 -118 -73 -113 vhcurveto
            -214 410 6 -150 vvcurveto
            -74 -85 -57 -95 -104 -55 49 55 23 10 18 13 12 vhcurveto
            16 -11 -16 8 -23 hhcurveto
            -35 -28 -30 -43 -99 107 -72 142 143 121 88 120 hvcurveto
            193 -410 2 163 vvcurveto
            76 callgsubr
            hvcurveto
            return
          </CharString>
          <CharString index="127">
            48 5 82 callsubr
            return
          </CharString>
          <CharString index="128">
            82 callsubr
            vvcurveto
            74 1 76 1 71 vhcurveto
            65 29 51 35 51 hhcurveto
            return
          </CharString>
          <CharString index="129">
            vvcurveto
            -59 52 -37 74 63 41 32 26 7 -2 6 -4 5 vhcurveto
            -12 -24 -24 -7 -26 hhcurveto
            -37 -26 14 32 return
          </CharString>
          <CharString index="130">
            3 83 callgsubr
            return
          </CharString>
          <CharString index="131">
            37 callsubr
            -25 18 vhcurveto
            return
          </CharString>
          <CharString index="132">
            18 -18 9 -25 -25 return
          </CharString>
          <CharString index="133">
            rmoveto
            -135 407 rlineto
            44 -14 -19 21 -31 hhcurveto
            -23 -19 -10 -17 -11 hvcurveto
            17 -9 8 -17 6 -21 138 -400 rcurveline
            -32 11 25 -20 28 hhcurveto
            -39 -107 rlineto
            -40 -15 -21 -15 -26 hhcurveto
            -20 -16 6 13 -12 hvcurveto
            -9 -10 -5 -12 -14 vvcurveto
            -31 23 -29 49 50 38 28 74 29 vhcurveto
            217 565 rlineto
            62 25 -33 36 -36 hhcurveto
            -17 -16 -6 -9 -13 hvcurveto
            14 -16 5 -22 -13 -34 rrcurveto
            endchar
          </CharString>
          <CharString index="134">
            rmoveto
            9 290 callsubr
            vvcurveto
            -54 204 callgsubr
            -13 -26 -41 -12 -53 hhcurveto
            -28 -31 4 9 -33 hvcurveto
            10 21 7 callgsubr
            return
          </CharString>
          <CharString index="135">
            25 -18 19 -26 -32 -31 -29 -33 -25 return
          </CharString>
          <CharString index="136">
            586 rmoveto
            42 callgsubr
            return
          </CharString>
          <CharString index="137">
            273 callsubr
            1 -76 112 322 callsubr
            496 hmoveto
            101 callsubr
            -591 hlineto
            135 callsubr
            75 1 72 2 69 vhcurveto
            64 31 56 36 56 hhcurveto
            35 33 -17 -31 17 hvcurveto
            13 1 7 11 13 vvcurveto
            36 -57 47 -68 -57 -45 -26 -36 -28 vhcurveto
            4 30 2 29 48 -53 callsubr
            endchar
          </CharString>
          <CharString index="138">
            350 callgsubr
            54 41 23 24 27 379 callgsubr
            -44 vvcurveto
            -44 10 -47 49 5 9 1 3 8 -107 callgsubr
          </CharString>
          <CharString index="139">
            -76 callsubr
            -26 18 return
          </CharString>
          <CharString index="140">
            hlineto
            -96 callgsubr
            11 1 12 189 callgsubr
            return
          </CharString>
          <CharString index="141">
            rmoveto
            9 -16 2 -20 -85 vvcurveto
            -25 -8 -20 -12 -17 vhcurveto
            -137 108 -78 57 -50 18 rrcurveto
            345 -410 rmoveto
            -54 -86 -35 -98 -69 -93 22 61 63 84 16 87 27 vhcurveto
            71 -8 104 -24 -68 vvcurveto
            -324 320 rmoveto
            -1 13 0 13 -5 12 67 -42 86 -65 67 -53 rrcurveto
            -36 -51 -72 -9 -10 hhcurveto
            -54 -26 38 61 23 0 32 -1 13 hvcurveto
            -212 155 62 callgsubr
            -33 vvcurveto
            1 -16 -1 -18 -29 vvcurveto
            -52 37 -60 54 -30 vhcurveto
            -60 -19 -50 -32 -60 vvcurveto
            -87 131 -75 122 140 84 55 73 59 -61 65 -108 19 vhcurveto
            63 28 50 44 85 vvcurveto
            63 -2 46 -24 18 vhcurveto
            148 -55 callgsubr
          </CharString>
          <CharString index="142">
            rmoveto
            14 hlineto
            128 30 24 22 8 -1 4 -3 5 hvcurveto
            -168 82 hlineto
            46 -19 24 -38 -22 389 callgsubr
            -8 9 -10 -22 vvcurveto
            -81 -15 vlineto
            -25 -15 3 2 -14 hvcurveto
            -8 -7 -4 -11 -11 vvcurveto
            -18 17 -19 64 -2 vhcurveto
            -320 vlineto
            -88 45 -45 83 90 62 49 42 17 -9 8 -8 4 vhcurveto
            -30 -31 -40 -23 -46 hhcurveto
            -44 -18 20 49 hvcurveto
            endchar
          </CharString>
          <CharString index="143">
            5 102 131 rmoveto
            -96 49 -35 101 vhcurveto
            169 hlineto
            80 30 29 38 16 -11 18 -18 6 hvcurveto
            -28 -17 -25 -14 -39 hhcurveto
            -164 hlineto
            405 callgsubr
            523 vlineto
            46 -20 23 -36 -23 -19 -14 -17 -11 129 callgsubr
            return
          </CharString>
          <CharString index="144">
            rmoveto
            302 callgsubr
            -63 5 80 callgsubr
            -3 52 return
          </CharString>
          <CharString index="145">
            -40 callgsubr
            269 hlineto
            20 -16 14 -24 -19 vvcurveto
            -20 -17 -16 -37 vhcurveto
            -25 -20 1 -19 hhcurveto
            -83 -51 -34 -67 -77 89 -72 76 hvcurveto
            24 27 3 20 hhcurveto
            49 26 -26 -38 -62 -75 -30 -61 -29 -37 6 12 -19 hvcurveto
            49 -10 -25 43 -38 hhcurveto
            -25 -17 -19 -24 -49 41 -36 53 -22 hvcurveto
            -124 44 70 -62 66 hhcurveto
            43 24 23 27 17 -9 16 -16 9 hvcurveto
            -16 -16 -21 -5 -17 hhcurveto
            -50 -43 44 56 -29 hvcurveto
            -7 27 29 -3 26 hhcurveto
            93 79 54 83 89 -88 60 -80 hvcurveto
            -24 -23 -3 -21 hhcurveto
            -49 -25 29 29 48 53 13 33 hvcurveto
            18 27 -1 20 hhcurveto
            73 32 175 callgsubr
            180 hlineto
            1 3 2 -106 callsubr
            return
          </CharString>
          <CharString index="146">
            -143 112 141 callgsubr
            25 11 -2 10 return
          </CharString>
          <CharString index="147">
            9 callsubr
            148 return
          </CharString>
          <CharString index="148">
            -49 callgsubr
            496 hmoveto
            101 callsubr
            -591 hlineto
            144 callgsubr
            35 33 -17 -31 17 hvcurveto
            13 1 7 11 13 vvcurveto
            36 -57 47 -68 326 callgsubr
            vhcurveto
            4 30 2 29 48 -53 callsubr
            endchar
          </CharString>
          <CharString index="149">
            rmoveto
            -104 callgsubr
            472 102 callsubr
            -33 -329 vlineto
            45 callgsubr
            196 hlineto
            -1 -49 0 -46 -1 -44 -68 -57 -137 -96 -106 -25 rrcurveto
            -33 4 24 -18 29 hhcurveto
            59 128 89 72 76 hvcurveto
            -6 -30 -3 -58 -27 vvcurveto
            -42 11 -42 46 5 9 1 3 8 -107 callgsubr
          </CharString>
          <CharString index="150">
            256 callgsubr
            -407 293 callsubr
            287 377 callgsubr
            -27 -8 -27 vhcurveto
            -26 -36 -60 callgsubr
            return
          </CharString>
          <CharString index="151">
            1 2 10 hvcurveto
            -1 -2 0 -3 -3 121 callgsubr
            return
          </CharString>
          <CharString index="152">
            rmoveto
            -104 callgsubr
            75 hlineto
            42 -35 36 -63 -58 vvcurveto
            -25 -5 -24 -12 -19 vhcurveto
            30 -11 -27 18 -23 hhcurveto
            -27 -19 -19 -28 -51 51 -40 46 62 31 49 69 68 -33 76 -52 52 hvcurveto
            return
          </CharString>
          <CharString index="153">
            -160 -4 -126 -126 13 callgsubr
            5 203 callsubr
            -8 13 -3 39 34 148 4 136 133 vvcurveto
            return
          </CharString>
          <CharString index="154">
            -47 callgsubr
            endchar
          </CharString>
          <CharString index="155">
            88 callsubr
            -66 -1 -59 -57 vvcurveto
            -52 -38 -57 -31 -52 70 callsubr
            return
          </CharString>
          <CharString index="156">
            -100 callgsubr
            603 33 callsubr
            -81 -53 -55 -64 -7 vhcurveto
            43 -35 -47 35 -61 hhcurveto
            -90 -59 -56 -90 -37 callgsubr
            66 38 40 61 vhcurveto
            131 13 -221 162 hhcurveto
            379 callsubr
            hvcurveto
            -39 callsubr
            vvcurveto
            74 1 return
          </CharString>
          <CharString index="157">
            -31 -32 -51 -22 -55 hhcurveto
            -79 -75 58 130 142 84 69 73 53 22 -26 -35 -7 -1 -8 -2 -7 hvcurveto
            -5 8 12 -3 12 hhcurveto
            26 23 18 34 return
          </CharString>
          <CharString index="158">
            146 callsubr
            hlineto
            return
          </CharString>
          <CharString index="159">
            296 callgsubr
            28 -53 39 7 270 callgsubr
            -7 306 callsubr
            return
          </CharString>
          <CharString index="160">
            32 30 30 33 28 callsubr
            return
          </CharString>
          <CharString index="161">
            7 callsubr
            76 1 return
          </CharString>
          <CharString index="162">
            -7 -4 vvcurveto
            -45 45 -5 32 22 31 3 4 28 vhcurveto
            -26 -22 -13 -30 -30 vvcurveto
            return
          </CharString>
          <CharString index="163">
            82 callsubr
            147 4 -84 callsubr
            32 -2 40 -41 callgsubr
            return
          </CharString>
          <CharString index="164">
            hlineto
            29 -37 17 -49 -49 vvcurveto
            -71 -36 return
          </CharString>
          <CharString index="165">
            38 callgsubr
            157 hlineto
            return
          </CharString>
          <CharString index="166">
            -33 -27 -24 -31 -17 9 -17 17 -10 hvcurveto
            -14 callgsubr
            return
          </CharString>
          <CharString index="167">
            hhcurveto
            59 callsubr
            58 67 -62 -49 43 hvcurveto
            -149 139 callgsubr
            return
          </CharString>
          <CharString index="168">
            rmoveto
            -45 -33 -46 -24 -49 114 callgsubr
            return
          </CharString>
          <CharString index="169">
            hvcurveto
            10 21 16 callsubr
            -44 49 vhcurveto
            return
          </CharString>
          <CharString index="170">
            55 75 23 21 -6 -7 17 return
          </CharString>
          <CharString index="171">
            rmoveto
            -28 -20 4 9 -19 hvcurveto
            -8 -8 -7 -15 -13 vvcurveto
            -24 12 -20 43 vhcurveto
            163 -589 hlineto
            -46 19 -24 38 23 17 14 18 11 vhcurveto
            -15 7 -10 10 22 vvcurveto
            588 139 vlineto
            29 23 -6 -8 14 hvcurveto
            8 8 8 15 13 vvcurveto
            24 -12 21 -44 vhcurveto
            endchar
          </CharString>
          <CharString index="172">
            -306 71 callsubr
            return
          </CharString>
          <CharString index="173">
            -74 callgsubr
            40 hlineto
            8 return
          </CharString>
          <CharString index="174">
            hhcurveto
            -62 -53 36 59 96 callgsubr
            return
          </CharString>
          <CharString index="175">
            -53 callsubr
            354 294 callgsubr
            -42 -56 -80 -2 vhcurveto
            return
          </CharString>
          <CharString index="176">
            rmoveto
            9 -17 3 280 callsubr
            -69 -2 -65 vhcurveto
            -55 -41 -71 -12 callsubr
            return
          </CharString>
          <CharString index="177">
            hhcurveto
            -60 -29 145 callsubr
            return
          </CharString>
          <CharString index="178">
            175 447 rmoveto
            -63 callsubr
            return
          </CharString>
          <CharString index="179">
            92 callgsubr
            -25 18 -44 vhcurveto
            return
          </CharString>
          <CharString index="180">
            -91 hhcurveto
            -25 -20 -10 -15 -14 hvcurveto
            15 -10 -21 9 -31 hhcurveto
            -336 -40 callgsubr
            108 hlineto
            147 callsubr
            vvcurveto
            -21 -1 return
          </CharString>
          <CharString index="181">
            rmoveto
            -2 -106 callgsubr
            return
          </CharString>
          <CharString index="182">
            94 callsubr
            -17 36 -20 27 vhcurveto
            return
          </CharString>
          <CharString index="183">
            -10 vhcurveto
            16 -7 9 return
          </CharString>
          <CharString index="184">
            764 rmoveto
            82 84 36 59 24 -18 19 -22 3 hvcurveto
            387 callsubr
            -13 -5 -3 -10 -8 vvcurveto
            -39 90 -76 118 vhcurveto
            return
          </CharString>
          <CharString index="185">
            hlineto
            2 40 callgsubr
            endchar
          </CharString>
          <CharString index="186">
            rmoveto
            10 4 6 8 9 vvcurveto
            35 -141 126 -61 -52 -125 -96 -41 -19 11 -16 22 -9 vhcurveto
            127 callsubr
            return
          </CharString>
          <CharString index="187">
            105 callsubr
            -110 -1 59 -101 vvcurveto
            return
          </CharString>
          <CharString index="188">
            116 callsubr
            -9 10 22 vvcurveto
            return
          </CharString>
          <CharString index="189">
            98 callsubr
            39 34 return
          </CharString>
          <CharString index="190">
            87 callsubr
            -24 return
          </CharString>
          <CharString index="191">
            -75 -89 -2 -69 402 callgsubr
            -25 16 -22 46 17 18 2 2 17 vhcurveto
            -21 -22 -13 -31 -35 141 callsubr
            return
          </CharString>
          <CharString index="192">
            -39 -38 -71 -42 -85 hhcurveto
            -147 -88 103 187 207 118 95 111 92 42 -47 -54 -7 hvcurveto
            -6 11 12 -1 12 hhcurveto
            32 25 19 34 return
          </CharString>
          <CharString index="193">
            -10 15 290 callgsubr
            9 -12 -65 return
          </CharString>
          <CharString index="194">
            7 callgsubr
            -309 65 rmoveto
            -96 callsubr
            hhcurveto
            47 46 19 35 32 hvcurveto
            return
          </CharString>
          <CharString index="195">
            586 rmoveto
            26 callgsubr
            return
          </CharString>
          <CharString index="196">
            87 89 -20 hvcurveto
            4 return
          </CharString>
          <CharString index="197">
            332 callsubr
            20 221 callgsubr
            -12 hhcurveto
            -92 -34 123 callsubr
            hhcurveto
            return
          </CharString>
          <CharString index="198">
            40 36 32 65 64 27 -31 -29 -8 -2 -9 -4 -7 vhcurveto
            -8 11 15 -4 13 hhcurveto
            29 27 17 34 -1 hvcurveto
            return
          </CharString>
          <CharString index="199">
            401 116 rmoveto
            -43 -26 -43 -22 -53 hhcurveto
            -77 -70 63 132 144 67 70 88 45 39 -16 -27 30 hvcurveto
            84 274 rmoveto
            46 -19 23 -38 -22 -19 -13 -18 -11 vhcurveto
            243 callgsubr
            -206 vlineto
            22 -35 -41 12 -46 hhcurveto
            -128 -104 -108 -165 -167 111 -86 104 58 48 21 41 33 hvcurveto
            -41 2 18 -21 36 hhcurveto
            22 19 14 18 12 hvcurveto
            337 callsubr
            return
          </CharString>
          <CharString index="200">
            hvcurveto
            -9 -10 -5 -13 -15 65 callgsubr
            return
          </CharString>
          <CharString index="201">
            586 69 callsubr
            return
          </CharString>
          <CharString index="202">
            -87 callgsubr
            hvcurveto
            return
          </CharString>
          <CharString index="203">
            651 316 callsubr
            return
          </CharString>
          <CharString index="204">
            rmoveto
            28 19 20 27 34 -33 31 -32 -28 -20 -20 -27 -34 32 -31 34 hvcurveto
            return
          </CharString>
          <CharString index="205">
            203 callsubr
            -9 13 -2 return
          </CharString>
          <CharString index="206">
            28 104 callgsubr
            return
          </CharString>
          <CharString index="207">
            39 79 hvcurveto
            162 281 -37 128 vvcurveto
            26 -12 22 return
          </CharString>
          <CharString index="208">
            14 callsubr
            -106 callsubr
            return
          </CharString>
          <CharString index="209">
            hlineto
            26 callgsubr
            vvcurveto
            return
          </CharString>
          <CharString index="210">
            -90 callsubr
            43 vhcurveto
            35 hlineto
            39 -29 24 -43 -46 vvcurveto
            -55 -40 -47 -72 -7 -6 1 1 -5 vhcurveto
            41 -10 -17 36 -38 hhcurveto
            -26 -18 -21 -25 -43 37 -30 45 -15 hvcurveto
            -77 24 57 -119 102 141 callgsubr
            26 9 -3 12 -5 10 hvcurveto
            -6 -15 -17 -3 -15 hhcurveto
            -67 -50 52 63 -23 hvcurveto
            -1 6 7 0 7 hhcurveto
            79 78 47 95 50 -24 53 -44 40 hvcurveto
            return
          </CharString>
          <CharString index="211">
            rmoveto
            32 -21 -17 18 -31 hhcurveto
            -33 -17 -18 -32 -20 hvcurveto
            -67 -103 rlineto
            -8 2 10 -7 14 hhcurveto
            9 10 5 12 12 hvcurveto
            79 80 79 -80 rlineto
            -12 12 11 -5 8 hhcurveto
            15 9 7 8 2 hvcurveto
            endchar
          </CharString>
          <CharString index="212">
            586 111 callgsubr
            return
          </CharString>
          <CharString index="213">
            175 -101 callsubr
          </CharString>
          <CharString index="214">
            586 rmoveto
            20 -48 2 -82 -38 vvcurveto
            -129 -35 -48 -58 -65 -25 59 70 -1 vhcurveto
            45 1 128 callgsubr
            return
          </CharString>
          <CharString index="215">
            rmoveto
            31 21 14 24 8 -2 5 -3 3 hvcurveto
            -277 hlineto
            -31 -21 -14 -24 -7 2 -5 3 -4 hvcurveto
            return
          </CharString>
          <CharString index="216">
            hvcurveto
            23 callsubr
            return
          </CharString>
          <CharString index="217">
            -31 callgsubr
            -113 -190 -15 -28 -64 vhcurveto
            52 -56 -81 47 -98 hhcurveto
            -81 131 callgsubr
            121 return
          </CharString>
          <CharString index="218">
            21 179 callsubr
            4 -56 55 5 56 callsubr
            return
          </CharString>
          <CharString index="219">
            hhcurveto
            -64 -46 -44 -60 -58 38 -45 37 5 8 2 5 4 hvcurveto
            -18 21 -10 22 23 vvcurveto
            42 31 30 41 76 58 -74 -129 25 vhcurveto
            -136 -40 callgsubr
            77 hlineto
            3 -26 1 -27 -29 46 callsubr
            return
          </CharString>
          <CharString index="220">
            hlineto
            -104 callsubr
            return
          </CharString>
          <CharString index="221">
            hhcurveto
            -64 -55 37 63 33 15 24 20 15 119 callsubr
            -35 -28 -29 310 callgsubr
            21 -8 24 25 vvcurveto
            45 19 34 24 21 vhcurveto
            return
          </CharString>
          <CharString index="222">
            6 8 1 3 194 callsubr
            -84 callsubr
            return
          </CharString>
          <CharString index="223">
            207 callgsubr
            17 229 callsubr
            -17 7 return
          </CharString>
          <CharString index="224">
            380 callsubr
            148 callsubr
            return
          </CharString>
          <CharString index="225">
            -54 42 -38 51 -17 return
          </CharString>
          <CharString index="226">
            21 callgsubr
            -38 18 return
          </CharString>
          <CharString index="227">
            hlineto
            -1 -100 -2 -88 -88 214 callgsubr
            return
          </CharString>
          <CharString index="228">
            -6 24 vhcurveto
            141 hlineto
            2 40 callgsubr
            -95 hlineto
            -9 24 -6 return
          </CharString>
          <CharString index="229">
            586 125 callsubr
            return
          </CharString>
          <CharString index="230">
            89 callsubr
            4 0 4 return
          </CharString>
          <CharString index="231">
            305 callgsubr
            -75 79 -80 -57 -52 -41 -66 -50 34 -48 41 6 6 2 2 2 vhcurveto
            -16 15 -10 22 27 vvcurveto
            43 32 34 43 41 25 -31 -36 return
          </CharString>
          <CharString index="232">
            rmoveto
            401 callsubr
            -53 -10 -31 157 callsubr
            -27 34 50 vvcurveto
            47 24 44 43 44 22 -45 -53 -113 -91 -129 22 callgsubr
            return
          </CharString>
          <CharString index="233">
            133 callgsubr
            -77 -1 -70 -1 -65 vhcurveto
            -59 15 -77 23 -65 32 rrcurveto
            42 37 31 45 50 vvcurveto
            88 -80 76 return
          </CharString>
          <CharString index="234">
            75 71 64 43 26 hhcurveto
            46 105 -101 -18 18 hvcurveto
            return
          </CharString>
          <CharString index="235">
            390 callsubr
            vvcurveto
            return
          </CharString>
          <CharString index="236">
            -1 -63 -1 -60 vhcurveto
            return
          </CharString>
          <CharString index="237">
            hhcurveto
            -48 -42 -25 -35 -30 hvcurveto
            41 174 callgsubr
            22 -8 21 vhcurveto
            38 21 34 22 43 hhcurveto
            20 return
          </CharString>
          <CharString index="238">
            218 callsubr
            -83 -59 48 35 hvcurveto
            44 149 -21 callgsubr
            return
          </CharString>
          <CharString index="239">
            hhcurveto
            66 callgsubr
            return
          </CharString>
          <CharString index="240">
            hlineto
            41 -33 25 -56 -62 -3 callsubr
            return
          </CharString>
          <CharString index="241">
            160 callsubr
            -64 return
          </CharString>
          <CharString index="242">
            -22 callgsubr
            -31 -33 -110 -1 58 -102 vvcurveto
            -64 61 -91 94 -15 vhcurveto
            -56 -34 -66 -30 -47 -13 rrcurveto
            -33 3 25 -18 30 hhcurveto
            45 122 71 96 73 hvcurveto
            -5 -46 -1 -46 -46 -54 callgsubr
            return
          </CharString>
          <CharString index="243">
            rmoveto
            -63 callsubr
            endchar
          </CharString>
          <CharString index="244">
            -40 -18 -43 -36 -24 vhcurveto
            -14 3 11 -7 11 hhcurveto
            46 57 74 98 51 -27 57 -54 return
          </CharString>
          <CharString index="245">
            185 callsubr
            147 4 -84 callsubr
            return
          </CharString>
          <CharString index="246">
            -226 378 232 callgsubr
            367 callgsubr
            75 hlineto
            42 -35 36 -63 -58 vvcurveto
            -25 -5 -24 -12 -19 vhcurveto
            30 -11 -27 18 -23 hhcurveto
            -27 -19 -19 -28 -51 51 -40 46 62 31 49 69 68 -33 76 -52 52 hvcurveto
            return
          </CharString>
          <CharString index="247">
            13 401 -5 callgsubr
            -91 -153 -34 -55 vvcurveto
            return
          </CharString>
          <CharString index="248">
            vvcurveto
            -129 111 -143 97 callgsubr
            return
          </CharString>
          <CharString index="249">
            586 rmoveto
            101 callsubr
            return
          </CharString>
          <CharString index="250">
            190 callgsubr
            2 return
          </CharString>
          <CharString index="251">
            rmoveto
            51 -31 28 -40 -28 -25 -18 -25 -2 vhcurveto
            31 -6 19 -20 -31 vvcurveto
            -36 -15 -23 -25 -18 vhcurveto
            -11 4 12 -7 15 hhcurveto
            36 49 48 68 hvcurveto
            endchar
          </CharString>
          <CharString index="252">
            41 53 -7 callgsubr
            return
          </CharString>
          <CharString index="253">
            95 callsubr
            212 return
          </CharString>
          <CharString index="254">
            13 -15 1 -47 -100 return
          </CharString>
          <CharString index="255">
            6 callsubr
            188 callsubr
            return
          </CharString>
          <CharString index="256">
            -33 -26 callgsubr
            332 hlineto
            9 -67 callgsubr
            -57 -66 -83 -47 -97 return
          </CharString>
          <CharString index="257">
            -52 callsubr
            vvcurveto
            74 1 75 1 71 vhcurveto
            66 29 53 35 51 hhcurveto
            38 36 -19 -42 17 hvcurveto
            17 -2 8 11 13 vvcurveto
            41 -64 58 -71 -51 -41 -24 -34 -26 vhcurveto
            304 callsubr
            endchar
          </CharString>
          <CharString index="258">
            -4 -42 -1 -43 -42 172 callsubr
            return
          </CharString>
          <CharString index="259">
            651 rmoveto
            37 -4 -100 219 -124 148 callgsubr
            return
          </CharString>
          <CharString index="260">
            rmoveto
            27 1 26 4 22 8 rrcurveto
            2 -8 0 -9 -7 vvcurveto
            -84 -64 -52 -89 -47 -49 24 47 40 36 35 94 vhcurveto
            15 20 1 7 hhcurveto
            -452 482 -100 callgsubr
            421 201 callgsubr
            return
          </CharString>
          <CharString index="261">
            10 -17 2 -28 -42 vvcurveto
            -94 -1 -86 -1 -82 vhcurveto
            -61 -43 -74 -21 -55 hhcurveto
            -51 -60 22 39 hvcurveto
            55 145 25 77 vvcurveto
            60 -53 70 -97 return
          </CharString>
          <CharString index="262">
            -38 -35 vvcurveto
            -54 204 callgsubr
            -13 -25 -43 -12 -52 hhcurveto
            -28 -31 206 callsubr
            return
          </CharString>
          <CharString index="263">
            -7 callgsubr
            -162 167 callsubr
            return
          </CharString>
          <CharString index="264">
            -54 -50 vvcurveto
            -80 56 -68 34 8 6 4 5 3 vhcurveto
            -20 21 return
          </CharString>
          <CharString index="265">
            170 callsubr
            vhcurveto
            return
          </CharString>
          <CharString index="266">
            1 rrcurveto
            323 callgsubr
            return
          </CharString>
          <CharString index="267">
            88 callsubr
            vvcurveto
            return
          </CharString>
          <CharString index="268">
            143 callsubr
            -38 return
          </CharString>
          <CharString index="269">
            -30 -1 -22 -29 vvcurveto
            -36 3 -50 48 5 8 1 3 7 vhcurveto
            -8 12 -3 34 31 23 1 17 22 vvcurveto
            94 -96 105 -123 -52 -45 -15 -24 -35 vhcurveto
            -18 18 -12 20 24 vvcurveto
            36 26 38 59 vhcurveto
            53 46 -1 54 hhcurveto
            59 33 32 42 32 -16 28 -24 21 hvcurveto
            return
          </CharString>
          <CharString index="270">
            42 73 65 -42 53 -25 25 hvcurveto
            193 hlineto
            -1 -103 -2 -90 -90 214 callgsubr
            55 -64 callgsubr
          </CharString>
          <CharString index="271">
            -39 -33 -22 -34 -28 19 -17 20 -8 hvcurveto
            26 10 21 10 23 hhcurveto
            60 71 -44 -48 49 hvcurveto
            -74 -81 -102 -65 -58 hhcurveto
            -40 29 -15 27 return
          </CharString>
          <CharString index="272">
            212 callgsubr
            -40 22 -27 41 47 vvcurveto
            44 25 49 59 60 31 -57 -54 -116 -102 -91 -138 -104 -90 56 89 -34 vhcurveto
            92 2 58 68 84 vvcurveto
            63 -27 62 -35 44 vhcurveto
            return
          </CharString>
          <CharString index="273">
            135 callgsubr
            -62 -1 -58 -54 vvcurveto
            -168 176 -62 65 -40 317 callgsubr
            11 -1 13 -5 14 vhcurveto
            74 -66 103 -109 55 -60 rrcurveto
            -37 -39 -50 -21 -49 hhcurveto
            return
          </CharString>
          <CharString index="274">
            66 callsubr
            -12 return
          </CharString>
          <CharString index="275">
            288 callsubr
            75 45 32 79 vhcurveto
            return
          </CharString>
          <CharString index="276">
            -13 13 -21 -18 vvcurveto
            -22 -15 -17 return
          </CharString>
          <CharString index="277">
            72 callgsubr
            50 12 6 6 8 3 return
          </CharString>
          <CharString index="278">
            59 callsubr
            69 83 -89 -49 39 hvcurveto
            27 5 2 21 22 return
          </CharString>
          <CharString index="279">
            -54 callgsubr
            75 1 72 2 69 vhcurveto
            64 31 264 callgsubr
            return
          </CharString>
          <CharString index="280">
            195 callgsubr
            -66 -1 -59 -1 -57 vhcurveto
            -52 -38 -57 -31 -52 hhcurveto
            -59 -30 145 callsubr
            -54 hmoveto
            8 -13 2 -31 -36 vvcurveto
            1 -110 -1 58 -101 vvcurveto
            return
          </CharString>
          <CharString index="281">
            118 callgsubr
            -102 -37 -55 -59 return
          </CharString>
          <CharString index="282">
            39 32 16 21 24 return
          </CharString>
          <CharString index="283" raw="1">
            8ff7570a 0b  
          </CharString>
          <CharString index="284">
            rmoveto
            -52 -126 -96 -41 -19 11 -16 23 -9 hvcurveto
            75 70 65 43 26 hhcurveto
            46 105 -101 -18 17 hvcurveto
            10 4 7 return
          </CharString>
          <CharString index="285">
            586 rmoveto
            10 -17 3 -28 -42 vvcurveto
            -96 -1 -87 -2 -83 vhcurveto
            -58 -41 -72 -20 return
          </CharString>
          <CharString index="286">
            38 hhcurveto
            28 24 -7 -13 20 hvcurveto
            -1 -92 -2 -83 -83 vvcurveto
            -41 return
          </CharString>
          <CharString index="287">
            37 27 34 23 return
          </CharString>
          <CharString index="288">
            205 callsubr
            -28 -28 310 callgsubr
            20 -7 25 return
          </CharString>
          <CharString index="289">
            13 46 29 3 45 hhcurveto
            149 138 -96 -207 -209 -138 -96 -149 -116 -7 22 41 hvcurveto
            return
          </CharString>
          <CharString index="290">
            -18 44 vhcurveto
            17 262 callgsubr
            return
          </CharString>
          <CharString index="291">
            28 callsubr
            18 -20 27 return
          </CharString>
          <CharString index="292">
            47 6 82 callsubr
            return
          </CharString>
          <CharString index="293">
            rlineto
            -18 callgsubr
            return
          </CharString>
          <CharString index="294">
            62 -65 rmoveto
            -6 -18 -12 -22 -7 -7 rrcurveto
            -13 16 13 -2 8 hhcurveto
            36 15 40 17 4 hvcurveto
            337 966 6 15 8 23 12 9 rlinecurve
            9 -14 -12 4 -13 hhcurveto
            -35 -14 -40 -18 -6 hvcurveto
            endchar
          </CharString>
          <CharString index="295">
            23 callsubr
            35 -37 22 -57 346 callsubr
            return
          </CharString>
          <CharString index="296">
            -46 19 -24 36 24 return
          </CharString>
          <CharString index="297">
            -87 -55 -64 -71 return
          </CharString>
          <CharString index="298">
            265 callgsubr
            148 38 101 vvcurveto
            41 -16 36 -20 27 vhcurveto
            -52 hmoveto
            208 callgsubr
            return
          </CharString>
          <CharString index="299">
            vvcurveto
            238 callsubr
            1 -72 callgsubr
            30 -25 18 -44 vhcurveto
            endchar
          </CharString>
          <CharString index="300">
            vlineto
            -62 -19 -27 -63 vhcurveto
            -32 14 27 -19 35 hhcurveto
            49 41 37 84 hvcurveto
            return
          </CharString>
          <CharString index="301">
            8 vhcurveto
            -8 13 -3 39 34 147 5 return
          </CharString>
          <CharString index="302" raw="1">
            8b8f1bba f7441d0b  
          </CharString>
          <CharString index="303">
            157 hlineto
            29 -37 return
          </CharString>
          <CharString index="304">
            -80 hhcurveto
            -43 -38 -27 -35 -33 29 -12 6 -2 hvcurveto
            32 17 27 17 32 hhcurveto
            47 26 -36 -40 -46 -39 -51 -77 -110 -64 110 86 -35 hvcurveto
            -10 -14 -5 -21 -42 95 -194 159 return
          </CharString>
          <CharString index="305">
            hhcurveto
            -46 -31 -25 -41 -42 34 -50 44 30 22 26 51 9 hvcurveto
            61 -14 63 -35 43 -45 rrcurveto
            -179 -76 -97 -51 -52 vvcurveto
            -39 52 -34 45 30 27 17 28 17 -8 21 -15 27 vhcurveto
            return
          </CharString>
          <CharString index="306">
            586 rmoveto
            360 callgsubr
            -63 -114 -20 -74 -64 vhcurveto
            -42 -48 -28 -24 -64 hhcurveto
            -20 return
          </CharString>
          <CharString index="307">
            rmoveto
            9 290 callsubr
            vvcurveto
            -65 281 callgsubr
            return
          </CharString>
          <CharString index="308">
            409 callsubr
            -49 0 -20 vhcurveto
            return
          </CharString>
          <CharString index="309">
            90 81 vvcurveto
            75 45 32 78 vhcurveto
            return
          </CharString>
          <CharString index="310">
            31 callgsubr
            8 vhcurveto
            return
          </CharString>
          <CharString index="311">
            67 callsubr
            -29 -8 -16 -24 hvcurveto
            -15 21 -7 25 24 vvcurveto
            50 35 56 67 vhcurveto
            return
          </CharString>
          <CharString index="312">
            16 hvcurveto
            -7 19 19 -4 20 hhcurveto
            29 34 14 34 35 -38 18 -35 return
          </CharString>
          <CharString index="313">
            4 9 -33 62 callsubr
            return
          </CharString>
          <CharString index="314">
            hlineto
            213 callgsubr
            return
          </CharString>
          <CharString index="315">
            hhcurveto
            -84 -53 -39 -66 -79 94 -84 77 58 31 37 39 33 -20 25 -33 4 hvcurveto
            1 -7 0 -8 -3 -7 rrcurveto
            -32 -2 -27 -22 -37 hhcurveto
            -38 -37 29 41 48 43 23 47 hvcurveto
            return
          </CharString>
          <CharString index="316">
            -4 20 hhcurveto
            29 34 14 34 35 -38 18 -35 -28 -28 310 callgsubr
            20 -7 25 25 vvcurveto
            49 35 348 callsubr
            return
          </CharString>
          <CharString index="317">
            5 203 callsubr
            -8 13 -3 39 34 147 4 289 callgsubr
            -2 38 -27 17 vhcurveto
            160 78 callsubr
          </CharString>
          <CharString index="318">
            -11 callgsubr
            -43 vhcurveto
            endchar
          </CharString>
          <CharString index="319">
            -4 -42 -1 -43 -42 -54 callgsubr
            return
          </CharString>
          <CharString index="320">
            8 1 3 8 vhcurveto
            return
          </CharString>
          <CharString index="321">
            51 17 31 39 return
          </CharString>
          <CharString index="322">
            hlineto
            331 callgsubr
            -59 -52 224 callgsubr
            21 -6 -7 17 hvcurveto
            4 83 callgsubr
            35 return
          </CharString>
          <CharString index="323">
            -50 13 -25 11 -39 vhcurveto
            endchar
          </CharString>
          <CharString index="324">
            -30 -23 2 3 -14 hvcurveto
            -7 -8 -6 -10 -11 vvcurveto
            -18 19 -17 69 -4 vhcurveto
            -552 193 callsubr
            570 return
          </CharString>
          <CharString index="325">
            586 358 callsubr
            -69 -2 -65 vhcurveto
            -55 405 callsubr
            return
          </CharString>
          <CharString index="326">
            -78 callsubr
            -24 14 -10 15 290 callgsubr
            8 -12 -65 vvcurveto
            return
          </CharString>
          <CharString index="327">
            vvcurveto
            169 callgsubr
            return
          </CharString>
          <CharString index="328" raw="1">
            f82a1d8c 700a0b  
          </CharString>
          <CharString index="329">
            rmoveto
            10 -13 2 -40 -35 -17 0 -24 return
          </CharString>
          <CharString index="330">
            vvcurveto
            52 25 41 44 25 vhcurveto
            return
          </CharString>
          <CharString index="331">
            -1 -7 363 callgsubr
            return
          </CharString>
          <CharString index="332">
            -73 241 callgsubr
            -52 -49 -32 -57 -31 vhcurveto
            -27 27 -19 34 43 vvcurveto
            250 138 -100 callgsubr
            return
          </CharString>
          <CharString index="333">
            -25 -34 -28 270 callsubr
            return
          </CharString>
          <CharString index="334">
            -42 -42 vvcurveto
            -43 return
          </CharString>
          <CharString index="335">
            rmoveto
            -52 -125 -96 -41 -19 11 -15 327 callgsubr
            7 10 vvcurveto
            34 -141 126 -61 vhcurveto
            return
          </CharString>
          <CharString index="336">
            14 18 12 vhcurveto
            return
          </CharString>
          <CharString index="337">
            98 758 rmoveto
            41 18 43 36 24 vhcurveto
            14 -3 -11 7 -11 hhcurveto
            -46 -57 -74 -98 -51 27 -57 54 35 25 26 28 1 hvcurveto
            -42 10 -26 42 45 vvcurveto
            return
          </CharString>
          <CharString index="338">
            1 rrcurveto
            1 19 247 callsubr
            return
          </CharString>
          <CharString index="339">
            -1 52 54 -2 56 hhcurveto
            23 53 0 51 6 -2 8 -1 5 hvcurveto
            -18 -142 0 -5 -74 hvcurveto
            1 36 -1 71 53 vvcurveto
            26 1 24 4 13 vhcurveto
            return
          </CharString>
          <CharString index="340">
            -2 -106 callgsubr
            283 hlineto
            282 callgsubr
            return
          </CharString>
          <CharString index="341">
            rmoveto
            -2 133 callgsubr
            return
          </CharString>
          <CharString index="342">
            -82 callsubr
            -24 13 -10 16 -10 vhcurveto
            return
          </CharString>
          <CharString index="343">
            vhcurveto
            -8 13 -3 -98 callsubr
            return
          </CharString>
          <CharString index="344">
            366 142 callsubr
            -344 113 callsubr
            40 hlineto
            8 return
          </CharString>
          <CharString index="345">
            169 callgsubr
            113 163 72 -36 75 -65 26 vhcurveto
            294 callsubr
            205 hlineto
            2 3 return
          </CharString>
          <CharString index="346">
            52 -24 18 vhcurveto
            -55 hmoveto
            98 callgsubr
            return
          </CharString>
          <CharString index="347">
            vvcurveto
            92 -92 65 -70 -62 -60 -39 -80 return
          </CharString>
          <CharString index="348">
            vvcurveto
            -71 109 -112 129 return
          </CharString>
          <CharString index="349">
            -34 -26 370 callgsubr
            return
          </CharString>
          <CharString index="350">
            19 4 22 hhcurveto
            return
          </CharString>
          <CharString index="351">
            297 586 rmoveto
            20 -42 2 -72 -35 vvcurveto
            -103 -35 -43 -58 -70 -21 56 59 37 1 36 -1 33 vhcurveto
            -1 29 -6 31 -19 14 rrcurveto
            return
          </CharString>
          <CharString index="352" raw="1">
            530a8c8e 8d210a0e  
          </CharString>
          <CharString index="353">
            257 callgsubr
            175 return
          </CharString>
          <CharString index="354">
            308 callgsubr
            -3 52 -24 18 vhcurveto
            return
          </CharString>
          <CharString index="355">
            -40 -54 25 -47 hhcurveto
            return
          </CharString>
          <CharString index="356">
            102 70 61 58 33 return
          </CharString>
          <CharString index="357">
            421 86 callgsubr
            vhcurveto
            return
          </CharString>
          <CharString index="358">
            rmoveto
            -75 -66 -130 -98 -121 -29 rrcurveto
            -32 4 23 -19 28 hhcurveto
            81 211 158 55 13 -8 11 -13 7 hvcurveto
            endchar
          </CharString>
          <CharString index="359">
            rrcurveto
            205 -101 callsubr
          </CharString>
          <CharString index="360" raw="1">
            81f80e0a 0b  
          </CharString>
          <CharString index="361">
            -92 -67 -66 -83 return
          </CharString>
          <CharString index="362">
            440 rmoveto
            -329 hlineto
            -53 callgsubr
            return
          </CharString>
          <CharString index="363">
            hhcurveto
            -100 -72 -53 -97 -1 callsubr
            8 3 hvcurveto
            -64 62 -41 90 80 vvcurveto
            79 46 33 87 vhcurveto
            return
          </CharString>
          <CharString index="364">
            -92 callgsubr
            70 hlineto
            return
          </CharString>
          <CharString index="365">
            346 callgsubr
            5 return
          </CharString>
          <CharString index="366">
            hlineto
            8 -12 3 -31 return
          </CharString>
          <CharString index="367">
            158 -101 callsubr
          </CharString>
          <CharString index="368">
            -23 -18 vvcurveto
            -30 -28 -8 -26 vhcurveto
            return
          </CharString>
          <CharString index="369">
            -39 -79 -37 -61 -14 rrcurveto
            -34 4 return
          </CharString>
          <CharString index="370">
            13 -26 11 -39 vhcurveto
            endchar
          </CharString>
          <CharString index="371">
            38 101 vvcurveto
            41 return
          </CharString>
          <CharString index="372">
            hlineto
            40 -33 25 -56 -62 305 callsubr
            return
          </CharString>
          <CharString index="373">
            hhcurveto
            381 callgsubr
            -41 53 -25 25 hvcurveto
            return
          </CharString>
          <CharString index="374">
            hlineto
            -1 -7 0 -7 -7 vvcurveto
            349 callgsubr
            return
          </CharString>
          <CharString index="375">
            -57 261 callgsubr
            return
          </CharString>
          <CharString index="376">
            29 51 35 51 hhcurveto
            54 48 -38 -60 return
          </CharString>
          <CharString index="377">
            hvcurveto
            40 248 callsubr
            return
          </CharString>
          <CharString index="378">
            vlineto
            310 callsubr
            return
          </CharString>
          <CharString index="379">
            23 -5 22 -8 return
          </CharString>
          <CharString index="380">
            200 callsubr
            -52 -31 -50 -26 -42 hhcurveto
            -54 -34 40 54 hvcurveto
            129 return
          </CharString>
          <CharString index="381">
            hlineto
            9 290 callsubr
            -68 -1 -63 -59 vvcurveto
            -77 -31 -63 -33 -57 hhcurveto
            -60 -54 37 60 53 44 50 76 hvcurveto
            return
          </CharString>
          <CharString index="382">
            -162 269 347 rmoveto
            31 -22 24 -32 -38 -37 -37 -39 -31 21 -23 33 39 36 36 39 vhcurveto
            endchar
          </CharString>
          <CharString index="383">
            30 -7 29 34 vvcurveto
            44 28 34 42 31 20 -15 -13 12 vhcurveto
            5 5 -32 callsubr
            -31 37 -51 return
          </CharString>
          <CharString index="384">
            267 callsubr
            103 46 48 397 callsubr
            return
          </CharString>
          <CharString index="385">
            522 912 299 callsubr
            return
          </CharString>
          <CharString index="386">
            hvcurveto
            129 2 295 callgsubr
            -41 callgsubr
            return
          </CharString>
          <CharString index="387">
            -28 -42 vvcurveto
            -74 -1 return
          </CharString>
          <CharString index="388">
            -26 -34 -58 -68 -27 return
          </CharString>
          <CharString index="389">
            hlineto
            -29 callgsubr
            -31 26 183 callsubr
            -30 -32 -45 return
          </CharString>
          <CharString index="390">
            hhcurveto
            -21 -23 3 6 -25 hvcurveto
            42 29 31 35 52 240 callsubr
            -51 32 -52 return
          </CharString>
          <CharString index="391">
            -9 -26 298 callgsubr
            return
          </CharString>
          <CharString index="392">
            43 297 219 callgsubr
            return
          </CharString>
          <CharString index="393">
            0 20 20 vvcurveto
            98 -3 52 -25 18 vhcurveto
            return
          </CharString>
          <CharString index="394">
            0 1 5 hvcurveto
            -10 -19 -6 -23 -26 vvcurveto
            return
          </CharString>
          <CharString index="395">
            -64 63 -41 90 81 vvcurveto
            return
          </CharString>
          <CharString index="396">
            hlineto
            15 -10 13 -17 -18 return
          </CharString>
          <CharString index="397">
            -14 2 -38 -35 return
          </CharString>
          <CharString index="398">
            hvcurveto
            130 2 315 callgsubr
            return
          </CharString>
          <CharString index="399">
            vvcurveto
            31 -2 39 -23 331 callsubr
          </CharString>
          <CharString index="400">
            65 rmoveto
            -104 callgsubr
            return
          </CharString>
          <CharString index="401">
            -1 29 -4 32 -20 14 rrcurveto
            return
          </CharString>
          <CharString index="402">
            18 229 callsubr
            -18 7 return
          </CharString>
          <CharString index="403">
            hvcurveto
            6 384 callsubr
            -65 -39 -54 -56 -81 72 -63 48 return
          </CharString>
          <CharString index="404">
            145 121 rmoveto
            -24 -15 -16 -23 -28 25 -26 28 24 15 18 22 28 -27 25 -26 hvcurveto
            return
          </CharString>
          <CharString index="405">
            144 121 -64 callsubr
            return
          </CharString>
          <CharString index="406">
            134 callsubr
            307 callgsubr
            -37 -57 -31 -52 hhcurveto
            return
          </CharString>
          <CharString index="407">
            92 callgsubr
            -26 18 return
          </CharString>
          <CharString index="408">
            32 -26 21 -32 -31 -42 -24 -43 -29 25 -25 33 return
          </CharString>
          <CharString index="409">
            hlineto
            -2 -106 callgsubr
            return
          </CharString>
          <CharString index="410">
            36 349 callsubr
            23 -26 -34 -58 -69 -27 -66 return
          </CharString>
          <CharString index="411">
            3 34 1 32 68 callgsubr
            return
          </CharString>
          <CharString index="412">
            -3 callsubr
            -5 hlineto
            return
          </CharString>
          <CharString index="413">
            418 callsubr
            15 30 return
          </CharString>
          <CharString index="414">
            hlineto
            361 callsubr
            return
          </CharString>
          <CharString index="415">
            hhcurveto
            -102 -37 -55 -59 return
          </CharString>
          <CharString index="416">
            1 rrcurveto
            1 20 0 return
          </CharString>
          <CharString index="417">
            46 -19 23 -37 -23 return
          </CharString>
          <CharString index="418">
            vhcurveto
            3 34 1 return
          </CharString>
          <CharString index="419">
            -53 224 callgsubr
            22 343 callsubr
            35 return
          </CharString>
          <CharString index="420">
            22 -1 21 hhcurveto
            return
          </CharString>
          <CharString index="421">
            50 -11 42 hhcurveto
            return
          </CharString>
          <CharString index="422">
            vvcurveto
            -4 3 -6 5 -3 vhcurveto
            3 13 14 3 14 hhcurveto
            71 50 -31 -61 -42 -34 return
          </CharString>
          <CharString index="423">
            240 callgsubr
            vvcurveto
            return
          </CharString>
          <CharString index="424">
            371 callsubr
            -12 -25 -15 -21 -18 -16 return
          </CharString>
          <CharString index="425">
            hhcurveto
            -37 -31 -9 -16 -25 hvcurveto
            407 callgsubr
            vvcurveto
            56 -27 56 -42 46 vhcurveto
            return
          </CharString>
          <CharString index="426">
            -12 -65 vvcurveto
            -78 -1 -72 -2 -67 vhcurveto
            -65 -37 return
          </CharString>
          <CharString index="427">
            288 callgsubr
            53 13 33 hvcurveto
            19 return
          </CharString>
          <CharString index="428">
            307 callsubr
            vvcurveto
            return
          </CharString>
          <CharString index="429">
            vvcurveto
            32 -2 40 -23 17 vhcurveto
            return
          </CharString>
          <CharString index="430">
            rrcurveto
            -33 4 23 -18 28 hhcurveto
            return
          </CharString>
          <CharString index="431">
            hvcurveto
            -6 -32 -1 -25 return
          </CharString>
          <CharString index="432">
            14 34 35 -39 18 return
          </CharString>
          <CharString index="433">
            -15 -3 -17 hhcurveto
            return
          </CharString>
          <CharString index="434">
            -36 207 166 rmoveto
            1 11 12 1 13 9 25 1 7 hhcurveto
            27 1 return
          </CharString>
          <CharString index="435">
            39 59 vhcurveto
            44 32 -1 46 hhcurveto
            59 33 31 42 31 -16 28 -24 21 hvcurveto
            return
          </CharString>
          <CharString index="436">
            rrcurveto
            110 -352 rmoveto
            -60 -29 41 53 hvcurveto
            126 1 -76 111 vvcurveto
            return
          </CharString>
          <CharString index="437">
            hmoveto
            -69 callgsubr
            return
          </CharString>
          <CharString index="438">
            17 vhcurveto
            156 -99 callgsubr
          </CharString>
          <CharString index="439">
            -102 24 54 -157 98 hhcurveto
            37 return
          </CharString>
          <CharString index="440">
            hvcurveto
            -53 -156 -35 -67 vvcurveto
            -65 return
          </CharString>
          <CharString index="441">
            hlineto
            208 callgsubr
            -78 return
          </CharString>
          <CharString index="442">
            -42 vvcurveto
            -43 9 -45 48 return
          </CharString>
          <CharString index="443">
            -125 -125 vvcurveto
            -41 return
          </CharString>
          <CharString index="444">
            -17 99 callgsubr
            return
          </CharString>
          <CharString index="445">
            -352 rmoveto
            -60 -29 41 53 hvcurveto
            126 1 -76 111 vvcurveto
            12 -1 return
          </CharString>
          <CharString index="446">
            23 5 2 -4 -6 hvcurveto
            -206 vlineto
            58 hmoveto
            253 vlineto
            26 -17 10 return
          </CharString>
          <CharString index="447">
            -78 -52 -39 -63 -80 94 -79 73 56 31 39 37 32 -20 24 -30 3 return
          </CharString>
          <CharString index="448">
            rmoveto
            -13 -25 -26 -6 -25 266 callgsubr
            return
          </CharString>
          <CharString index="449">
            -83 -36 -73 -35 -63 hhcurveto
            -60 -53 37 60 53 44 50 75 hvcurveto
            endchar
          </CharString>
          <CharString index="450">
            -6 -7 16 hvcurveto
            4 83 callgsubr
            return
          </CharString>
          <CharString index="451">
            8 8 vvcurveto
            35 -37 22 -57 -45 -53 -22 return
          </CharString>
          <CharString index="452">
            30 28 5 10 24 return
          </CharString>
          <CharString index="453">
            -66 -83 -47 -97 return
          </CharString>
          <CharString index="454">
            2 -65 231 callsubr
            return
          </CharString>
          <CharString index="455">
            56 66 343 callgsubr
            -25 18 -44 vhcurveto
            return
          </CharString>
          <CharString index="456">
            6 28 hhcurveto
            43 return
          </CharString>
          <CharString index="457" raw="1">
            801e9c84 0b  
          </CharString>
          <CharString index="458">
            27 -24 23 hvcurveto
            return
          </CharString>
          <CharString index="459">
            vvcurveto
            98 -3 52 -24 18 vhcurveto
            -55 hmoveto
            12 -15 2 -47 -100 vvcurveto
            return
          </CharString>
          <CharString index="460">
            127 callsubr
            10 4 6 return
          </CharString>
          <CharString index="461">
            -100 callgsubr
            213 hlineto
            return
          </CharString>
          <CharString index="462">
            160 callsubr
            -54 204 callgsubr
            return
          </CharString>
          <CharString index="463">
            -53 39 7 5 2 2 4 vhcurveto
            -17 20 -6 418 callsubr
            return
          </CharString>
          <CharString index="464">
            vvcurveto
            -38 50 -34 408 callgsubr
            return
          </CharString>
          <CharString index="465">
            rmoveto
            10 -17 3 280 callsubr
            return
          </CharString>
          <CharString index="466">
            hvcurveto
            392 callgsubr
            return
          </CharString>
          <CharString index="467">
            10 290 callsubr
            return
          </CharString>
          <CharString index="468">
            9 -15 2 -38 -35 return
          </CharString>
          <CharString index="469">
            314 callgsubr
            vhcurveto
            return
          </CharString>
          <CharString index="470">
            -71 hhcurveto
            -69 -62 return
          </CharString>
          <CharString index="471">
            -78 -52 -58 -67 -85 68 -60 46 10 9 7 6 3 hvcurveto
            return
          </CharString>
          <CharString index="472">
            10 2 6 9 13 vvcurveto
            32 -38 45 -61 -58 -52 -45 -76 return
          </CharString>
          <CharString index="473">
            -26 19 -16 37 vhcurveto
            134 -61 hlineto
            -27 13 -14 26 15 return
          </CharString>
          <CharString index="474">
            169 rmoveto
            27 1 25 4 23 8 rrcurveto
            -95 13 -65 -65 return
          </CharString>
          <CharString index="475">
            48 6 213 callsubr
            -8 13 -3 39 34 147 return
          </CharString>
          <CharString index="476">
            251 74 callsubr
            return
          </CharString>
          <CharString index="477">
            hvcurveto
            11 22 7 25 29 vvcurveto
            309 callgsubr
            vhcurveto
            return
          </CharString>
          <CharString index="478">
            hlineto
            9 290 callsubr
            vvcurveto
            -68 -1 -64 -1 -60 vhcurveto
            return
          </CharString>
          <CharString index="479">
            rmoveto
            44 30 36 46 46 25 -38 -38 -50 -33 -36 -46 return
          </CharString>
          <CharString index="480">
            6 8 1 4 8 vhcurveto
            -8 13 -3 39 34 147 return
          </CharString>
          <CharString index="481">
            vhcurveto
            1 24 0 26 20 vvcurveto
            32 -2 40 -41 callgsubr
            return
          </CharString>
          <CharString index="482">
            hlineto
            23 53 0 54 4 -1 7 -1 5 hvcurveto
            endchar
          </CharString>
          <CharString index="483" raw="1">
            0694f7b6 0afb310b  
          </CharString>
          <CharString index="484">
            -30 vhcurveto
            -36 -52 -47 -35 -67 hhcurveto
            return
          </CharString>
          <CharString index="485">
            vhcurveto
            16 -7 9 -10 return
          </CharString>
          <CharString index="486">
            57 180 callsubr
            return
          </CharString>
          <CharString index="487">
            hhcurveto
            -61 -53 40 68 return
          </CharString>
          <CharString index="488">
            -7 -111 90 hvcurveto
            -53 43 76 -49 85 hhcurveto
            53 return
          </CharString>
          <CharString index="489">
            57 11 39 hvcurveto
            26 313 callsubr
            91 15 44 return
          </CharString>
          <CharString index="490">
            rmoveto
            -90 callsubr
            43 vhcurveto
            return
          </CharString>
          <CharString index="491">
            hlineto
            118 95 82 124 99 -80 122 -99 return
          </CharString>
          <CharString index="492">
            -55 -39 26 -27 27 6 8 1 4 6 vhcurveto
            -6 return
          </CharString>
          <CharString index="493">
            31 -24 21 -27 1 vhcurveto
            -76 -15 -74 -41 -77 hhcurveto
            return
          </CharString>
          <CharString index="494">
            -59 -29 -66 -25 -60 hhcurveto
            -64 -58 26 55 -41 hvcurveto
            return
          </CharString>
          <CharString index="495">
            11 3 6 7 9 23 -46 47 71 vvcurveto
            endchar
          </CharString>
          <CharString index="496">
            10 -150 -158 hhcurveto
            return
          </CharString>
          <CharString index="497">
            hlineto
            10 -15 1 -38 -35 return
          </CharString>
          <CharString index="498">
            -15 vvcurveto
            -43 9 -43 46 return
          </CharString>
          <CharString index="499">
            -44 36 55 33 15 23 return
          </CharString>
          <CharString index="500">
            hvcurveto
            4 36 1 return
          </CharString>
          <CharString index="501">
            26 27 -18 hvcurveto
            23 18 14 26 34 vvcurveto
            32 return
          </CharString>
          <CharString index="502">
            -42 -25 -35 -30 hvcurveto
            41 248 callsubr
            return
          </CharString>
          <CharString index="503">
            118 130 hhcurveto
            49 47 -24 -33 38 hvcurveto
            return
          </CharString>
          <CharString index="504">
            19 38 30 vhcurveto
            271 callgsubr
            return
          </CharString>
          <CharString index="505">
            hvcurveto
            -26 56 59 364 callgsubr
            24 4 4 return
          </CharString>
          <CharString index="506">
            hvcurveto
            -5 -57 -2 -57 -57 vvcurveto
            -45 9 -47 49 return
          </CharString>
          <CharString index="507">
            vvcurveto
            51 29 31 39 33 22 -17 -22 13 vhcurveto
            return
          </CharString>
          <CharString index="508">
            8 -11 3 -27 1 -29 rrcurveto
            return
          </CharString>
          <CharString index="509">
            24 20 33 hhcurveto
            31 24 -21 return
          </CharString>
          <CharString index="510">
            -25 -25 vvcurveto
            -83 -129 -36 return
          </CharString>
          <CharString index="511">
            vhcurveto
            9 3 3 9 5 vvcurveto
            return
          </CharString>
          <CharString index="512">
            -41 -72 -20 -52 hhcurveto
            return
          </CharString>
          <CharString index="513">
            1 rrcurveto
            170 -3 return
          </CharString>
          <CharString index="514">
            47 3 16 1 3 return
          </CharString>
          <CharString index="515">
            4 2 7 5 vvcurveto
            return
          </CharString>
          <CharString index="516">
            7 6 vvcurveto
            48 return
          </CharString>
          <CharString index="517">
            -27 17 -22 hhcurveto
            -26 -19 -18 -28 -49 50 return
          </CharString>
          <CharString index="518">
            49 vvcurveto
            86 -79 76 -79 -68 -54 -48 -71 return
          </CharString>
          <CharString index="519">
            154 651 rmoveto
            407 callgsubr
            return
          </CharString>
          <CharString index="520">
            hhcurveto
            -39 -32 -10 -17 -26 hvcurveto
            1 8 0 return
          </CharString>
          <CharString index="521">
            89 75 53 41 12 -6 11 -7 6 hvcurveto
            return
          </CharString>
          <CharString index="522">
            447 rmoveto
            48 -13 -24 22 -35 hhcurveto
            -27 return
          </CharString>
          <CharString index="523">
            197 callgsubr
            2 -41 -35 -16 0 return
          </CharString>
          <CharString index="524">
            -56 -92 -50 13 -26 11 -40 vhcurveto
            endchar
          </CharString>
          <CharString index="525">
            25 26 vvcurveto
            28 return
          </CharString>
        <CharString name=".notdef">
          180 176 hmoveto
          399 701 -399 hlineto
          59 -55 rmoveto
          281 -591 -281 hlineto
          endchar
        </CharString>
        <CharString name="A">
          84 200 230 -77 callgsubr
        </CharString>
        <CharString name="AE">
          387 229 238 rmoveto
          197 400 rlineto
          -400 vlineto
          153 -171 rmoveto
          -50 -19 18 46 hvcurveto
          206 204 vlineto
          38 26 -3 -11 20 hvcurveto
          14 7 11 14 20 vvcurveto
          32 -31 9 -71 vhcurveto
          -211 244 274 hlineto
          39 25 -7 -18 20 hvcurveto
          18 6 12 15 20 vvcurveto
          33 -30 19 -71 vhcurveto
          -352 hlineto
          -38 -28 -19 -35 -17 hvcurveto
          -297 -588 -12 -25 -15 -16 -19 -5 rlinecurve
          -21 12 20 -13 25 hhcurveto
          24 15 13 38 19 hvcurveto
          61 124 rlineto
          231 -42 hlineto
          -91 49 -37 101 vhcurveto
          211 hlineto
          81 30 28 38 17 -12 19 -18 7 hvcurveto
          -29 -19 -26 -13 -39 hhcurveto
          endchar
        </CharString>
        <CharString name="Aacute">
          84 448 874 -73 callgsubr
          -144 -561 -77 callgsubr
        </CharString>
        <CharString name="Abreve">
          84 329 784 74 callgsubr
          -129 -554 -77 callgsubr
        </CharString>
        <CharString name="Acircumflex">
          84 329 875 -30 callsubr
          -50 -565 -77 callgsubr
        </CharString>
        <CharString name="Adieresis">
          84 397 792 5 callgsubr
          -45 -562 -77 callgsubr
        </CharString>
        <CharString name="Agrave">
          84 315 795 -13 callgsubr
          -20 -658 -77 callgsubr
        </CharString>
        <CharString name="Amacron">
          84 445 816 108 callsubr
          32 -586 -77 callgsubr
        </CharString>
        <CharString name="Aogonek">
          84 200 230 rmoveto
          123 349 127 -349 rlineto
          -75 432 rmoveto
          42 -16 -15 21 -34 hhcurveto
          -22 -17 -10 -15 -13 hvcurveto
          14 -10 8 -14 7 -19 -231 -592 rcurveline
          -9 -23 -8 -13 -17 -6 rrcurveto
          -19 5 22 -12 24 hhcurveto
          30 19 17 46 16 hvcurveto
          40 114 rlineto
          294 hlineto
          42 -115 9 -24 9 -16 11 -9 rlinecurve
          -61 -26 -42 -42 -52 22 callsubr
          hvcurveto
          78 108 16 26 vvcurveto
          2 -1 2 -1 1 vhcurveto
          1 3 2 2 1 3 -18 6 -11 14 -11 28 rrcurveto
          endchar
        </CharString>
        <CharString name="Aring">
          84 325 918 91 callgsubr
          -146 rmoveto
          54 49 30 60 57 -49 30 -54 -55 -49 -28 -59 -60 49 -30 55 hvcurveto
          -130 -542 -77 callgsubr
        </CharString>
        <CharString name="Atilde">
          84 213 798 rmoveto
          52 callgsubr
          127 callgsubr
          -13 -568 -77 callgsubr
        </CharString>
        <CharString name="B">
          126 390 333 rmoveto
          109 56 -52 -84 -82 -56 -53 -109 hvcurveto
          -139 hlineto
          -50 -20 16 57 hvcurveto
          1 198 rlineto
          159 322 rmoveto
          114 54 -53 -76 -80 -54 -52 -114 1 hvcurveto
          -159 hlineto
          2 260 rlineto
          -31 62 rmoveto
          -42 -21 -12 -24 -17 hvcurveto
          243 callgsubr
          -1 -506 rlineto
          -97 40 -38 109 vhcurveto
          144 hlineto
          161 94 84 112 87 -74 76 -105 15 hvcurveto
          78 22 55 52 87 vvcurveto
          101 -80 81 -170 vhcurveto
          endchar
        </CharString>
        <CharString name="C">
          106 605 605 rmoveto
          167 callgsubr
          vhcurveto
          85 callsubr
          hvcurveto
          endchar
        </CharString>
        <CharString name="CR">
          endchar
        </CharString>
        <CharString name="Cacute">
          106 605 605 rmoveto
          167 callgsubr
          vhcurveto
          85 callsubr
          hvcurveto
          -147 269 -73 callgsubr
          endchar
        </CharString>
        <CharString name="Ccaron">
          106 475 931 -65 callgsubr
          177 -678 rmoveto
          85 callsubr
          167 callgsubr
          hvcurveto
          endchar
        </CharString>
        <CharString name="Ccedilla">
          106 369 -9 rmoveto
          141 96 84 42 21 -13 10 -7 1 hvcurveto
          85 callsubr
          65 -85 55 -117 -186 -152 -146 -238 -190 102 -128 144 -27 hvcurveto
          -14 -65 186 callsubr
          13 59 rlineto
          endchar
        </CharString>
        <CharString name="D">
          151 97 116 rmoveto
          156 callgsubr
          86 11 rmoveto
          182 callsubr
          endchar
        </CharString>
        <CharString name="Dcaron">
          151 496 920 -65 callgsubr
          -246 -171 rmoveto
          182 callsubr
          -84 hmoveto
          156 callgsubr
          endchar
        </CharString>
        <CharString name="E">
          69 264 67 -75 callsubr
        </CharString>
        <CharString name="Eacute">
          69 441 874 -73 callgsubr
          -73 -724 -75 callsubr
        </CharString>
        <CharString name="Ecaron">
          69 458 931 -65 callgsubr
          -128 -760 -75 callsubr
        </CharString>
        <CharString name="Ecircumflex">
          69 322 875 -30 callsubr
          21 -728 -75 callsubr
        </CharString>
        <CharString name="Edieresis">
          69 390 792 5 callgsubr
          26 -725 -75 callsubr
        </CharString>
        <CharString name="Edotaccent">
          69 313 810 rmoveto
          35 32 32 34 186 callgsubr
          hvcurveto
          -49 -743 -75 callsubr
        </CharString>
        <CharString name="Egrave">
          69 308 795 -13 callgsubr
          51 -821 -75 callsubr
        </CharString>
        <CharString name="Emacron">
          69 438 816 108 callsubr
          103 -749 -75 callsubr
        </CharString>
        <CharString name="Eogonek">
          69 264 67 -61 callsubr
          169 hlineto
          -41 -26 -27 -35 -41 22 callsubr
          70 88 20 17 22 hvcurveto
          19 12 8 17 20 vvcurveto
          17 -12 19 -17 7 vhcurveto
          -29 -19 -26 -13 -40 hhcurveto
          endchar
        </CharString>
        <CharString name="Eth">
          181 182 329 rmoveto
          137 hlineto
          36 38 9 37 6 -2 7 -1 4 hvcurveto
          -207 hlineto
          1 253 rlineto
          182 callsubr
          -83 276 rmoveto
          -4 hlineto
          -35 -39 -10 -38 -5 2 -7 2 -3 hvcurveto
          73 -213 hlineto
          156 callgsubr
          endchar
        </CharString>
        <CharString name="Euro">
          120 406 253 rmoveto
          36 38 9 38 6 -2 7 -2 3 hvcurveto
          -268 hlineto
          13 -1 14 14 vvcurveto
          12 0 12 1 12 vhcurveto
          198 hlineto
          36 38 10 38 5 -2 7 -2 3 hvcurveto
          -259 hlineto
          139 31 97 65 91 hhcurveto
          92 42 -47 -51 -8 hvcurveto
          -5 11 13 -2 11 hhcurveto
          32 26 19 33 64 -87 54 -116 -154 -129 -100 -169 -40 hvcurveto
          -17 hlineto
          -36 -38 -9 -37 -6 2 -7 2 -4 hvcurveto
          76 hlineto
          -1 -17 -1 -17 -18 vvcurveto
          -8 0 -9 1 -8 vhcurveto
          -5 hlineto
          -36 -38 -10 -36 -7 2 -6 2 -4 hvcurveto
          82 hlineto
          -163 30 116 -99 147 hhcurveto
          141 96 84 42 21 -12 10 -8 1 hvcurveto
          -39 -37 -72 -44 -86 hhcurveto
          -115 -79 66 121 -27 hvcurveto
          endchar
        </CharString>
        <CharString name="F">
          37 164 717 rmoveto
          -42 -22 -12 -24 -16 hvcurveto
          243 callgsubr
          -579 vlineto
          -46 19 -24 37 23 295 callsubr
          -7 10 22 vvcurveto
          274 203 vlineto
          39 25 -3 -11 21 hvcurveto
          14 8 10 13 19 vvcurveto
          32 -30 8 -71 vhcurveto
          -211 248 273 hlineto
          40 25 -8 -18 20 hvcurveto
          17 7 12 14 21 vvcurveto
          31 -28 19 -71 vhcurveto
          endchar
        </CharString>
        <CharString name="G">
          144 639 312 3 callsubr
        </CharString>
        <CharString name="Gbreve">
          144 413 784 74 callgsubr
          226 -472 3 callsubr
        </CharString>
        <CharString name="H">
          177 648 656 rmoveto
          46 -18 23 -38 -23 -19 -14 -17 -10 129 callgsubr
          -266 -385 267 vlineto
          -36 callsubr
          266 385 -267 vlineto
          -46 18 -24 38 23 18 388 callgsubr
        </CharString>
        <CharString name="I">
          -292 180 656 rmoveto
          -36 callsubr
          endchar
        </CharString>
        <CharString name="Iacute">
          -292 257 874 -73 callgsubr
          27 -135 rmoveto
          -36 callsubr
          endchar
        </CharString>
        <CharString name="Icircumflex">
          -292 180 656 rmoveto
          -36 callsubr
          28 834 104 callsubr
        </CharString>
        <CharString name="Idieresis">
          -292 268 855 24 callgsubr
          64 -199 rmoveto
          -36 callsubr
          endchar
        </CharString>
        <CharString name="Idotaccent">
          -292 196 876 rmoveto
          186 callgsubr
          35 32 32 34 vhcurveto
          -16 -220 rmoveto
          -36 callsubr
          endchar
        </CharString>
        <CharString name="Igrave">
          -292 124 795 -13 callgsubr
          151 -232 rmoveto
          -36 callsubr
          endchar
        </CharString>
        <CharString name="Imacron">
          -292 24 870 57 callgsubr
          -121 -214 rmoveto
          -36 callsubr
          endchar
        </CharString>
        <CharString name="Iogonek">
          -292 200 25 rmoveto
          -13 7 -7 10 20 vvcurveto
          594 vlineto
          33 callgsubr
          -31 8 -21 16 -10 vhcurveto
          -56 -26 -38 -41 -49 22 callsubr
          hvcurveto
          78 108 16 26 vvcurveto
          5 -6 5 -13 5 vhcurveto
          endchar
        </CharString>
        <CharString name="J">
          -175 315 656 rmoveto
          46 -20 23 -36 -23 -19 -14 -17 -11 vhcurveto
          390 callgsubr
          -510 vlineto
          -58 -30 -25 -54 -45 -33 12 21 -30 vhcurveto
          -8 -8 -4 -12 -13 vvcurveto
          -36 47 -34 84 93 64 54 101 vhcurveto
          endchar
        </CharString>
        <CharString name="K">
          72 244 360 90 callgsubr
        </CharString>
        <CharString name="L">
          36 callsubr
          endchar
        </CharString>
        <CharString name="Lacute">
          36 callsubr
          155 219 -73 callgsubr
          endchar
        </CharString>
        <CharString name="Lcaron">
          36 callsubr
          270 22 144 callsubr
        </CharString>
        <CharString name="Lslash">
          13 266 65 rmoveto
          405 callgsubr
          256 vlineto
          77 38 32 16 30 24 -16 34 rlinecurve
          -3 5 -4 5 -5 2 -111 -55 rcurveline
          198 vlineto
          46 -20 23 -36 -23 -19 -14 -17 -11 129 callgsubr
          -239 vlineto
          -43 -22 -32 -16 -31 -22 17 -33 rlinecurve
          2 -6 6 -5 3 -2 78 38 rcurveline
          -217 vlineto
          -96 49 -35 101 vhcurveto
          169 hlineto
          80 30 29 38 16 -11 18 -18 6 hvcurveto
          -28 -17 -25 -14 -39 hhcurveto
          endchar
        </CharString>
        <CharString name="M">
          385 818 654 rmoveto
          -1 23 4 19 12 12 rrcurveto
          10 -17 -16 7 -23 hhcurveto
          -43 -33 -21 -62 -22 hvcurveto
          -203 -495 -195 496 rlineto
          54 -19 -30 28 -44 hhcurveto
          -28 -18 -9 -11 -17 hvcurveto
          9 -11 6 -20 -1 -23 -44 -586 rcurveline
          -2 -23 -3 -19 -13 -11 rrcurveto
          -11 12 16 -10 19 hhcurveto
          34 15 23 49 4 hvcurveto
          37 541 221 -568 6 -18 10 -8 20 -1 rlinecurve
          22 10 10 17 6 hvcurveto
          227 567 38 -543 rlineto
          -49 6 16 -19 34 hhcurveto
          19 14 7 9 13 hvcurveto
          -11 12 -3 24 -1 22 rrcurveto
          endchar
        </CharString>
        <CharString name="N">
          197 108 61 -15 callgsubr
          endchar
        </CharString>
        <CharString name="NULL">
          -571 endchar
        </CharString>
        <CharString name="Nacute">
          197 108 61 -15 callgsubr
          394 219 -73 callgsubr
          endchar
        </CharString>
        <CharString name="Ncaron">
          197 520 931 -65 callgsubr
          208 -171 rmoveto
          310 callsubr
          -19 -14 -17 -11 129 callgsubr
          -539 vlineto
          -343 542 rlineto
          45 -28 -25 22 -44 hhcurveto
          -26 -17 -14 -17 -12 hvcurveto
          390 callgsubr
          -594 vlineto
          -46 19 -24 37 24 17 134 callgsubr
          529 vlineto
          333 -516 rlineto
          -57 38 30 -27 38 hhcurveto
          27 17 13 17 11 hvcurveto
          -16 9 -7 10 22 vvcurveto
          endchar
        </CharString>
        <CharString name="Ntilde">
          197 469 867 rmoveto
          127 callgsubr
          52 callgsubr
          hhcurveto
          -361 -806 -15 callgsubr
          endchar
        </CharString>
        <CharString name="O">
          197 405 56 126 callgsubr
        </CharString>
        <CharString name="OE">
          500 540 79 rmoveto
          -14 -37 -46 -7 -52 hhcurveto
          -128 -103 91 191 -15 hvcurveto
          197 -17 97 119 158 hhcurveto
          61 38 -7 -12 44 hvcurveto
          155 -570 rmoveto
          -52 -19 20 48 hvcurveto
          202 203 vlineto
          39 25 -3 -11 20 hvcurveto
          15 7 10 14 20 vvcurveto
          32 -30 9 -71 vhcurveto
          -211 244 273 hlineto
          40 24 -7 -18 20 hvcurveto
          18 6 12 15 20 vvcurveto
          33 -30 19 -71 vhcurveto
          -473 hlineto
          -238 -127 -136 -222 -225 105 -134 248 hvcurveto
          475 hlineto
          81 30 28 38 17 -12 19 -18 7 hvcurveto
          -29 -18 -26 -13 -40 hhcurveto
          endchar
        </CharString>
        <CharString name="Oacute">
          197 405 56 -50 callsubr
          -193 515 -73 callgsubr
          endchar
        </CharString>
        <CharString name="Ocircumflex">
          197 385 875 -30 callsubr
          99 -739 rmoveto
          -127 -103 94 192 -16 hvcurveto
          193 -16 92 127 127 hhcurveto
          130 105 -96 -192 13 hvcurveto
          -192 16 -92 -126 -129 hhcurveto
          -20 669 rmoveto
          -189 -124 -144 -222 -225 124 -143 189 189 122 146 222 226 -122 140 -189 hvcurveto
          endchar
        </CharString>
        <CharString name="Odieresis">
          197 405 56 -50 callsubr
          -182 496 24 callgsubr
          endchar
        </CharString>
        <CharString name="Ograve">
          197 370 795 -13 callgsubr
          130 -832 126 callgsubr
        </CharString>
        <CharString name="Ohungarumlaut">
          197 405 56 -50 callsubr
          -265 436 50 callgsubr
          endchar
        </CharString>
        <CharString name="Omacron">
          197 405 56 -50 callsubr
          -425 511 57 callgsubr
          endchar
        </CharString>
        <CharString name="Oslash">
          202 568 535 rmoveto
          23 -43 15 -53 4 -65 rrcurveto
          -192 16 -92 -126 -129 hhcurveto
          -65 -59 25 50 -44 hvcurveto
          -32 45 rmoveto
          -24 44 -16 55 -6 67 rrcurveto
          193 -16 92 127 127 hhcurveto
          69 62 -27 -54 45 hvcurveto
          120 64 rmoveto
          14 17 24 24 24 12 rrcurveto
          19 -4 -15 8 -13 hhcurveto
          -20 -18 -9 -25 -22 hvcurveto
          -36 -44 rlineto
          51 -53 -70 27 -84 hhcurveto
          -189 -124 -144 -222 -104 27 -87 47 -63 hvcurveto
          -27 -33 -13 -16 -25 -24 -23 -12 rlinecurve
          -20 4 14 -9 15 hhcurveto
          19 17 9 25 23 hvcurveto
          33 40 rlineto
          -48 52 69 -26 81 hhcurveto
          189 122 146 222 102 -25 84 -44 62 hvcurveto
          endchar
        </CharString>
        <CharString name="Otilde">
          197 470 867 rmoveto
          127 callgsubr
          52 callgsubr
          hhcurveto
          -65 -811 126 callgsubr
        </CharString>
        <CharString name="P">
          50 316 653 rmoveto
          115 55 -68 -92 -90 -55 -68 -115 hvcurveto
          -129 318 hlineto
          -28 64 rmoveto
          -42 -22 -12 -24 -16 hvcurveto
          336 callgsubr
          -580 207 callgsubr
          295 callsubr
          -7 10 22 vvcurveto
          210 132 vlineto
          153 105 86 137 136 -105 86 -153 hvcurveto
          endchar
        </CharString>
        <CharString name="Q">
          203 709 404 rmoveto
          193 -131 128 -178 -176 -138 -150 -205 -151 94 -107 100 45 21 27 31 4 0 4 -1 3 vhcurveto
          -1 -5 -5 0 -6 hhcurveto
          -90 -63 86 137 155 86 106 119 136 99 -101 -169 -204 -113 -110 -141 -41 hvcurveto
          -62 -18 -13 -11 -17 vvcurveto
          -71 162 -141 141 124 28 88 38 -32 vhcurveto
          -27 -29 -39 -14 -45 hhcurveto
          -73 -103 40 74 -66 hvcurveto
          193 44 161 133 247 vvcurveto
          endchar
        </CharString>
        <CharString name="R">
          59 187 361 -23 callsubr
        </CharString>
        <CharString name="Racute">
          59 431 864 -73 callgsubr
          -140 -420 -23 callsubr
        </CharString>
        <CharString name="Rcaron">
          59 448 921 -65 callgsubr
          -195 -456 -23 callsubr
        </CharString>
        <CharString name="S">
          19 callsubr
          endchar
        </CharString>
        <CharString name="Sacute">
          19 callsubr
          -116 285 -73 callgsubr
          endchar
        </CharString>
        <CharString name="Scaron">
          73 458 931 -65 callgsubr
          -221 -270 rmoveto
          76 callgsubr
          74 -89 66 -144 -119 -118 -73 -113 hvcurveto
          -214 410 6 -150 vvcurveto
          -74 -85 -57 -95 -104 -55 49 55 23 10 18 13 12 vhcurveto
          16 -11 -16 8 -23 hhcurveto
          -35 -28 -30 -43 -99 107 -72 142 143 121 88 120 hvcurveto
          193 -410 2 163 vvcurveto
          endchar
        </CharString>
        <CharString name="T">
          -22 96 717 64 callsubr
        </CharString>
        <CharString name="Tcaron">
          -22 411 914 -65 callgsubr
          -249 -93 64 callsubr
        </CharString>
        <CharString name="Thorn">
          57 180 513 rmoveto
          16 50 43 9 47 hhcurveto
          109 66 -63 -94 -93 -66 -64 -109 -47 -43 8 17 -50 hvcurveto
          407 vmoveto
          -36 callsubr
          129 vlineto
          -20 50 47 -11 59 hhcurveto
          133 116 84 137 138 -116 84 -133 -59 -47 -13 -19 -50 hvcurveto
          endchar
        </CharString>
        <CharString name="U">
          133 101 257 47 callsubr
        </CharString>
        <CharString name="Uacute">
          133 101 257 -47 callgsubr
          388 219 -73 callgsubr
          endchar
        </CharString>
        <CharString name="Ucircumflex">
          133 371 875 -30 callsubr
          254 -548 rmoveto
          -123 -58 -61 -123 -128 -53 65 119 vhcurveto
          409 271 callsubr
          -17 -14 -17 -12 129 callgsubr
          -398 vlineto
          -157 80 -108 184 187 76 108 157 vhcurveto
          399 409 callgsubr
          -37 -24 -18 -14 -17 -11 393 callgsubr
          -10 -22 vvcurveto
          endchar
        </CharString>
        <CharString name="Udieresis">
          133 101 257 -47 callgsubr
          400 200 24 callgsubr
          endchar
        </CharString>
        <CharString name="Ugrave">
          133 356 795 -13 callgsubr
          -160 -631 47 callsubr
        </CharString>
        <CharString name="Uhungarumlaut">
          133 417 795 50 callgsubr
          -225 -641 47 callsubr
        </CharString>
        <CharString name="Umacron">
          133 257 870 57 callgsubr
          -433 -613 47 callsubr
        </CharString>
        <CharString name="Uogonek">
          133 546 247 rmoveto
          -123 -58 -61 -123 -128 -53 65 119 vhcurveto
          409 271 callsubr
          -17 -14 -17 -12 129 callgsubr
          -398 vlineto
          -149 72 -104 163 -11 vhcurveto
          -50 -26 -34 -39 -46 22 callsubr
          68 82 21 21 21 hvcurveto
          131 27 55 98 133 vvcurveto
          399 409 callgsubr
          -37 -24 -18 -14 -17 -11 393 callgsubr
          -10 -22 vvcurveto
          endchar
        </CharString>
        <CharString name="Uring">
          133 101 257 -47 callgsubr
          266 263 91 callgsubr
          31 rmoveto
          -55 -49 -28 -59 -60 49 -30 55 54 49 30 60 57 -49 30 -54 hvcurveto
          endchar
        </CharString>
        <CharString name="V">
          124 139 652 rmoveto
          57 -18 -19 16 -29 hhcurveto
          -25 -22 -13 -25 -12 hvcurveto
          19 -8 10 -14 10 -31 192 -583 rcurveline
          -45 16 17 -15 35 hhcurveto
          93 250 333 258 92 -25 52 -50 -20 -23 -10 -13 -14 hvcurveto
          31 -40 7 -38 -61 vvcurveto
          -162 -100 -218 -137 -131 vhcurveto
          endchar
        </CharString>
        <CharString name="W">
          399 510 658 rmoveto
          52 -14 -19 15 -29 hhcurveto
          -24 -22 -13 -25 -12 hvcurveto
          20 -8 10 -14 9 -31 33 -116 rcurveline
          -37 -174 -53 -164 -68 -113 -159 585 rcurveline
          57 -15 -22 16 -29 hhcurveto
          -24 -23 -13 -25 -12 hvcurveto
          20 -8 11 -14 8 -31 169 -582 rcurveline
          -46 13 18 -14 35 hhcurveto
          59 95 212 184 50 hvcurveto
          95 -336 rlineto
          -44 12 19 -16 30 hhcurveto
          99 165 353 218 97 -29 65 -50 -19 -24 -9 -12 -12 hvcurveto
          23 -16 22 -71 -85 vvcurveto
          -126 -53 -223 -106 -122 vhcurveto
          endchar
        </CharString>
        <CharString name="X">
          59 326 420 rmoveto
          -168 255 rlineto
          36 -23 -20 14 -30 hhcurveto
          -30 -25 -21 -29 -8 hvcurveto
          24 -1 19 -10 19 -29 186 -282 rcurveline
          -195 -274 rlineto
          -23 -16 -15 -8 -21 hhcurveto
          -38 -4 29 -19 24 hhcurveto
          31 24 20 73 44 hvcurveto
          134 215 169 -257 rlineto
          -36 25 18 -15 31 hhcurveto
          29 22 22 26 8 hvcurveto
          -22 3 -17 11 -19 29 -187 284 rcurveline
          192 270 rlineto
          24 16 15 8 22 hhcurveto
          37 4 -29 20 -25 hhcurveto
          -30 -25 -20 -73 -44 hvcurveto
          endchar
        </CharString>
        <CharString name="Y">
          25 555 634 41 callgsubr
        </CharString>
        <CharString name="Yacute">
          25 432 874 -73 callgsubr
          227 -157 41 callgsubr
        </CharString>
        <CharString name="Ydieresis">
          25 381 792 5 callgsubr
          326 -158 41 callgsubr
        </CharString>
        <CharString name="Z">
          39 135 62 -6 callgsubr
        </CharString>
        <CharString name="Zacute">
          39 423 874 -73 callgsubr
          -184 -729 -6 callgsubr
        </CharString>
        <CharString name="Zcaron">
          39 440 931 -65 callgsubr
          -239 -765 -6 callgsubr
        </CharString>
        <CharString name="Zdotaccent">
          39 295 810 rmoveto
          35 32 32 34 186 callgsubr
          hvcurveto
          -160 -748 -6 callgsubr
        </CharString>
        <CharString name="a">
          -44 352 125 -80 callsubr
        </CharString>
        <CharString name="aacute">
          -44 378 67 callgsubr
          78 -456 -80 callsubr
        </CharString>
        <CharString name="abreve">
          -44 259 574 74 callgsubr
          93 -449 -80 callsubr
        </CharString>
        <CharString name="acircumflex">
          -44 259 665 -30 callsubr
          172 -460 -80 callsubr
        </CharString>
        <CharString name="acute">
          -324 172 67 callgsubr
          endchar
        </CharString>
        <CharString name="adieresis">
          -44 327 582 5 callgsubr
          177 -457 -80 callsubr
        </CharString>
        <CharString name="ae">
          220 352 234 rmoveto
          -34 5 -31 9 -27 vhcurveto
          -58 -41 -48 -28 -53 114 callgsubr
          90 50 rmoveto
          106 12 56 59 68 hhcurveto
          55 35 -47 -56 -35 -15 -11 -27 -2 hvcurveto
          21 -52 rmoveto
          78 3 31 29 62 vvcurveto
          82 -64 85 -103 -64 -63 -33 -56 -45 vhcurveto
          56 -23 -56 33 -81 hhcurveto
          -99 -83 -50 -63 -35 24 -19 34 14 19 6 10 13 hvcurveto
          -10 11 -4 13 13 vvcurveto
          33 29 33 64 67 27 -39 -82 vhcurveto
          -60 vlineto
          -205 -6 -93 -68 -95 vvcurveto
          -82 63 -46 89 76 57 40 64 48 vhcurveto
          -67 41 73 -37 87 hhcurveto
          91 70 51 41 13 -5 9 -9 5 hvcurveto
          -31 -33 -48 -21 -55 hhcurveto
          -95 -66 56 137 2 hvcurveto
          endchar
        </CharString>
        <CharString name="agrave">
          -44 245 585 -13 callgsubr
          202 -553 -80 callsubr
        </CharString>
        <CharString name="amacron">
          -44 375 606 108 callsubr
          254 -481 -80 callsubr
        </CharString>
        <CharString name="ampersand">
          157 726 457 rmoveto
          45 -41 40 -60 -32 vhcurveto
          -63 12 -18 -44 -118 hhcurveto
          -50 -22 -18 -36 15 hvcurveto
          74 28 -52 -69 -99 -98 -64 -100 -123 -72 59 100 59 31 57 47 32 hvcurveto
          -1 8 8 0 8 hhcurveto
          56 21 36 27 -18 hvcurveto
          -92 -50 45 80 67 41 48 55 53 27 -23 -61 5 hvcurveto
          43 -13 34 19 35 vvcurveto
          56 -52 38 -83 -101 -96 -76 -120 -68 32 -52 54 -24 vhcurveto
          -60 -37 -52 -59 -85 vvcurveto
          -121 100 -92 166 150 112 107 133 48 -9 38 -20 34 vhcurveto
          107 1 48 45 60 vvcurveto
          endchar
        </CharString>
        <CharString name="ampersand.alt">
          142 146 191 rmoveto
          63 31 46 85 51 vhcurveto
          19 -24 22 -26 25 -30 59 -70 47 -53 37 -39 rrcurveto
          -29 -42 -53 -19 -64 hhcurveto
          -97 -69 56 74 hvcurveto
          176 478 rmoveto
          49 37 -39 -57 -49 -28 -48 -82 -48 hvcurveto
          -51 69 -12 34 41 vvcurveto
          58 39 39 48 vhcurveto
          384 -587 rmoveto
          -9 -13 -15 -7 -20 hhcurveto
          -23 -26 11 43 -47 hvcurveto
          48 59 27 71 64 vvcurveto
          61 -31 32 -33 -14 -13 -6 -9 -11 vhcurveto
          23 -25 13 -34 -42 vvcurveto
          -46 -17 -47 -31 -40 vhcurveto
          -35 37 -44 51 -57 70 -22 27 -19 24 -17 20 rrcurveto
          108 58 58 53 75 vvcurveto
          82 -79 64 -94 -95 -78 -61 -89 -50 16 -42 65 -86 vhcurveto
          -117 -66 -53 -65 -81 vvcurveto
          -99 91 -87 140 88 74 30 46 57 vhcurveto
          -65 68 34 -11 43 hhcurveto
          41 20 27 30 11 -3 11 -7 10 hvcurveto
          endchar
        </CharString>
        <CharString name="aogonek">
          -44 352 125 61 callsubr
          129 -213 rmoveto
          -28 4 -18 15 40 vvcurveto
          266 vlineto
          101 -66 60 -110 -100 -84 -48 -65 -32 24 -20 34 14 19 6 10 13 vhcurveto
          -10 11 -4 12 14 vvcurveto
          39 37 27 57 56 37 -35 -70 vhcurveto
          -78 vlineto
          -205 -6 -93 -68 -95 vvcurveto
          -82 62 -46 80 66 54 31 50 36 vhcurveto
          3 -38 13 -24 21 -11 rrcurveto
          -49 -27 -33 -37 -46 22 callsubr
          hvcurveto
          78 108 16 26 vvcurveto
          5 -6 5 -13 5 vhcurveto
          endchar
        </CharString>
        <CharString name="apostrophemod">
          -385 88 735 rmoveto
          137 callsubr
          -35 -25 -27 -27 -1 hvcurveto
          42 -10 26 -42 -46 vvcurveto
          endchar
        </CharString>
        <CharString name="approxequal">
          136 514 273 rmoveto
          198 callgsubr
          201 vmoveto
          198 callgsubr
          endchar
        </CharString>
        <CharString name="aring">
          -44 255 708 91 callgsubr
          -146 rmoveto
          54 49 30 60 57 -49 30 -54 -55 -49 -28 -59 -60 49 -30 55 hvcurveto
          92 -437 -80 callsubr
        </CharString>
        <CharString name="asciicircum">
          -1 315 639 rmoveto
          23 -10 -12 9 -17 hhcurveto
          -16 -17 -11 -23 -13 hvcurveto
          -156 -282 rlineto
          -15 -26 -5 -22 -18 vvcurveto
          -35 24 -17 25 vhcurveto
          174 334 148 -285 rlineto
          -33 17 18 -17 22 hhcurveto
          11 12 4 11 12 hvcurveto
          endchar
        </CharString>
        <CharString name="asciitilde">
          136 578 437 rmoveto
          -34 -3 -23 -21 -38 -53 -187 56 -69 hhcurveto
          -64 -37 -38 -45 -23 11 -15 14 -4 hvcurveto
          33 3 23 20 39 57 186 -55 65 hhcurveto
          64 38 39 42 24 -11 14 -15 7 hvcurveto
          endchar
        </CharString>
        <CharString name="asterisk">
          -21 321 887 rmoveto
          37 -15 28 -33 -28 -14 -29 -35 -37 9 -50 10 -33 vhcurveto
          26 -38 -65 34 -35 hhcurveto
          -22 -26 -12 -29 -46 88 -19 63 -3 hvcurveto
          7 6 0 1 6 hvcurveto
          -44 -32 -60 -60 -39 vvcurveto
          -19 14 -23 26 44 42 86 57 18 vhcurveto
          -58 19 42 -84 44 hhcurveto
          23 19 19 21 41 -62 60 -45 31 hvcurveto
          -1 6 8 0 7 hhcurveto
          62 2 88 20 46 vvcurveto
          29 -22 14 -24 -39 -62 -37 -26 -38 vhcurveto
          10 34 11 50 36 vvcurveto
          endchar
        </CharString>
        <CharString name="at">
          299 516 191 rmoveto
          -36 -32 -42 -19 -44 hhcurveto
          -44 -29 17 41 3 hvcurveto
          2 48 56 42 136 8 rrcurveto
          82 92 rmoveto
          84 3 -58 49 -99 hhcurveto
          -92 -77 -42 -52 -3 hvcurveto
          -28 -2 21 -16 31 hhcurveto
          13 17 4 8 13 hvcurveto
          -9 9 -3 12 1 10 rrcurveto
          28 1 28 27 59 hhcurveto
          60 22 -32 -67 -3 hvcurveto
          -3 -50 -186 -7 -88 -56 -4 -78 rlinecurve
          -67 -4 54 -38 73 hhcurveto
          60 51 24 41 35 hvcurveto
          -43 6 33 -24 46 hhcurveto
          88 110 95 171 188 -145 125 -183 -222 -178 -158 -254 -235 161 -87 138 150 74 62 27 -29 hvcurveto
          -27 -49 -64 -17 -73 hhcurveto
          -119 -139 69 208 228 141 138 201 1 hvcurveto
          159 1 128 -104 -1 -169 rrcurveto
          -149 -1 -76 -62 -50 hhcurveto
          -22 -10 11 26 2 hvcurveto
          endchar
        </CharString>
        <CharString name="atilde">
          -44 142 588 rmoveto
          52 callgsubr
          127 callgsubr
          210 -463 -80 callsubr
        </CharString>
        <CharString name="b">
          5 171 357 rmoveto
          66 35 52 25 55 hhcurveto
          85 55 -63 -125 -134 -64 -76 -101 -75 -43 34 71 hvcurveto
          2 536 rmoveto
          310 callsubr
          -18 -13 -18 -12 vhcurveto
          243 callgsubr
          -1 -533 rlineto
          -115 78 -49 122 135 115 112 159 169 -94 85 -117 -64 -55 -32 -49 -36 vhcurveto
          endchar
        </CharString>
        <CharString name="backslash">
          -9 96 967 rmoveto
          -12 -13 -3 -10 -13 hvcurveto
          11 -7 9 -24 5 -15 205 -581 43 -135 88 -248 rrcurveto
          -18 6 15 -40 35 hhcurveto
          9 13 1 13 15 hvcurveto
          -7 6 -12 25 -5 17 -107 299 -113 340 -117 323 rrcurveto
          17 -6 -14 40 -35 hhcurveto
          endchar
        </CharString>
        <CharString name="bar">
          -292 180 823 rmoveto
          46 -20 23 -37 -23 -19 -13 -18 -10 129 callgsubr
          -924 vlineto
          -47 18 -23 37 23 19 14 17 11 vhcurveto
          -16 99 callgsubr
          endchar
        </CharString>
        <CharString name="braceleft">
          -187 312 842 rmoveto
          15 -13 -21 10 -25 hhcurveto
          -57 -77 -50 -135 hvcurveto
          -59 17 -98 -71 -104 -68 -3 -25 -24 68 -5 -103 -74 -17 -101 -65 vvcurveto
          -133 77 -51 57 25 21 9 16 13 vhcurveto
          -63 7 -49 44 79 63 18 146 64 vvcurveto
          91 -80 34 -7 3 vhcurveto
          5 1 82 35 93 62 -18 139 59 vvcurveto
          80 49 45 63 6 vhcurveto
          endchar
        </CharString>
        <CharString name="braceright">
          -187 260 682 rmoveto
          135 -76 50 -58 -24 -21 -10 -15 -13 vhcurveto
          62 -6 49 -45 -80 -59 -17 -139 -62 vvcurveto
          -93 82 -35 5 -1 vhcurveto
          -7 -3 -80 -34 -91 -64 17 -146 -63 vvcurveto
          -79 -49 -44 -62 -7 vhcurveto
          -16 13 21 -9 24 hhcurveto
          58 76 51 133 hvcurveto
          65 -17 101 74 103 69 5 24 25 -69 3 104 71 17 98 59 vvcurveto
          endchar
        </CharString>
        <CharString name="bracketleft">
          -179 161 -140 rmoveto
          925 167 vlineto
          14 callsubr
          6 7 vvcurveto
          44 -44 0 -17 vhcurveto
          -193 -959 hlineto
          -83 58 0 24 vhcurveto
          169 hlineto
          2 2 1 7 5 vvcurveto
          43 -44 0 -17 vhcurveto
          endchar
        </CharString>
        <CharString name="bracketright">
          -179 248 787 rmoveto
          -926 -168 vlineto
          -1 -3 -1 -6 -6 vvcurveto
          -43 44 0 17 vhcurveto
          193 958 hlineto
          84 -58 0 -25 vhcurveto
          -169 hlineto
          -1 -4 -1 -6 -5 vvcurveto
          -43 44 0 17 vhcurveto
          endchar
        </CharString>
        <CharString name="breve">
          -269 221 693 rmoveto
          -50 -22 -31 -48 -47 -22 31 50 vhcurveto
          2 -8 -8 2 -8 hhcurveto
          -24 -22 -14 -28 -42 49 -39 90 90 49 39 42 28 -22 14 -25 -8 -8 -2 -2 -6 hvcurveto
          endchar
        </CharString>
        <CharString name="brokenbar">
          -292 181 248 rmoveto
          46 -18 23 -38 -23 -18 -14 -17 -11 vhcurveto
          390 callgsubr
          -253 vlineto
          -47 18 -23 38 23 17 14 17 12 vhcurveto
          337 callsubr
          776 vmoveto
          47 -18 23 -38 -23 -18 -14 -18 -11 vhcurveto
          390 callgsubr
          -253 vlineto
          -46 18 -24 38 23 17 229 callsubr
          -17 7 -8 9 23 vvcurveto
          endchar
        </CharString>
        <CharString name="bullet">
          -194 292 419 rmoveto
          51 -35 39 -54 -61 -63 -59 -65 -51 36 -39 54 64 59 59 65 vhcurveto
          endchar
        </CharString>
        <CharString name="c">
          -80 444 421 rmoveto
          253 callgsubr
          -156 108 -84 117 89 75 53 41 12 -6 11 -7 6 vhcurveto
          50 callsubr
          hvcurveto
          endchar
        </CharString>
        <CharString name="cacute">
          -80 444 421 rmoveto
          253 callgsubr
          -156 108 -84 117 89 75 53 41 12 -6 11 -7 6 vhcurveto
          50 callsubr
          hvcurveto
          -80 243 -73 callgsubr
          endchar
        </CharString>
        <CharString name="caron">
          -275 148 639 rmoveto
          -79 80 rlineto
          12 -12 -10 5 -9 hhcurveto
          -14 -10 -6 -9 -2 hvcurveto
          67 -104 rlineto
          -32 20 17 -17 33 hhcurveto
          31 17 17 32 21 hvcurveto
          66 104 rlineto
          9 -2 -9 6 -15 hhcurveto
          -8 -11 -5 -12 -12 hvcurveto
          endchar
        </CharString>
        <CharString name="ccaron">
          -80 382 721 -65 callgsubr
          110 -503 rmoveto
          50 callsubr
          253 callgsubr
          -156 108 -84 117 414 callsubr
          endchar
        </CharString>
        <CharString name="ccedilla">
          -80 204 -69 rmoveto
          -18 callgsubr
          13 59 rlineto
          0 vlineto
          414 callsubr
          50 callsubr
          253 callgsubr
          -130 75 -80 93 -23 hvcurveto
          endchar
        </CharString>
        <CharString name="cedilla">
          -245 209 28 rmoveto
          -58 hlineto
          -21 -97 181 callgsubr
        </CharString>
        <CharString name="cent">
          -80 313 580 rmoveto
          46 -17 24 -38 -23 -18 -14 -18 -12 vhcurveto
          17 -6 9 -11 -22 vvcurveto
          -74 vlineto
          -104 -33 -77 -103 -138 vvcurveto
          -126 71 -80 89 -25 vhcurveto
          -72 vlineto
          -46 19 -24 38 22 19 14 18 11 vhcurveto
          -16 7 -9 9 22 vvcurveto
          64 vlineto
          80 7 65 48 38 vvcurveto
          12 -6 11 -7 6 vhcurveto
          50 callsubr
          51 -49 43 -82 2 hvcurveto
          endchar
        </CharString>
        <CharString name="circumflex">
          -275 218 686 104 callsubr
        </CharString>
        <CharString name="colon">
          285 callgsubr
          -376 vmoveto
          31 -22 23 -32 -38 -38 -36 -39 -31 23 -23 32 39 36 36 39 vhcurveto
          endchar
        </CharString>
        <CharString name="comma">
          -307 135 -32 rmoveto
          -43 -18 -44 -37 -26 vhcurveto
          -15 2 12 -7 11 hhcurveto
          49 57 79 98 56 -28 59 -54 -34 -26 -28 -29 -2 hvcurveto
          43 -12 25 -41 -47 vvcurveto
          endchar
        </CharString>
        <CharString name="commaaccent">
          -424 137 -126 rmoveto
          51 -32 28 -39 -29 -24 -18 -26 -3 vhcurveto
          -17 callsubr
          hvcurveto
          endchar
        </CharString>
        <CharString name="commaaccent.alt">
          -412 147 677 144 callsubr
        </CharString>
        <CharString name="copyright">
          298 593 505 rmoveto
          54 -59 44 -79 -128 -96 -121 -138 -129 86 -92 114 93 67 63 38 15 -7 8 -7 2 vhcurveto
          -42 -32 -44 -24 -52 hhcurveto
          -78 -65 57 116 104 48 89 88 52 26 -32 -36 hvcurveto
          -5 -2 -4 -5 vvcurveto
          -4 10 9 -2 10 hhcurveto
          25 21 17 27 hvcurveto
          -467 -149 rmoveto
          176 117 149 191 193 116 -149 -176 -176 -118 -145 -191 -192 -116 145 176 vhcurveto
          671 hmoveto
          213 -155 156 -208 -207 -155 -156 -213 -214 155 -151 207 208 155 151 214 vhcurveto
          endchar
        </CharString>
        <CharString name="currency">
          60 327 223 rmoveto
          -72 -58 42 113 -8 hvcurveto
          111 -9 53 42 72 hhcurveto
          71 58 -42 -111 10 hvcurveto
          -113 8 -54 -42 -71 hhcurveto
          234 339 rmoveto
          -4 8 -6 9 -9 4 -20 17 -29 -7 -28 -29 -22 -23 rcurveline
          27 -35 -45 13 -46 hhcurveto
          -47 -46 -13 -27 -36 hvcurveto
          -23 23 -28 29 -28 7 -21 -17 rlinecurve
          -8 -4 -7 -9 -3 -8 72 -72 rcurveline
          -18 -30 -10 -37 -45 vvcurveto
          -50 13 -41 22 -31 vhcurveto
          -79 -77 2 -7 7 -9 9 -3 rlinecurve
          21 -17 26 6 30 28 31 31 rcurveline
          -23 35 42 -12 44 hhcurveto
          43 41 11 23 33 hvcurveto
          32 -30 28 -28 28 -6 20 17 rlinecurve
          9 3 8 9 2 7 -79 77 rcurveline
          21 31 12 41 50 vvcurveto
          44 -10 37 -17 30 vhcurveto
          endchar
        </CharString>
        <CharString name="d">
          2 92 callsubr
          endchar
        </CharString>
        <CharString name="dagger">
          85 357 815 rmoveto
          216 callgsubr
          -6 -4 -45 -66 vvcurveto
          -155 3 -319 -3 -129 vhcurveto
          -16 -2 -29 -6 -11 vhcurveto
          -2 9 7 0 7 hhcurveto
          55 1 57 23 175 -1 187 -1 190 hvcurveto
          87 -2 49 -1 10 vhcurveto
          232 callsubr
          endchar
        </CharString>
        <CharString name="daggerdbl">
          66 129 44 rmoveto
          -23 -53 0 -51 -7 1 -8 2 -4 hvcurveto
          17 143 0 4 74 hvcurveto
          -2 -34 1 -69 -55 vvcurveto
          -25 -1 -26 -5 -12 vhcurveto
          -3 6 8 -2 7 hhcurveto
          51 1 55 22 hvcurveto
          -1 50 -2 49 -1 50 52 -1 53 -1 57 -2 rrcurveto
          22 54 0 52 6 -3 9 -2 3 hvcurveto
          -233 -3 rlineto
          1 6 2 94 124 vvcurveto
          -1 219 -2 36 -1 10 rrcurveto
          232 callsubr
          216 callgsubr
          -8 -3 -125 -107 vvcurveto
          -168 -1 -7 4 -74 vhcurveto
          endchar
        </CharString>
        <CharString name="danda">
          -139 177 callgsubr
          endchar
        </CharString>
        <CharString name="dcaron">
          102 92 callsubr
          117 712 rmoveto
          -28 -25 -18 -25 -2 hvcurveto
          31 -6 19 -20 -31 vvcurveto
          -36 -15 -23 -25 -18 vhcurveto
          -11 4 12 -7 15 hhcurveto
          36 49 48 68 51 -31 28 -40 hvcurveto
          endchar
        </CharString>
        <CharString name="dcroat">
          2 401 116 rmoveto
          -43 -26 -43 -22 -53 hhcurveto
          -77 -70 63 132 144 67 70 88 45 39 -16 -27 30 hvcurveto
          84 223 rmoveto
          51 vlineto
          46 -19 23 -38 -22 -19 -13 -18 -11 vhcurveto
          243 callgsubr
          -49 -106 vlineto
          -31 -21 -14 -24 -7 2 -5 3 -4 hvcurveto
          153 -103 hlineto
          22 -35 -41 12 -46 hhcurveto
          -128 -104 -108 -165 -167 111 -86 104 58 48 21 41 33 hvcurveto
          -41 2 18 -21 36 hhcurveto
          22 19 14 18 12 hvcurveto
          337 callsubr
          524 40 vlineto
          31 21 14 24 8 -2 5 -3 3 hvcurveto
          endchar
        </CharString>
        <CharString name="degree">
          -84 213 835 rmoveto
          -85 -66 -60 -85 -86 64 -59 86 86 64 61 86 85 -62 58 -87 hvcurveto
          -237 vmoveto
          -52 -38 41 53 53 36 37 53 53 36 -39 -53 -53 -35 -39 -53 hvcurveto
          endchar
        </CharString>
        <CharString name="dieresis">
          -288 271 645 24 callgsubr
          endchar
        </CharString>
        <CharString name="divide">
          26 114 439 rmoveto
          -22 -54 0 -51 -7 3 -7 2 -4 hvcurveto
          441 hlineto
          21 54 0 53 6 -1 7 -2 3 hvcurveto
          -190 -197 rmoveto
          31 -22 24 -33 -37 -38 -37 -39 -31 22 -23 33 39 36 36 39 vhcurveto
          349 vmoveto
          31 -22 23 -33 -37 -38 -36 -39 -30 22 -24 33 39 36 36 39 vhcurveto
          endchar
        </CharString>
        <CharString name="dollar">
          32 376 794 rmoveto
          46 -18 23 -38 -23 -18 -14 -18 -11 vhcurveto
          16 -6 9 -11 -22 vvcurveto
          -65 vlineto
          -108 -11 -98 -70 -103 -214 410 6 -150 vvcurveto
          -74 -85 -57 -95 -104 -55 49 55 23 10 18 13 12 vhcurveto
          16 -11 -16 8 -23 hhcurveto
          -35 -28 -30 -43 -86 81 -66 115 -16 hvcurveto
          -66 116 callsubr
          -8 9 22 vvcurveto
          64 vlineto
          130 12 104 83 112 193 -410 2 163 vvcurveto
          76 callgsubr
          65 -68 58 -113 14 hvcurveto
          endchar
        </CharString>
        <CharString name="dotaccent">
          -433 126 666 rmoveto
          186 callgsubr
          35 32 32 34 vhcurveto
          endchar
        </CharString>
        <CharString name="dotlessi">
          65 callsubr
          endchar
        </CharString>
        <CharString name="dottedcircle">
          89 139 517 rmoveto
          -26 18 -19 26 26 18 19 26 25 -18 19 -26 -26 -18 -19 -25 vhcurveto
          -82 -110 rmoveto
          -25 20 -19 26 24 20 19 25 25 -20 19 -24 -26 -20 -19 -25 vhcurveto
          -13 -126 rmoveto
          -25 19 -18 25 26 18 18 413 callgsubr
          52 -116 rmoveto
          -26 18 -18 26 25 19 18 26 25 -19 19 -25 -26 -18 -19 -25 vhcurveto
          101 -75 rmoveto
          -26 19 -20 26 25 19 20 26 24 -19 20 -25 -26 -19 -20 -24 vhcurveto
          127 -16 rmoveto
          -26 18 -18 26 26 19 18 26 26 -19 18 -26 -26 -18 -18 -26 vhcurveto
          121 53 rmoveto
          -26 19 -18 25 25 20 18 26 25 -20 19 -25 -25 -19 -19 -25 vhcurveto
          73 98 rmoveto
          -25 19 -19 26 24 19 19 25 26 -19 19 -24 -26 -19 -19 -26 vhcurveto
          10 134 rmoveto
          -26 18 -18 26 25 19 18 26 26 -19 18 -25 -26 -18 -18 -26 vhcurveto
          -50 118 rmoveto
          -25 19 -19 25 26 18 19 413 callgsubr
          -95 68 rmoveto
          -24 19 -20 26 25 18 20 24 26 -18 19 -25 -26 -19 -19 -26 vhcurveto
          -126 15 rmoveto
          -26 18 -18 26 26 18 18 26 26 -18 18 -26 -26 -18 -18 -26 vhcurveto
          endchar
        </CharString>
        <CharString name="doubledanda">
          74 177 callgsubr
          232 hmoveto
          40 -3 57 -55 -5 -9 -1 -3 -8 vhcurveto
          149 callgsubr
          -34 -230 -6 -113 -130 214 callgsubr
          54 6 9 1 2 7 vhcurveto
          -8 14 -3 39 34 168 6 113 192 vvcurveto
          endchar
        </CharString>
        <CharString name="dvA">
          141 438 651 17 callgsubr
        </CharString>
        <CharString name="dvAA">
          413 438 651 27 callgsubr
          219 hlineto
          10 15 callgsubr
          -26 18 -44 vhcurveto
          endchar
        </CharString>
        <CharString name="dvAI">
          -8 434 152 callsubr
          -444 -40 callgsubr
          60 390 callsubr
          -61 -2 -55 -53 -175 356 -38 -106 vvcurveto
          -28 -24 -13 -22 vhcurveto
          -6 11 -38 44 42 19 33 32 vhcurveto
          152 -356 26 154 61 2 306 callgsubr
          255 hlineto
          17 -31 21 -60 -60 vvcurveto
          -64 -37 -29 -43 -15 -14 3 6 -15 vhcurveto
          -43 1 40 -26 44 hhcurveto
          55 46 41 75 61 -19 65 -36 62 hvcurveto
          260 callsubr
        </CharString>
        <CharString name="dvAU">
          413 866 651 rmoveto
          407 callgsubr
          vvcurveto
          95 -46 197 -113 -33 -27 -24 -31 -17 9 -17 17 -10 vhcurveto
          -14 callgsubr
          58 67 -62 -49 43 hvcurveto
          -377 hlineto
          -86 callgsubr
          219 hlineto
          10 15 callgsubr
          -26 18 -44 vhcurveto
          endchar
        </CharString>
        <CharString name="dvAbbreviationsign">
          -171 204 166 rmoveto
          99 50 77 75 73 -50 71 -100 -99 -51 -78 -75 -74 50 -69 101 hvcurveto
          3 252 rmoveto
          59 29 -53 -52 -51 -31 -51 -62 -60 -30 53 52 51 32 51 63 hvcurveto
          endchar
        </CharString>
        <CharString name="dvAcandra">
          141 574 77 callsubr
          -136 -113 17 callgsubr
        </CharString>
        <CharString name="dvAnusvara">
          -571 -131 758 97 callsubr
          endchar
        </CharString>
        <CharString name="dvAnusvara.amI">
          -571 59 779 97 callsubr
          endchar
        </CharString>
        <CharString name="dvAvagraha">
          -17 137 556 rmoveto
          -141 264 -54 -142 vvcurveto
          -53 -41 -32 -67 -60 -68 35 68 -58 vhcurveto
          -11 -5 -5 -8 -10 vvcurveto
          -49 121 -95 109 91 63 51 81 vhcurveto
          166 -262 61 102 vvcurveto
          34 28 22 66 70 57 0 -1 13 vhcurveto
          2 5 1 8 5 vvcurveto
          40 -40 8 -98 -72 -103 -6 -90 vhcurveto
          endchar
        </CharString>
        <CharString name="dvB">
          -217 -26 callgsubr
          371 -62 callsubr
          -32 -430 341 callsubr
          33 21 rmoveto
          -48 callsubr
          101 85 83 63 20 -13 21 -25 7 vhcurveto
          -15 -41 -25 -32 -30 -23 rrcurveto
          endchar
        </CharString>
        <CharString name="dvBA">
          -27 296 223 rmoveto
          -14 -24 -26 -7 -27 hhcurveto
          -63 -56 43 71 13 callsubr
          338 55 callgsubr
          -92 -67 -66 -83 -114 104 -93 106 48 51 19 39 31 vhcurveto
          -7 -39 -2 -40 -39 vvcurveto
          -43 9 -45 48 2 17 1 3 3 -94 callsubr
        </CharString>
        <CharString name="dvBH">
          -209 398 292 rmoveto
          45 9 21 17 7 -2 6 -1 3 hvcurveto
          -53 4 -73 5 -84 2 rrcurveto
          171 -3 -63 124 -90 hhcurveto
          -52 -29 -40 -47 -52 29 -53 39 6 6 2 2 3 hvcurveto
          230 callgsubr
          endchar
        </CharString>
        <CharString name="dvBHA">
          285 callsubr
          -53 -1 -50 -47 vvcurveto
          -63 6 -78 2 -64 1 rrcurveto
          170 -3 -63 124 -90 hhcurveto
          -52 -29 -40 -47 -52 29 -53 39 6 6 2 2 3 hvcurveto
          230 callgsubr
          206 hlineto
          -2 -70 -1 -65 -65 13 callgsubr
          6 8 -58 callgsubr
          -43 vhcurveto
          endchar
        </CharString>
        <CharString name="dvBH_LA">
          491 296 -79 callsubr
          519 hlineto
          42 callgsubr
          -62 -53 -30 -62 -22 hvcurveto
          -46 4 -56 3 -61 1 rrcurveto
          171 -3 -63 124 -90 hhcurveto
          -52 -29 -40 -47 -52 29 -53 39 6 6 2 2 3 hvcurveto
          230 callgsubr
          154 -9 hlineto
          158 callsubr
          -81 callgsubr
        </CharString>
        <CharString name="dvBH_NA">
          285 callsubr
          vvcurveto
          -48 0 -45 -1 -44 vhcurveto
          -63 6 -78 2 -64 1 rrcurveto
          155 -3 -62 126 -91 5 callsubr
          -23 -1 -20 -1 -18 vhcurveto
          -41 -1 -45 -8 -46 vvcurveto
          -41 50 -58 49 36 14 44 44 4 vhcurveto
          207 hlineto
          -1 -70 rlineto
          -160 -80 -125 -43 -52 vvcurveto
          -37 51 -35 44 30 26 16 29 15 -7 18 -12 22 vhcurveto
          161 91 rlineto
          -5 -29 -2 -48 -22 vvcurveto
          -44 12 -41 44 6 8 -58 callgsubr
          -43 vhcurveto
          endchar
        </CharString>
        <CharString name="dvBH_R">
          -209 398 305 rmoveto
          47 7 21 17 6 -2 6 -1 4 hvcurveto
          -53 3 -73 6 -84 2 rrcurveto
          156 -3 -62 126 -91 5 callsubr
          -23 -1 -20 -1 -18 vhcurveto
          -41 -1 -45 -8 -46 vvcurveto
          -41 50 -58 49 36 14 44 44 4 vhcurveto
          213 -55 rmoveto
          -75 -68 -125 -86 -117 -28 323 callsubr
          80 205 148 52 15 -9 12 -14 6 hvcurveto
          endchar
        </CharString>
        <CharString name="dvBH_RA">
          285 callsubr
          vvcurveto
          -48 0 -45 -1 -44 vhcurveto
          -62 6 -79 2 -64 1 rrcurveto
          155 -3 -62 126 -91 5 callsubr
          -23 -1 -20 -1 -18 vhcurveto
          -41 -1 -45 -8 -46 vvcurveto
          -41 50 -58 49 36 14 44 44 4 vhcurveto
          411 callgsubr
          -107 -25 rlinecurve
          -32 4 25 -19 29 hhcurveto
          56 124 85 75 82 hvcurveto
          -6 -27 -2 -47 -23 vvcurveto
          -42 9 -45 48 6 8 -58 callgsubr
          -43 vhcurveto
          endchar
        </CharString>
        <CharString name="dvBH_R_YA">
          362 750 -5 callgsubr
          vvcurveto
          -77 -109 -36 -34 -43 vhcurveto
          -45 3 -54 4 -59 1 rrcurveto
          156 -3 -62 126 -91 5 callsubr
          -23 -1 -20 -1 -18 vhcurveto
          -41 -1 -45 -8 -46 vvcurveto
          -41 50 -58 49 36 14 44 44 4 vhcurveto
          158 hlineto
          8 -22 15 -22 20 -22 -76 -66 -118 -78 -111 -27 323 callsubr
          76 191 135 57 17 hvcurveto
          -31 42 54 -23 58 hhcurveto
          53 214 callsubr
          hvcurveto
          -5 -44 -2 -46 -28 vvcurveto
          -44 9 -46 47 6 8 -99 callsubr
        </CharString>
        <CharString name="dvBH_VA">
          316 307 -92 callgsubr
          332 hlineto
          9 -67 callgsubr
          -57 -65 -82 -46 -95 -2 vhcurveto
          -45 3 -54 3 -59 1 rrcurveto
          171 -3 -63 124 -90 hhcurveto
          -52 -29 -40 -47 -52 29 -53 39 6 6 2 2 3 hvcurveto
          230 callgsubr
          161 hlineto
          7 hlineto
          -84 27 83 -62 84 hhcurveto
          46 49 19 38 30 hvcurveto
          271 callgsubr
          9 -45 48 2 17 1 3 3 -94 callsubr
        </CharString>
        <CharString name="dvBH_YA">
          360 749 -5 callgsubr
          vvcurveto
          -84 -130 -35 -20 -49 vhcurveto
          -44 3 -51 3 -55 1 rrcurveto
          171 -3 -63 124 -90 hhcurveto
          -52 -29 -40 -47 -52 29 -53 39 6 6 2 2 3 hvcurveto
          230 callgsubr
          161 0 hlineto
          -65 32 91 -72 103 hhcurveto
          53 214 callsubr
          hvcurveto
          -5 -44 -2 -46 -28 vvcurveto
          -44 9 -46 47 6 8 -99 callsubr
        </CharString>
        <CharString name="dvB_BA">
          315 638 223 82 callgsubr
          -180 -179 -21 callsubr
          680 55 callgsubr
          -92 -67 -66 -83 -14 2 -14 2 -13 vhcurveto
          -15 -28 -19 -23 -23 -17 -161 180 rcurveline
          -48 callsubr
          74 65 44 49 30 vhcurveto
          -56 39 66 -37 67 hhcurveto
          48 51 19 39 31 hvcurveto
          -7 -39 -2 -40 -39 vvcurveto
          -43 9 -45 48 2 17 1 3 3 -94 callsubr
        </CharString>
        <CharString name="dvB_BHA">
          387 298 221 rmoveto
          -12 -24 -25 -7 -27 266 callgsubr
          506 369 callsubr
          70 hlineto
          9 290 callsubr
          vvcurveto
          -53 204 callgsubr
          -62 6 -79 303 callgsubr
          -24 -19 -9 -14 -14 hvcurveto
          14 -11 -21 8 -28 hhcurveto
          -352 -40 callgsubr
          323 hlineto
          296 callgsubr
          29 356 callsubr
          14 30 31 52 11 -89 -72 -28 -1 -24 -1 -22 vhcurveto
          -86 -1 -10 -16 -45 -57 -13 -16 -14 -14 -15 -12 -161 179 rcurveline
          -48 callsubr
          89 63 62 55 38 vhcurveto
          -31 17 34 -28 33 hhcurveto
          361 callgsubr
          hvcurveto
          206 hlineto
          -1 -70 -1 -65 -65 214 callgsubr
          54 6 203 callsubr
          -9 13 -3 39 34 147 5 -103 callgsubr
        </CharString>
        <CharString name="dvB_BH_RA">
          359 298 221 341 callsubr
          477 369 callsubr
          70 hlineto
          9 290 callsubr
          vvcurveto
          -48 0 -45 -1 -44 vhcurveto
          -62 6 -79 2 -64 1 rrcurveto
          155 -3 -62 126 -91 hhcurveto
          -26 -20 -10 -16 -14 hvcurveto
          16 -10 -22 9 -31 hhcurveto
          -317 -40 callgsubr
          295 hlineto
          296 callgsubr
          28 356 callsubr
          15 30 30 53 10 -89 -72 -23 -1 -20 -1 -18 vhcurveto
          -80 -2 10 -27 -41 -56 -13 -18 -14 -15 -16 -12 -161 180 rcurveline
          -48 callsubr
          80 70 52 55 29 vhcurveto
          -19 18 25 -14 23 hhcurveto
          36 14 44 44 4 hvcurveto
          411 callgsubr
          -106 -25 rlinecurve
          -32 3 25 -19 29 hhcurveto
          57 124 85 75 81 hvcurveto
          -5 -27 -3 -47 -23 vvcurveto
          -42 10 -45 47 6 9 1 3 8 vhcurveto
          -9 13 -2 39 34 147 4 -103 callgsubr
        </CharString>
        <CharString name="dvB_DA">
          243 298 221 -21 callsubr
          620 hlineto
          282 callgsubr
          -82 -286 20 -193 vvcurveto
          -2 vlineto
          -13 -21 -16 -16 -18 -14 -161 180 rcurveline
          -48 callsubr
          61 55 30 38 34 vhcurveto
          -67 42 89 -53 94 hhcurveto
          345 callsubr
          hvcurveto
          -61 callgsubr
        </CharString>
        <CharString name="dvB_DHA">
          352 298 220 rmoveto
          -11 -20 -25 -7 -31 266 callgsubr
          559 251 rmoveto
          -2 235 callsubr
          24 -15 8 319 callsubr
          -71 -40 -71 hhcurveto
          -63 -53 36 59 32 15 24 18 16 119 callsubr
          -34 -34 -26 -10 -16 -21 hvcurveto
          -16 21 -8 26 25 vvcurveto
          50 35 56 67 vhcurveto
          19 hlineto
          1 40 callgsubr
          -529 -40 callgsubr
          304 hlineto
          18 27 1 2 35 hvcurveto
          -27 -26 -9 -34 -28 vvcurveto
          -47 22 -43 33 -30 vhcurveto
          -35 -42 -23 -58 -41 -38 -160 178 rcurveline
          -48 callsubr
          70 55 42 49 33 vhcurveto
          -61 31 74 -55 89 hhcurveto
          63 54 24 42 36 hvcurveto
          -5 -40 -1 -48 -14 vvcurveto
          -43 9 199 callgsubr
        </CharString>
        <CharString name="dvB_DH_VA">
          678 297 222 rmoveto
          -13 -21 -25 -7 -31 hhcurveto
          -64 -56 261 callgsubr
          545 369 callsubr
          322 hlineto
          8 -66 callgsubr
          34 -34 23 -52 -80 -51 -48 -76 -32 vhcurveto
          -100 -41 -42 -90 -110 hhcurveto
          -58 -49 38 57 32 15 24 19 205 callsubr
          -33 -26 -10 -15 -21 hvcurveto
          -15 21 -8 25 26 vvcurveto
          49 35 348 callsubr
          -528 -40 callgsubr
          300 hlineto
          21 25 1 2 36 hvcurveto
          -26 -26 -10 -34 -28 vvcurveto
          -47 22 -42 33 -31 vhcurveto
          -36 -41 -23 -57 -40 -38 -158 176 rcurveline
          -46 callsubr
          105 -90 104 72 55 44 50 31 vhcurveto
          -61 29 76 -57 86 hhcurveto
          90 66 71 73 25 hvcurveto
          -71 34 73 -46 75 hhcurveto
          46 48 19 38 30 hvcurveto
          271 callgsubr
          9 -45 48 2 17 1 3 3 vhcurveto
          -8 13 -3 39 34 147 5 -103 callgsubr
        </CharString>
        <CharString name="dvB_JA">
          472 298 221 -21 callsubr
          837 128 callsubr
          -58 -329 vlineto
          78 callgsubr
          193 hlineto
          -1 -103 -2 -90 -90 13 callgsubr
          5 9 1 3 8 -107 callgsubr
        </CharString>
        <CharString name="dvB_JHA">
          504 895 135 callgsubr
          -57 -1 -55 -51 vvcurveto
          -25 -28 -51 -21 -58 -70 -37 25 -51 -26 -22 -3 -23 hhcurveto
          -48 -25 26 28 47 52 13 33 hvcurveto
          19 28 -1 21 hhcurveto
          73 31 175 callgsubr
          -457 -387 rmoveto
          -65 -57 45 72 31 12 31 24 21 hvcurveto
          180 -200 rlineto
          -358 452 rmoveto
          -104 callgsubr
          602 hlineto
          19 -16 15 261 callsubr
          -27 -20 1 -20 hhcurveto
          -82 -52 -34 -67 -74 90 -71 75 hvcurveto
          25 26 3 21 hhcurveto
          48 26 345 callgsubr
          -61 -29 -37 6 12 -18 hvcurveto
          49 -11 -25 43 -38 hhcurveto
          -1 0 -55 hlineto
          -199 222 rlineto
          7 17 -47 callsubr
          254 callsubr
          -117 107 -94 104 vhcurveto
          131 hlineto
          8 -41 37 -30 47 -19 rrcurveto
          -124 44 70 -62 66 hhcurveto
          43 24 23 27 17 -8 16 -17 9 hvcurveto
          -16 -16 -21 -5 -17 hhcurveto
          -50 -43 44 56 -28 hvcurveto
          -7 27 28 -3 27 hhcurveto
          93 79 54 83 31 -10 26 -16 23 hvcurveto
          -5 22 21 -2 19 hhcurveto
          39 36 11 13 22 399 callsubr
          38 callgsubr
          156 -101 callsubr
        </CharString>
        <CharString name="dvB_J_YA">
          829 1217 586 -6 callsubr
          -734 -365 -21 callsubr
          955 334 callsubr
          -112 -36 -30 -43 vhcurveto
          74 -65 -44 5 -108 hhcurveto
          -104 hlineto
          78 callgsubr
          96 23 -7 -111 90 hvcurveto
          -53 43 76 -49 85 4 callsubr
        </CharString>
        <CharString name="dvB_JxA">
          474 700 38 rmoveto
          -24 -15 -16 -23 -28 25 -26 29 24 15 18 22 28 -27 25 -27 hvcurveto
          -402 183 -21 callsubr
          838 128 callsubr
          -58 -329 vlineto
          -53 callgsubr
          386 callgsubr
          6 -27 12 -32 hvcurveto
          -15 -39 -25 -30 -28 -22 -161 180 rcurveline
          -48 callsubr
          84 74 58 57 24 vhcurveto
          -72 42 66 -69 88 hhcurveto
          63 54 163 callsubr
        </CharString>
        <CharString name="dvB_LA">
          476 298 221 -21 callsubr
          842 hlineto
          42 callgsubr
          -79 -66 -50 -101 -3 hvcurveto
          -13 -19 -16 -17 -17 -13 -161 180 rcurveline
          -48 callsubr
          55 50 24 33 34 vhcurveto
          -103 36 89 -85 40 hhcurveto
          -28 callsubr
        </CharString>
        <CharString name="dvB_L_YA">
          827 1215 -93 callsubr
          -732 -365 -21 callsubr
          953 hlineto
          208 callgsubr
          -58 -61 -34 -45 -32 vhcurveto
          22 -22 -36 19 -46 373 callgsubr
          -74 -62 -43 -89 -11 hvcurveto
          -15 -28 -19 -23 -23 -17 -161 180 rcurveline
          -48 callsubr
          59 53 28 36 35 vhcurveto
          -106 33 93 -89 41 hhcurveto
          -91 callsubr
          272 callsubr
          21 vhcurveto
          38 21 34 22 43 hhcurveto
          15 15 -3 -6 13 hvcurveto
          -6 -7 -3 -8 -8 161 callgsubr
          214 callsubr
          379 callgsubr
          -28 vvcurveto
          -44 9 -46 47 6 8 -99 callsubr
        </CharString>
        <CharString name="dvB_NA">
          -30 293 222 rmoveto
          -13 157 callgsubr
          -178 251 -100 callgsubr
          338 hlineto
          9 290 callsubr
          -69 -1 -64 -61 vvcurveto
          -12 -25 -16 -20 -18 -16 -158 177 rcurveline
          7 16 243 callsubr
          25 26 -8 -7 14 hvcurveto
          4 83 callgsubr
          34 -38 26 -59 254 callsubr
          -100 79 -85 96 -11 vhcurveto
          -78 -33 -32 -29 -28 vvcurveto
          -37 51 -35 44 30 26 16 29 16 -9 21 -14 26 vhcurveto
          75 46 50 29 24 34 rrcurveto
          -9 -42 -3 -41 -43 vvcurveto
          -43 10 -45 48 2 17 1 3 3 -107 callgsubr
        </CharString>
        <CharString name="dvB_R">
          -217 299 219 rmoveto
          -12 -25 -26 -6 -25 hhcurveto
          -65 -58 42 73 105 callgsubr
          33 21 86 callgsubr
          -108 93 -89 98 8 8 0 1 6 vhcurveto
          -60 -33 -67 -28 -59 -15 rrcurveto
          -34 7 25 -14 24 hhcurveto
          80 232 171 93 20 -11 17 -23 6 hvcurveto
          -15 -42 -26 -33 -29 -22 rrcurveto
          -374 411 rmoveto
          -104 callgsubr
          499 -55 callgsubr
        </CharString>
        <CharString name="dvB_RA">
          -27 297 222 rmoveto
          -13 -24 -26 -7 -26 hhcurveto
          -64 -57 42 72 13 callsubr
          338 316 callgsubr
          -159 178 rcurveline
          -59 callgsubr
          -108 92 -89 97 vhcurveto
          8 hlineto
          -56 -33 -63 -27 -53 -15 rrcurveto
          -34 7 25 -14 24 hhcurveto
          70 143 120 57 47 hvcurveto
          -6 -43 -3 227 callsubr
          11 -42 45 2 17 1 3 3 -94 callsubr
        </CharString>
        <CharString name="dvB_SA">
          485 875 586 rmoveto
          10 -14 1 155 callsubr
          -315 -368 rmoveto
          -11 -24 -25 -5 -25 hhcurveto
          -72 -55 48 66 13 callsubr
          535 265 callsubr
          50 -10 -18 52 -47 hhcurveto
          -30 -20 -26 -28 -23 8 -21 13 -16 hvcurveto
          -16 -28 -21 -22 -23 -16 -165 184 rcurveline
          -48 callsubr
          92 76 60 58 29 vhcurveto
          5 -2 6 -3 6 -2 rrcurveto
          90 callsubr
          47 47 19 35 31 hvcurveto
          -26 57 58 364 callgsubr
          24 4 4 17 hvcurveto
          -1 -61 -1 -59 -58 214 callgsubr
          54 6 9 1 3 8 vhcurveto
          -9 13 -2 39 34 147 4 -103 callgsubr
        </CharString>
        <CharString name="dvB_SHA">
          483 -26 callgsubr
          371 -62 callsubr
          -28 -434 rmoveto
          -10 -24 -25 -5 -26 hhcurveto
          -72 -55 48 66 105 callgsubr
          33 21 rmoveto
          -48 callsubr
          89 73 51 53 34 vhcurveto
          10 -6 12 -4 12 -4 35 callgsubr
          -30 -18 -23 -26 -16 5 -15 9 -14 hvcurveto
          -17 -24 -20 -19 -22 -14 rrcurveto
          490 416 -38 callgsubr
        </CharString>
        <CharString name="dvB_TA">
          292 298 221 -21 callsubr
          658 355 callgsubr
          -92 -65 -48 -86 -6 hvcurveto
          -14 -24 -17 -19 -20 -15 -161 180 rcurveline
          -48 callsubr
          57 51 26 34 35 vhcurveto
          -101 30 76 -89 34 hhcurveto
          324 callgsubr
          hvcurveto
          -66 callsubr
        </CharString>
        <CharString name="dvB_VA">
          303 298 221 -21 callsubr
          668 hlineto
          9 -67 callgsubr
          -57 -66 -83 -47 -97 -13 1 -12 3 -12 vhcurveto
          -15 -29 -20 -23 -23 -17 -161 180 rcurveline
          -48 callsubr
          74 65 44 49 30 vhcurveto
          -54 38 63 -36 64 hhcurveto
          46 49 19 38 30 hvcurveto
          271 callgsubr
          9 -45 48 2 17 1 3 3 -94 callsubr
        </CharString>
        <CharString name="dvB_YA">
          358 746 -93 callsubr
          -263 -365 -21 callsubr
          484 hlineto
          25 callsubr
          -91 -153 -34 -55 vvcurveto
          -9 2 -9 3 -10 vhcurveto
          -15 -28 -20 -24 -23 -17 -161 180 rcurveline
          -48 callsubr
          79 69 51 52 27 vhcurveto
          -49 43 72 -42 79 hhcurveto
          53 214 callsubr
          hvcurveto
          -5 -44 -2 -46 -28 vvcurveto
          -44 9 -46 47 6 8 -99 callsubr
        </CharString>
        <CharString name="dvC">
          -177 453 72 callsubr
          -451 302 callsubr
          329 -187 rmoveto
          -20 callsubr
          -103 100 -82 104 95 79 72 56 20 -10 21 -27 9 vhcurveto
          342 callsubr
        </CharString>
        <CharString name="dvCA">
          36 -64 142 callgsubr
          425 hlineto
          9 -14 2 352 callgsubr
          -60 -53 37 60 53 44 50 75 hvcurveto
          40 hlineto
          -20 callsubr
          -103 100 -82 104 45 50 20 39 29 vhcurveto
          -6 -38 -2 -40 -38 410 callgsubr
          407 callsubr
          4 vhcurveto
          -9 13 -2 39 34 147 4 -103 callgsubr
        </CharString>
        <CharString name="dvCH">
          86 688 142 callsubr
          -663 hlineto
          321 callgsubr
          19 -21 47 19 20 0 3 41 vhcurveto
          392 callgsubr
          -46 18 -42 28 -32 vhcurveto
          -26 -24 -17 -35 -43 220 callsubr
          108 156 86 -58 96 -92 384 callgsubr
          vhcurveto
          0 vlineto
          172 callgsubr
          endchar
        </CharString>
        <CharString name="dvCHA">
          87 431 586 rmoveto
          8 -11 3 -27 1 -29 rrcurveto
          -53 -10 -31 -54 -50 vvcurveto
          -80 56 -68 34 8 6 4 5 3 vhcurveto
          -20 21 -27 34 50 3 callgsubr
          72 -36 75 -65 26 vhcurveto
          294 callsubr
          205 hlineto
          101 callsubr
          endchar
        </CharString>
        <CharString name="dvCH_RA">
          86 325 21 177 callsubr
          8 9 vvcurveto
          35 -141 126 -61 vhcurveto
          106 565 rmoveto
          8 -11 3 -27 1 -29 rrcurveto
          -53 -10 -31 -54 -50 vvcurveto
          -80 56 -68 34 8 6 4 5 3 vhcurveto
          -20 21 -27 34 50 3 callgsubr
          72 -36 75 -65 26 vhcurveto
          294 callsubr
          205 hlineto
          101 callsubr
          endchar
        </CharString>
        <CharString name="dvCH_R_YA">
          668 338 21 rmoveto
          -52 -126 -96 -41 -19 12 -16 22 -9 hvcurveto
          75 70 65 43 26 hhcurveto
          46 105 -101 -18 17 hvcurveto
          11 4 6 8 9 vvcurveto
          35 -141 126 -61 vhcurveto
          187 411 rmoveto
          172 callgsubr
          860 hlineto
          154 callsubr
          -73 -88 -20 -25 -57 vhcurveto
          30 -25 -35 20 -42 hhcurveto
          384 callgsubr
          hvcurveto
          -566 219 rmoveto
          321 callgsubr
          19 -21 47 19 20 0 3 41 vhcurveto
          392 callgsubr
          -46 18 -42 28 -32 vhcurveto
          -26 -24 -17 -35 -43 220 callsubr
          108 156 26 -5 26 -10 25 vhcurveto
          22 64 73 18 82 hhcurveto
          39 22 -17 -25 333 callsubr
          96 -87 109 59 54 22 37 39 vhcurveto
          -5 -28 -1 -30 -16 vvcurveto
          -42 9 -42 46 5 9 1 3 8 -107 callgsubr
        </CharString>
        <CharString name="dvCH_YA">
          668 1057 586 rmoveto
          154 callsubr
          -70 -82 -18 -23 -57 vhcurveto
          -16 22 -21 17 -25 10 294 callsubr
          -52 hmoveto
          401 callsubr
          -53 -10 -31 -54 -50 vvcurveto
          -75 49 -63 31 9 6 5 5 2 vhcurveto
          -16 18 -21 30 46 3 callgsubr
          22 -4 23 -6 21 vhcurveto
          22 62 72 17 80 hhcurveto
          39 22 -17 -25 333 callsubr
          96 -87 109 59 54 22 37 39 vhcurveto
          -5 -28 -1 -30 -16 vvcurveto
          -42 9 -42 46 5 9 1 3 8 -107 callgsubr
        </CharString>
        <CharString name="dvC_CA">
          383 398 399 rmoveto
          23 31 3 4 28 hvcurveto
          -26 -22 -13 -30 -30 vvcurveto
          -11 1 -11 3 -11 vhcurveto
          -64 -39 -64 -28 -56 hhcurveto
          -60 -54 37 60 53 44 50 76 hvcurveto
          -356 366 callgsubr
          749 274 callsubr
          39 hlineto
          2 3 2 7 6 vvcurveto
          48 -49 0 -20 vhcurveto
          -591 hlineto
          -1 -3 -2 55 callsubr
          -103 100 -82 104 70 61 38 43 27 vhcurveto
          -49 39 63 -32 65 hhcurveto
          45 50 20 38 29 hvcurveto
          -5 -38 -2 -39 -38 vvcurveto
          -43 8 -44 48 2 17 1 3 3 -107 callgsubr
        </CharString>
        <CharString name="dvC_CHA">
          463 807 586 rmoveto
          8 -11 3 -27 1 -30 rrcurveto
          -54 -9 -30 157 callsubr
          -26 34 50 vvcurveto
          47 23 44 43 44 22 -45 -53 -113 -91 -129 158 callgsubr
          20 21 -5 22 hhcurveto
          27 33 14 34 34 -37 19 -36 -30 -24 -7 -13 -21 hvcurveto
          -14 22 -6 26 26 223 callsubr
          -637 65 74 callsubr
          400 hlineto
          20 21 1 2 35 359 callsubr
          -48 19 -43 31 -33 vhcurveto
          -63 -63 -29 -106 -115 hhcurveto
          -60 -53 37 60 53 44 50 75 hvcurveto
          40 hlineto
          -20 callsubr
          -102 98 -82 102 64 48 33 37 29 vhcurveto
          -89 36 111 -59 103 hhcurveto
          160 119 113 163 72 -37 76 -65 25 hvcurveto
          -1 29 -4 32 -19 14 rrcurveto
          205 -55 callgsubr
        </CharString>
        <CharString name="dvC_CH_VA">
          448 793 586 rmoveto
          401 callsubr
          -56 -9 -32 -56 -51 vvcurveto
          -96 67 -48 7 -103 vhcurveto
          -21 -37 -46 -13 -54 hhcurveto
          -85 -77 47 79 36 19 27 23 16 hvcurveto
          -9 20 21 -5 21 hhcurveto
          27 33 14 34 34 -39 18 -36 -28 -23 -7 -12 -20 hvcurveto
          -14 22 -6 26 26 223 callsubr
          356 -222 rmoveto
          -60 -26 -65 -50 -47 vhcurveto
          -24 65 -37 44 72 vvcurveto
          49 26 40 43 44 24 -45 -53 vhcurveto
          -125 -399 rmoveto
          -58 -32 -55 -33 -55 hhcurveto
          -53 -46 36 53 64 53 31 90 4 hvcurveto
          36 2 33 6 31 10 rrcurveto
          -1 -42 -1 -39 -34 vvcurveto
          -854 686 74 callsubr
          376 hlineto
          24 23 0 3 39 359 callsubr
          -48 20 -44 30 -32 vhcurveto
          -63 -61 -28 -106 -110 hhcurveto
          -58 -49 39 58 53 44 50 75 hvcurveto
          40 hlineto
          -20 callsubr
          -102 94 -81 102 55 48 29 40 28 vhcurveto
          19 -48 43 -41 53 -24 rrcurveto
          -40 -19 -28 -37 -51 vvcurveto
          -89 97 -86 92 41 44 16 33 30 vhcurveto
          -3 -16 -3 -20 -19 vvcurveto
          -46 12 -41 45 5 8 1 3 7 vhcurveto
          -8 13 -2 38 33 109 4 60 98 vvcurveto
          12 -1 12 -1 11 vhcurveto
          72 48 42 78 100 vvcurveto
          69 -36 77 -65 27 vhcurveto
          -1 29 -4 31 -20 15 252 callsubr
        </CharString>
        <CharString name="dvC_MA">
          396 787 152 callgsubr
          -627 65 74 callsubr
          506 hlineto
          98 callgsubr
          -34 -1 -24 -5 -18 -19 rrcurveto
          -31 -28 -24 -103 -107 hhcurveto
          -60 -53 37 60 53 44 50 75 hvcurveto
          40 hlineto
          -20 callsubr
          -103 100 -82 104 67 58 47 48 22 vhcurveto
          -19 18 24 -14 23 hhcurveto
          32 15 36 55 7 hvcurveto
          210 hlineto
          -1 -70 -1 -65 -65 -54 callsubr
        </CharString>
        <CharString name="dvC_NA">
          37 -64 142 callgsubr
          425 hlineto
          9 -14 2 352 callgsubr
          -60 -53 37 60 53 44 50 75 hvcurveto
          40 hlineto
          -20 callsubr
          -93 83 -74 85 -7 vhcurveto
          -98 -49 -51 -32 -34 412 callgsubr
          -8 20 -15 26 vhcurveto
          99 63 50 29 33 41 rrcurveto
          -7 -40 -2 -42 -40 410 callgsubr
          407 callsubr
          4 -107 callgsubr
        </CharString>
        <CharString name="dvC_R">
          -177 453 72 callsubr
          -451 302 callsubr
          329 -187 rmoveto
          -20 callsubr
          -95 86 -76 88 -3 vhcurveto
          2 hlineto
          -64 -37 -76 -33 -59 -13 rrcurveto
          -33 4 22 -18 29 hhcurveto
          80 263 169 91 16 -9 17 -25 8 hvcurveto
          342 callsubr
        </CharString>
        <CharString name="dvC_RA">
          37 -64 142 callgsubr
          425 hlineto
          9 -14 2 352 callgsubr
          -60 -53 37 60 53 44 50 75 hvcurveto
          40 hlineto
          -20 callsubr
          -95 86 -76 88 -3 vhcurveto
          2 hlineto
          -64 -37 -76 -33 -59 -13 rrcurveto
          -33 4 23 -19 29 hhcurveto
          64 163 110 78 68 hvcurveto
          -6 -40 -2 -41 -40 410 callgsubr
          407 callsubr
          4 -107 callgsubr
        </CharString>
        <CharString name="dvC_YA">
          411 800 75 callsubr
          -678 65 74 callsubr
          561 hlineto
          208 callgsubr
          -80 -99 -23 -43 -52 vhcurveto
          -38 -32 -10 -126 -125 hhcurveto
          -61 -48 44 53 53 44 50 75 hvcurveto
          40 hlineto
          -20 callsubr
          -101 94 -82 100 83 58 57 57 21 vhcurveto
          -53 43 75 -47 84 hhcurveto
          54 51 17 31 39 hvcurveto
          -6 -44 -2 -46 -28 vvcurveto
          -44 9 -70 callsubr
        </CharString>
        <CharString name="dvCandrabindu">
          -571 -154 902 rmoveto
          28 19 20 27 34 -32 32 -33 -28 -19 -21 -27 -34 31 -31 34 hvcurveto
          -169 hmoveto
          233 callgsubr
        </CharString>
        <CharString name="dvD">
          -83 275 11 -44 callgsubr
          245 575 rmoveto
          1 3 2 -106 callsubr
          -497 hlineto
          233 callsubr
          -82 -286 20 -193 404 callgsubr
          26 24 4 7 21 vhcurveto
          -47 26 40 -46 48 hhcurveto
          37 21 24 27 17 -9 19 -14 11 hvcurveto
          -17 -12 -15 -10 -20 hhcurveto
          -26 -22 18 23 -17 hvcurveto
          22 17 14 25 34 vvcurveto
          36 -27 41 -38 -34 -22 -29 -30 -19 6 -15 8 -14 vhcurveto
          -10 -23 -26 -5 -26 hhcurveto
          -73 -74 100 callsubr
          -14 15 vhcurveto
          endchar
        </CharString>
        <CharString name="dvDA">
          -96 -43 651 rmoveto
          233 callsubr
          -82 -286 20 -193 404 callgsubr
          345 callsubr
          vhcurveto
          -61 callgsubr
        </CharString>
        <CharString name="dvDA_mvR">
          -103 -45 -79 callsubr
          263 hlineto
          18 -13 14 -22 -19 vvcurveto
          -21 -14 -17 -35 vhcurveto
          -26 -23 1 -19 hhcurveto
          -84 -51 -41 -68 -38 16 -36 26 -29 hvcurveto
          -26 -22 -18 -32 -41 vvcurveto
          -84 99 -88 110 93 72 43 54 26 -22 23 -22 3 vhcurveto
          -59 -26 -65 -30 -63 hhcurveto
          -61 -53 34 56 32 17 20 21 13 hvcurveto
          -9 18 18 -5 20 hhcurveto
          28 35 15 34 35 -38 17 -36 -22 -23 -5 -9 -21 hvcurveto
          -11 17 -6 19 18 vvcurveto
          39 28 34 67 vhcurveto
          20 19 -1 15 hhcurveto
          84 21 44 30 30 -15 29 -26 23 hvcurveto
          163 -99 callgsubr
        </CharString>
        <CharString name="dvDD">
          -99 235 -12 -44 callgsubr
          -278 663 -43 callsubr
        </CharString>
        <CharString name="dvDDA">
          -99 -43 651 -43 callsubr
        </CharString>
        <CharString name="dvDDH">
          -92 222 -5 -44 callgsubr
          -269 656 rmoveto
          -104 callgsubr
          259 289 callsubr
          -89 -282 16 -202 -57 callgsubr
        </CharString>
        <CharString name="dvDDHA">
          -92 -47 -92 callgsubr
          259 289 callsubr
          -89 -282 16 -202 -57 callgsubr
        </CharString>
        <CharString name="dvDDH_DDHA">
          -80 -71 callgsubr
          259 hlineto
          13 -9 16 -15 -16 -75 -283 17 -161 vvcurveto
          -83 75 -70 85 -31 vhcurveto
          -87 -26 -76 -43 -86 vvcurveto
          -113 140 -88 114 102 69 52 68 79 -71 56 -69 -50 -49 -31 385 callsubr
          14 -4 15 1 14 rrcurveto
          29 2 21 25 35 hhcurveto
          28 27 -20 -37 -57 -65 -36 -69 -86 -80 50 75 hvcurveto
          162 365 -48 172 vvcurveto
          77 -71 55 -68 -50 -49 -30 385 callsubr
          13 -4 13 14 vvcurveto
          31 2 21 26 36 hhcurveto
          28 27 -20 -37 -59 -70 -39 -72 -82 -77 51 72 hvcurveto
          136 279 -33 120 vvcurveto
          24 -14 20 -17 15 vhcurveto
          185 -101 callsubr
        </CharString>
        <CharString name="dvDDH_R">
          -92 426 -171 79 callsubr
          -180 40 -44 callgsubr
          -293 782 rmoveto
          -104 callgsubr
          259 289 callsubr
          -89 -282 16 -202 -57 callgsubr
        </CharString>
        <CharString name="dvDDH_RA">
          -92 242 5 228 callsubr
          -289 646 rmoveto
          -104 callgsubr
          259 289 callsubr
          -89 -282 16 -202 -57 callgsubr
        </CharString>
        <CharString name="dvDDH_YA">
          512 901 178 callsubr
          -53 hhcurveto
          -53 -63 21 38 hvcurveto
          55 145 25 77 vvcurveto
          58 -58 71 -86 -118 -106 -110 -77 -43 vhcurveto
          5 -14 -15 2 -14 hhcurveto
          -51 -49 -32 -58 -40 27 -24 28 6 7 1 3 5 hvcurveto
          -3 11 -3 13 1 13 rrcurveto
          39 2 26 23 31 hhcurveto
          28 27 -20 -39 -66 -66 -43 -68 -87 -79 58 84 hvcurveto
          173 279 -31 129 vvcurveto
          30 -14 24 -18 18 vhcurveto
          -382 65 74 callsubr
          259 289 callsubr
          -89 -282 16 -202 vvcurveto
          -126 142 -94 112 101 71 57 79 40 -18 35 -28 24 vhcurveto
          83 54 94 76 97 hhcurveto
          36 19 -15 -26 hvcurveto
          -53 -156 283 callgsubr
          19 callgsubr
        </CharString>
        <CharString name="dvDDHxA">
          -92 248 -16 -64 callsubr
          -295 667 rmoveto
          -104 callgsubr
          259 289 callsubr
          -89 -282 16 -202 -57 callgsubr
        </CharString>
        <CharString name="dvDD_DDA">
          -89 -77 callsubr
          283 hlineto
          16 -11 13 -17 -15 vvcurveto
          -18 -14 -12 -37 vhcurveto
          -34 -27 1 -25 hhcurveto
          -80 -50 -34 -55 -76 92 -56 74 hvcurveto
          277 callgsubr
          -26 40 -44 64 -31 vhcurveto
          -33 -13 -19 -25 -31 vvcurveto
          -74 92 -55 73 vhcurveto
          277 callgsubr
          -45 121 -96 150 93 69 46 64 55 -58 72 -90 vhcurveto
          368 callgsubr
          20 25 -1 23 hhcurveto
          92 69 46 64 55 -58 72 -90 hvcurveto
          368 callgsubr
          27 313 callsubr
          90 16 44 24 25 -16 24 -22 18 hvcurveto
          106 callsubr
        </CharString>
        <CharString name="dvDD_DDHA">
          -76 -45 651 238 callgsubr
          -33 -57 -76 92 -56 73 hvcurveto
          34 40 6 32 hhcurveto
          37 18 -17 -23 -49 -72 -22 -65 -96 -79 37 64 -49 hvcurveto
          -6 -3 -10 -5 -16 vvcurveto
          -32 65 -63 92 -27 vhcurveto
          -81 -25 -67 -44 -79 vvcurveto
          -114 142 -85 112 102 69 52 67 79 -71 55 -69 -50 -49 -31 -56 -38 26 -26 27 6 8 1 3 6 vhcurveto
          -6 13 -4 14 1 14 rrcurveto
          31 1 21 26 36 hhcurveto
          28 27 -20 -37 -56 -66 -37 -68 -87 -79 50 75 99 144 28 115 30 hvcurveto
          59 15 43 37 50 vvcurveto
          56 -58 72 -91 vhcurveto
          -36 -35 -5 -31 hhcurveto
          -46 -28 15 32 38 382 callsubr
          24 25 -16 24 -21 18 hvcurveto
          175 -99 callgsubr
        </CharString>
        <CharString name="dvDD_R">
          -99 423 -184 79 callsubr
          -181 40 -44 callgsubr
          -285 795 -43 callsubr
        </CharString>
        <CharString name="dvDD_RA">
          -99 239 -2 177 callsubr
          7 10 vvcurveto
          35 -141 126 -61 vhcurveto
          -282 653 -43 callsubr
        </CharString>
        <CharString name="dvDD_VA">
          -77 310 61 rmoveto
          -35 0 -24 -21 vvcurveto
          -32 -31 -37 -15 -40 hhcurveto
          -50 -46 30 52 52 44 41 103 2 hvcurveto
          19 18 2 2 17 hvcurveto
          3 -14 0 -20 -20 vvcurveto
          -355 590 238 callgsubr
          -34 -59 -78 92 -57 73 hvcurveto
          33 39 5 31 hhcurveto
          39 18 -17 -24 -51 -72 -23 -64 -96 -78 38 66 -49 hvcurveto
          -7 -2 -10 -5 -16 vvcurveto
          -29 49 -53 74 -30 vhcurveto
          -50 -15 -37 -39 -52 vvcurveto
          -86 86 -76 91 34 28 10 18 23 vhcurveto
          -3 -12 -1 -14 -14 vvcurveto
          -36 14 -33 38 6 7 1 3 6 vhcurveto
          -9 13 -2 36 32 77 3 30 63 vvcurveto
          25 -1 32 -14 18 vhcurveto
          57 17 34 34 48 vvcurveto
          64 -63 69 -87 vhcurveto
          -36 -34 -5 -31 hhcurveto
          -46 -28 15 31 40 382 callsubr
          25 26 -16 24 -21 18 hvcurveto
          175 -99 callgsubr
        </CharString>
        <CharString name="dvDD_YA">
          487 889 178 callsubr
          -52 hhcurveto
          -54 -63 21 38 hvcurveto
          55 146 25 77 vvcurveto
          58 -58 71 -84 -121 -109 -117 -80 -39 vhcurveto
          8 -18 -21 4 -21 -33 -32 -5 -29 hhcurveto
          -45 -30 21 38 50 55 13 40 hvcurveto
          27 17 -1 21 hhcurveto
          84 21 43 31 31 -15 351 callsubr
          -392 -74 callgsubr
          272 hlineto
          18 169 callsubr
          -35 vhcurveto
          1 -34 -24 0 -25 hhcurveto
          -78 -50 -38 -66 -86 94 -63 74 hvcurveto
          30 37 349 callsubr
          22 281 callsubr
          -66 -96 -79 40 64 -50 hvcurveto
          -7 -2 -10 -5 -15 vvcurveto
          -46 123 -102 151 95 65 55 69 37 -18 40 -29 29 vhcurveto
          87 52 96 85 100 hhcurveto
          35 19 -15 -26 hvcurveto
          -53 -157 283 callgsubr
          6 8 1 3 8 vhcurveto
          -8 13 -3 39 34 147 5 -103 callgsubr
        </CharString>
        <CharString name="dvDDxA">
          -99 237 -46 -64 callsubr
          -280 697 -43 callsubr
        </CharString>
        <CharString name="dvDH">
          -177 231 586 rmoveto
          -42 callgsubr
          -80 93 -95 118 114 95 84 60 20 -10 19 -28 7 vhcurveto
          -80 -36 -80 -51 -89 67 callsubr
          -28 310 callgsubr
          20 -7 25 25 vvcurveto
          49 35 56 67 vhcurveto
          endchar
        </CharString>
        <CharString name="dvDHA">
          29 372 96 callsubr
          -78 -1 -72 -2 -67 vhcurveto
          -65 -37 -72 -40 -71 204 callsubr
          18 hlineto
          -42 callgsubr
          -80 93 -95 118 63 53 24 42 37 vhcurveto
          -6 -40 -1 -48 -14 410 callgsubr
          48 6 8 1 3 8 14 callgsubr
        </CharString>
        <CharString name="dvDH_MA">
          371 761 586 37 callsubr
          -24 18 vhcurveto
          -231 293 callsubr
          108 hlineto
          147 callsubr
          vvcurveto
          -21 -1 -23 -1 -22 vhcurveto
          -68 -1 -3 -15 -32 -59 rrcurveto
          -68 -36 -59 -34 -60 hhcurveto
          -56 -47 34 57 96 callgsubr
          -28 310 callgsubr
          20 -7 25 25 vvcurveto
          49 35 56 67 vhcurveto
          18 hlineto
          -42 callgsubr
          -78 87 -91 110 80 66 54 54 29 vhcurveto
          -18 18 23 -13 23 hhcurveto
          196 callgsubr
          hvcurveto
          210 hlineto
          -1 -70 -1 -65 -65 13 callgsubr
          5 9 1 3 8 -107 callgsubr
        </CharString>
        <CharString name="dvDH_NA">
          29 372 96 callsubr
          -79 -2 -73 -1 -68 vhcurveto
          -61 -31 -72 -41 -77 204 callsubr
          18 hlineto
          -42 callgsubr
          -69 65 -71 84 -19 vhcurveto
          -86 -26 -54 -30 348 callgsubr
          108 53 74 18 42 51 rrcurveto
          -7 -40 -1 -53 -14 410 callgsubr
          48 6 8 1 3 8 14 callgsubr
        </CharString>
        <CharString name="dvDH_N_YA">
          398 786 586 -6 callsubr
          -247 65 74 callsubr
          129 hlineto
          208 callgsubr
          -56 -60 -39 -47 -31 vhcurveto
          -61 -91 389 callsubr
          -53 392 callsubr
          49 callgsubr
          -28 310 callgsubr
          20 -7 25 25 vvcurveto
          49 35 56 67 vhcurveto
          18 hlineto
          -42 callgsubr
          -64 59 -74 81 -21 vhcurveto
          -99 -26 -57 -29 -37 vvcurveto
          -38 50 -39 46 27 26 15 29 16 -7 20 -11 26 vhcurveto
          179 59 60 67 27 67 rrcurveto
          -57 38 81 -52 90 4 callsubr
        </CharString>
        <CharString name="dvDH_R">
          -177 231 586 rmoveto
          -42 callgsubr
          -81 90 -84 102 7 8 1 1 7 vhcurveto
          -69 -33 -84 -31 -62 -12 rrcurveto
          -33 3 24 -20 27 hhcurveto
          81 284 167 98 18 -10 18 -26 6 hvcurveto
          -80 -36 -80 -51 -89 204 callsubr
          endchar
        </CharString>
        <CharString name="dvDH_RA">
          29 372 96 callsubr
          -78 -1 -72 -2 -67 vhcurveto
          -65 -37 -72 -40 -71 204 callsubr
          18 hlineto
          -42 callgsubr
          -81 90 -84 102 5 4 0 1 5 vhcurveto
          -68 -33 -79 -30 -60 -12 rrcurveto
          -34 3 25 -20 29 hhcurveto
          57 174 92 107 80 hvcurveto
          -8 -41 -2 -60 -16 410 callgsubr
          48 6 8 1 3 8 14 callgsubr
        </CharString>
        <CharString name="dvDH_VA">
          348 339 -92 callgsubr
          332 hlineto
          9 -66 callgsubr
          33 -32 24 -51 vhcurveto
          -214 61 -315 -201 hhcurveto
          -56 -46 41 55 96 callgsubr
          -28 310 callgsubr
          20 -7 25 25 vvcurveto
          49 35 56 67 vhcurveto
          18 hlineto
          -42 callgsubr
          -79 87 -93 110 90 64 71 73 27 vhcurveto
          -72 33 75 -47 74 hhcurveto
          46 49 19 38 30 hvcurveto
          271 callgsubr
          9 -45 48 2 17 1 3 3 -94 callsubr
        </CharString>
        <CharString name="dvDH_YA">
          398 786 586 -6 callsubr
          -247 65 74 callsubr
          129 hlineto
          208 callgsubr
          -56 -60 -39 -47 -31 vhcurveto
          -61 -91 389 callsubr
          -53 392 callsubr
          49 callgsubr
          -28 310 callgsubr
          20 -7 25 25 vvcurveto
          49 35 56 67 vhcurveto
          18 hlineto
          -42 callgsubr
          -78 85 -89 108 89 71 71 67 28 vhcurveto
          -57 38 81 -52 90 4 callsubr
        </CharString>
        <CharString name="dvD_BA">
          327 callsubr
          25 4 23 8 8 -56 -20 -46 -36 -28 rrcurveto
          -31 -18 rmoveto
          -9 -21 -24 -5 -26 hhcurveto
          -48 -50 24 47 28 16 25 41 14 hvcurveto
          -210 493 155 callgsubr
          -52 -15 -32 -37 -43 vvcurveto
          -93 105 -58 76 117 56 81 70 vhcurveto
          11 vlineto
          -26 22 28 -19 35 hhcurveto
          36 21 24 28 17 -8 17 -15 -25 callgsubr
        </CharString>
        <CharString name="dvD_BHA">
          135 -44 -79 callsubr
          468 hlineto
          11 -9 9 -10 -12 -75 -294 32 -160 vvcurveto
          -78 90 -82 108 -13 vhcurveto
          -45 -19 -44 -20 -40 -18 rrcurveto
          101 -59 -74 52 -62 hhcurveto
          -49 -32 -34 -40 -49 41 -42 40 12 15 4 15 5 hvcurveto
          -31 11 -16 28 24 vvcurveto
          20 13 18 25 37 39 -60 -48 25 vhcurveto
          5 -9 5 -10 4 -10 rrcurveto
          -27 -15 -25 -19 -27 vvcurveto
          -39 53 -28 42 33 23 15 31 16 -6 19 -7 18 vhcurveto
          226 121 rlineto
          -51 27 39 -54 59 328 callgsubr
          -31 394 callsubr
          -25 37 -36 -33 -23 -28 -30 -18 6 -16 8 -14 vhcurveto
          -11 -25 -31 -5 -31 hhcurveto
          -69 -73 30 69 hvcurveto
          129 288 -43 115 vvcurveto
          23 -11 18 -13 14 vhcurveto
          198 -101 callsubr
        </CharString>
        <CharString name="dvD_B_RA">
          327 callsubr
          26 4 23 8 8 -57 -19 -46 -37 -28 rrcurveto
          -31 -19 rmoveto
          -8 -21 -24 -5 -26 hhcurveto
          -49 -50 24 48 28 16 25 41 14 hvcurveto
          -210 493 155 callgsubr
          -52 -15 -32 -37 -43 vvcurveto
          -79 74 -55 82 7 8 0 1 7 vhcurveto
          -49 -23 -53 -15 -46 -12 rrcurveto
          -32 4 22 -15 27 hhcurveto
          53 218 99 140 hvcurveto
          1 vlineto
          -25 22 28 -19 35 hhcurveto
          36 21 24 28 17 -8 17 -15 418 callgsubr
          -16 -8 -18 hhcurveto
          -31 -32 394 callsubr
          -23 37 -37 -34 -22 -28 -30 -18 6 -16 8 -14 vhcurveto
          -12 -27 -32 -5 -33 hhcurveto
          -69 -75 30 68 hvcurveto
          130 294 -44 117 vvcurveto
          23 -11 18 -12 14 vhcurveto
          198 -99 callgsubr
        </CharString>
        <CharString name="dvD_DA">
          -108 -45 -79 callsubr
          267 hlineto
          18 -13 13 -22 -19 vvcurveto
          -21 -13 -17 -35 vhcurveto
          -27 -25 1 -20 hhcurveto
          -84 -51 -41 -68 -34 15 -33 25 -27 hvcurveto
          -26 -22 -17 -32 -40 vvcurveto
          -79 98 -96 119 34 34 6 14 27 vhcurveto
          13 -23 5 -23 -22 vvcurveto
          -28 -20 -23 -33 399 callgsubr
          43 43 -22 41 -25 36 hvcurveto
          15 16 10 22 27 vvcurveto
          36 -27 40 -39 -29 -20 -25 -26 -21 9 -17 12 -15 vhcurveto
          -15 -25 -31 -8 -33 hhcurveto
          -67 -58 35 60 31 17 23 20 13 hvcurveto
          -9 18 20 -5 19 hhcurveto
          28 35 14 35 34 -38 18 -35 -23 -24 -5 -10 -21 hvcurveto
          -10 14 -5 16 14 vvcurveto
          39 28 34 67 vhcurveto
          22 20 -1 16 hhcurveto
          83 21 43 31 30 -15 29 -26 23 hvcurveto
          162 78 callsubr
        </CharString>
        <CharString name="dvD_DHA">
          88 408 169 153 callsubr
          -54 41 -54 61 -34 vhcurveto
          -15 -61 -28 -38 -58 hhcurveto
          -32 -21 18 29 hvcurveto
          37 40 37 47 vvcurveto
          35 -23 18 -26 -5 -6 -1 -1 -4 vhcurveto
          3 -8 1 -8 -8 -41 -39 -31 -50 vvcurveto
          -67 70 -59 68 16 15 3 7 14 vhcurveto
          -1 -3 0 -3 -3 vvcurveto
          -85 100 -53 72 391 callgsubr
          10 vlineto
          -25 22 28 -19 34 hhcurveto
          37 21 24 28 17 -8 17 -15 -25 callgsubr
        </CharString>
        <CharString name="dvD_GA">
          -76 526 142 callsubr
          -502 -40 callgsubr
          295 hlineto
          13 -10 6 -13 -13 -80 -299 26 -193 -104 122 -48 -96 vvcurveto
          -28 -6 -13 -11 -18 vhcurveto
          29 -10 410 callsubr
          -38 44 59 31 50 60 40 -13 35 -20 31 hvcurveto
          -13 33 36 -7 34 hhcurveto
          23 23 3 7 20 hvcurveto
          -53 27 39 -58 61 hhcurveto
          36 22 24 28 17 -9 17 -14 11 hvcurveto
          -15 -10 -15 -9 -18 hhcurveto
          -33 -32 28 28 -18 hvcurveto
          24 17 16 27 35 vvcurveto
          33 -24 36 -36 -33 -23 -26 -33 -16 5 -15 7 -13 vhcurveto
          -9 -23 -26 -4 -27 hhcurveto
          -73 -80 36 80 hvcurveto
          159 294 -43 128 vvcurveto
          26 -11 20 -13 15 vhcurveto
          endchar
        </CharString>
        <CharString name="dvD_GHA">
          88 271 209 rmoveto
          -15 -62 -27 -38 -56 hhcurveto
          -37 -24 19 34 33 27 23 41 60 19 -33 -23 59 hvcurveto
          137 -40 153 callsubr
          -16 3 -15 6 -15 vhcurveto
          9 -21 -23 6 -18 hhcurveto
          -82 -23 -49 -34 -72 70 -60 71 16 14 3 6 13 hvcurveto
          -1 -3 0 -4 -3 vvcurveto
          -85 100 -53 72 391 callgsubr
          10 vlineto
          -25 22 28 -19 34 hhcurveto
          37 21 24 28 17 -8 17 -15 -25 callgsubr
        </CharString>
        <CharString name="dvD_G_RA">
          -76 526 142 callsubr
          -502 -40 callgsubr
          295 220 callgsubr
          -88 105 -46 -90 vvcurveto
          -29 -5 -14 -11 -17 vhcurveto
          28 -11 410 callsubr
          -37 44 59 31 50 59 40 -11 34 -18 29 hvcurveto
          -13 34 37 -8 36 hhcurveto
          9 hlineto
          4 -16 1 -29 -29 -30 -1 -28 -26 vvcurveto
          -61 -51 -123 -90 -96 -23 rrcurveto
          -23 4 20 -21 25 hhcurveto
          52 113 77 64 71 hvcurveto
          -5 -25 -2 -44 -20 vvcurveto
          -37 7 -40 43 4 7 1 3 7 vhcurveto
          -8 12 -2 33 31 83 4 78 75 vvcurveto
          28 -1 35 -15 18 vhcurveto
          9 3 10 3 9 4 rrcurveto
          -51 27 38 -55 60 328 callgsubr
          -32 26 27 -19 hvcurveto
          23 19 14 26 33 vvcurveto
          32 -25 37 -35 -34 -22 -28 -30 -18 6 -16 8 -14 vhcurveto
          -12 -27 -32 -5 -33 hhcurveto
          -69 -75 30 68 hvcurveto
          130 294 -44 117 vvcurveto
          23 -11 18 -12 14 vhcurveto
          endchar
        </CharString>
        <CharString name="dvD_MA">
          111 504 143 callsubr
          -37 -34 vvcurveto
          -110 -2 -95 -2 -88 vhcurveto
          -53 4 -53 2 -51 1 rrcurveto
          72 -19 -56 61 -72 -29 -25 -9 -25 hhcurveto
          -30 -22 18 30 45 57 7 39 hvcurveto
          26 313 callsubr
          84 20 42 30 28 -15 27 -23 21 hvcurveto
          -353 293 callsubr
          232 hlineto
          17 -12 13 -20 -17 vvcurveto
          -21 -14 -16 -35 vhcurveto
          -34 -27 1 -26 hhcurveto
          -78 -49 -32 -57 -78 79 -58 65 hvcurveto
          26 28 10 28 hhcurveto
          33 13 -29 -42 2 hvcurveto
          -41 -1 -42 -9 -44 vvcurveto
          -42 51 -55 44 31 19 32 52 4 vhcurveto
          150 hlineto
          -25 0 -24 -25 vvcurveto
          -40 5 -55 53 5 236 callgsubr
          -2 38 34 152 4 142 137 292 callsubr
        </CharString>
        <CharString name="dvD_NA">
          -95 -43 651 rmoveto
          233 callsubr
          -79 -286 19 -187 vvcurveto
          -99 110 -85 113 vhcurveto
          7 hlineto
          -96 -47 -52 -33 -36 412 callgsubr
          -9 20 -14 26 vhcurveto
          57 38 42 28 28 25 rrcurveto
          20 -23 18 -29 -29 vvcurveto
          -23 -15 -21 -28 -7 vhcurveto
          -23 9 21 -10 21 hhcurveto
          36 23 29 34 52 -44 50 -33 28 hvcurveto
          16 21 7 20 23 vvcurveto
          34 -20 36 -36 -31 -20 -26 -28 -21 7 -17 10 -16 vhcurveto
          -12 -25 -30 -6 -30 hhcurveto
          -73 -75 37 76 hvcurveto
          157 281 -37 125 12 callsubr
        </CharString>
        <CharString name="dvD_R">
          -94 261 -46 -44 callgsubr
          -304 697 rmoveto
          233 callsubr
          -79 -286 19 -187 -7 callsubr
        </CharString>
        <CharString name="dvD_RA">
          -94 -43 651 rmoveto
          233 callsubr
          -79 -286 19 -187 -7 callsubr
        </CharString>
        <CharString name="dvD_VA">
          -36 284 367 callsubr
          -98 hhcurveto
          -47 -49 24 47 40 35 35 95 hvcurveto
          9 25 1 7 hhcurveto
          -326 482 155 callgsubr
          -51 -15 -31 -36 -42 vvcurveto
          -93 104 -58 75 391 callgsubr
          11 vlineto
          -26 22 28 -19 35 hhcurveto
          36 21 24 28 17 -8 17 -15 -25 callgsubr
        </CharString>
        <CharString name="dvD_YA">
          34 425 195 callgsubr
          -71 -1 -67 -1 -62 vhcurveto
          -79 -38 -69 -57 -86 hhcurveto
          -60 -50 31 48 24 14 19 18 12 hvcurveto
          -13 18 23 -8 28 hhcurveto
          29 34 15 34 40 -44 17 -35 -24 -24 -5 -9 -22 hvcurveto
          -7 11 -4 12 13 74 148 -25 81 vvcurveto
          23 -13 18 -10 11 vhcurveto
          -305 -74 callgsubr
          192 hlineto
          6 -6 5 -7 -8 -50 -150 22 -106 vvcurveto
          -31 18 -31 18 -21 vhcurveto
          -25 -20 -16 -28 -36 vvcurveto
          -70 92 -89 115 67 57 29 45 38 vhcurveto
          -5 -35 -1 -33 -32 vvcurveto
          -44 10 -45 47 373 callsubr
          5 138 -33 callgsubr
          32 -2 40 -97 callgsubr
        </CharString>
        <CharString name="dvE">
          -8 -71 callgsubr
          60 390 callsubr
          -61 -2 -55 -53 -175 356 -38 -106 vvcurveto
          -28 -24 -13 -22 vhcurveto
          -6 11 -38 44 42 19 33 32 vhcurveto
          152 -356 26 154 61 2 306 callgsubr
          255 hlineto
          17 -31 21 -60 -60 vvcurveto
          -64 -37 -29 -43 -15 -14 3 6 -15 vhcurveto
          -43 1 40 -26 44 hhcurveto
          55 46 41 75 61 -19 65 -36 62 hvcurveto
          260 callsubr
        </CharString>
        <CharString name="dvEcandra">
          -8 297 77 callsubr
          -343 369 callgsubr
          60 390 callsubr
          -61 -2 -55 -53 -175 356 -38 -106 vvcurveto
          -28 -24 -13 -22 vhcurveto
          -6 11 -38 44 42 19 33 32 vhcurveto
          152 -356 26 154 61 2 306 callgsubr
          255 hlineto
          17 -31 21 -60 -60 vvcurveto
          -64 -37 -29 -43 -15 -14 3 6 -15 vhcurveto
          -43 1 40 -26 44 hhcurveto
          55 46 41 75 61 -19 65 -36 62 hvcurveto
          260 callsubr
        </CharString>
        <CharString name="dvEight">
          -140 374 231 rmoveto
          -85 -33 -71 -33 -62 hhcurveto
          -63 -47 39 68 62 54 70 39 47 hvcurveto
          92 110 75 67 46 vvcurveto
          24 -12 15 -21 6 vhcurveto
          0 -189 -219 -34 -38 vhcurveto
          -47 -55 -24 -55 -54 vvcurveto
          -114 116 -81 99 118 52 76 47 25 -15 22 -27 10 vhcurveto
          endchar
        </CharString>
        <CharString name="dvEyelash">
          -274 -44 -79 callsubr
          307 hlineto
          101 callsubr
          89 -260 rmoveto
          -27 -36 -52 -19 -57 hhcurveto
          -54 -53 18 33 -33 hvcurveto
          -8 -5 -6 -8 -11 vvcurveto
          -42 90 -51 95 67 65 29 47 11 -4 14 -14 11 vhcurveto
          endchar
        </CharString>
        <CharString name="dvEyelash_HA">
          -35 -60 -92 callgsubr
          426 hlineto
          22 -13 16 -22 -24 vvcurveto
          -20 -16 -18 -32 vhcurveto
          -32 -14 1 -26 308 callsubr
          -9 1 -9 2 -9 hvcurveto
          -5 -22 -24 -3 -23 hhcurveto
          -61 -57 14 30 -41 hvcurveto
          -7 -4 -6 -9 -10 vvcurveto
          -39 95 -46 96 29 26 3 7 26 vhcurveto
          7 -9 7 -8 8 -8 rrcurveto
          -32 -32 -18 -43 -46 vvcurveto
          -135 129 -94 131 28 22 10 21 2 -1 6 -2 4 vhcurveto
          -1 -10 -10 -1 -10 hhcurveto
          -108 -102 58 106 92 79 322 callgsubr
          -29 -30 -51 -3 hvcurveto
          -33 1 27 -16 28 hhcurveto
          50 34 44 49 71 -72 87 -108 -39 -34 -10 -18 -28 hvcurveto
          -16 20 -11 20 24 vvcurveto
          37 26 38 59 vhcurveto
          29 24 -1 29 hhcurveto
          59 33 32 42 35 -17 31 -24 22 hvcurveto
          169 8 callgsubr
        </CharString>
        <CharString name="dvEyelash_YA">
          191 580 254 callgsubr
          -17 3 280 callsubr
          -69 -2 -65 vhcurveto
          -55 -41 -71 -20 -53 hhcurveto
          -82 40 callsubr
          39 100 11 callgsubr
          -438 -74 callgsubr
          319 hlineto
          18 -18 10 -25 -25 vvcurveto
          -77 -114 -62 -112 -61 -57 13 31 -42 vhcurveto
          -7 -5 -5 -8 -11 vvcurveto
          -38 95 -47 96 23 21 2 4 20 vhcurveto
          -65 105 -100 122 54 51 17 32 39 vhcurveto
          -6 -45 -2 -46 -28 vvcurveto
          -44 9 -46 47 211 callsubr
        </CharString>
        <CharString name="dvFive">
          -56 513 51 rmoveto
          -4 -10 -12 -2 -10 hhcurveto
          -78 -31 68 76 -18 hvcurveto
          39 19 29 32 45 vvcurveto
          54 -33 28 -34 -33 -31 -25 -47 -19 3 -20 6 -17 vhcurveto
          -7 -19 -27 -5 -32 hhcurveto
          -79 -39 54 66 118 116 111 102 29 hvcurveto
          12 -10 32 -40 -82 -154 -138 -138 -107 99 -96 129 17 17 2 4 16 vhcurveto
          -93 22 45 -116 86 hhcurveto
          38 17 25 25 11 -2 13 -7 10 hvcurveto
          endchar
        </CharString>
        <CharString name="dvFour">
          -94 235 113 rmoveto
          -60 -39 44 53 54 48 45 58 45 hvcurveto
          49 -41 38 -46 -56 vvcurveto
          -55 -43 -43 -51 vhcurveto
          43 268 rmoveto
          80 60 84 60 78 vvcurveto
          32 -20 27 -33 vhcurveto
          0 -6 0 -8 -3 vhcurveto
          3 -8 1 -8 -9 vvcurveto
          -70 -82 -54 -79 -58 vhcurveto
          -62 46 -53 43 44 vvcurveto
          27 23 13 13 3 vhcurveto
          26 -23 20 -28 -29 -33 -21 -47 -71 79 -53 77 -57 vhcurveto
          -61 -49 -51 -53 -70 vvcurveto
          -74 83 -94 107 75 67 59 82 69 -58 58 -66 52 vhcurveto
          endchar
        </CharString>
        <CharString name="dvG">
          -226 11 callsubr
          228 8 callgsubr
        </CharString>
        <CharString name="dvGA">
          -4 11 callsubr
          236 hlineto
          10 -14 1 293 callgsubr
          55 5 9 1 3 8 vhcurveto
          -9 13 -2 -95 callgsubr
        </CharString>
        <CharString name="dvGH">
          -167 438 72 callsubr
          -418 hlineto
          59 callgsubr
          -82 96 -99 116 124 83 98 54 20 -13 21 -29 6 vhcurveto
          -85 -35 -80 -55 -81 114 callsubr
          endchar
        </CharString>
        <CharString name="dvGHA">
          41 432 195 callgsubr
          -79 -1 -71 -1 -67 vhcurveto
          -64 -36 -69 -41 -73 hhcurveto
          -64 -55 37 63 -26 callsubr
          -82 96 -99 116 62 54 23 43 37 vhcurveto
          -6 -41 -1 -49 -13 vvcurveto
          -45 13 -41 44 19 callgsubr
        </CharString>
        <CharString name="dvGH_MA">
          392 783 195 callgsubr
          -53 204 callgsubr
          -63 6 -80 2 -65 1 rrcurveto
          1 19 0 20 21 vvcurveto
          98 -3 239 callsubr
          -79 -2 3 -23 -32 -57 rrcurveto
          -60 -34 -42 -39 -69 hhcurveto
          -64 -55 37 63 -26 callsubr
          -82 95 -99 116 87 62 66 50 21 vhcurveto
          -19 19 23 -14 23 hhcurveto
          196 callgsubr
          hvcurveto
          211 hlineto
          -1 -70 -1 -65 -65 -54 callsubr
        </CharString>
        <CharString name="dvGH_NA">
          41 432 195 callgsubr
          -80 -1 -72 -2 -68 vhcurveto
          -61 -31 -75 -41 -71 hhcurveto
          -64 -55 37 63 -26 callsubr
          -71 68 -74 86 -19 vhcurveto
          -88 -26 -56 -31 348 callgsubr
          107 52 74 18 42 51 rrcurveto
          -6 -41 -1 -52 -14 vvcurveto
          -45 13 -41 44 19 callgsubr
        </CharString>
        <CharString name="dvGH_R">
          -167 438 72 callsubr
          -418 hlineto
          59 callgsubr
          -83 92 -86 106 vhcurveto
          12 hlineto
          -69 -33 -79 -31 -63 -12 rrcurveto
          -33 3 27 -19 29 hhcurveto
          60 180 94 96 82 hvcurveto
          24 29 15 29 21 vvcurveto
          19 -13 21 -29 6 vhcurveto
          -84 -35 -80 -56 -81 114 callsubr
          endchar
        </CharString>
        <CharString name="dvGH_RA">
          41 432 195 callgsubr
          -79 -1 -71 -1 -67 vhcurveto
          -64 -36 -69 -41 -73 hhcurveto
          -64 -55 37 63 -26 callsubr
          -83 92 -86 106 vhcurveto
          12 hlineto
          -69 -33 -79 -31 -63 -12 rrcurveto
          -34 3 27 -18 30 hhcurveto
          56 170 92 96 81 hvcurveto
          -7 -42 -1 -53 -14 vvcurveto
          -45 13 -41 44 19 callgsubr
        </CharString>
        <CharString name="dvGH_YA">
          411 799 131 callsubr
          -52 hmoveto
          208 callgsubr
          -51 -47 -34 -42 -28 vhcurveto
          -63 -42 -19 -59 -27 -47 rrcurveto
          -45 -26 -33 -34 -73 hhcurveto
          -62 -53 37 62 -26 callsubr
          -81 94 -98 113 107 52 86 54 20 vhcurveto
          -54 41 78 -51 87 hhcurveto
          53 52 17 31 39 hvcurveto
          -8 callgsubr
        </CharString>
        <CharString name="dvG_BA">
          289 613 223 82 callgsubr
          -499 251 -37 callsubr
          530 55 callgsubr
          -92 -67 -66 -83 -114 104 -93 106 48 51 19 39 31 vhcurveto
          -7 -39 -2 -40 -39 vvcurveto
          -43 9 -45 48 2 17 1 3 3 -94 callsubr
        </CharString>
        <CharString name="dvG_BHA">
          387 640 219 callgsubr
          -53 -1 -50 -47 vvcurveto
          -63 6 -78 2 -64 1 rrcurveto
          170 60 callgsubr
          206 hlineto
          -2 -70 -1 -65 -65 13 callgsubr
          6 8 -58 callgsubr
          -43 vhcurveto
          endchar
        </CharString>
        <CharString name="dvG_BH_YA">
          707 1095 -5 callgsubr
          vvcurveto
          -84 -131 -36 -19 -48 vhcurveto
          -45 3 -52 3 -56 1 rrcurveto
          171 60 callgsubr
          161 hlineto
          3 hlineto
          -65 32 91 -72 103 hhcurveto
          53 214 callsubr
          hvcurveto
          -5 -44 -2 -46 -28 vvcurveto
          -44 9 -46 47 6 8 -99 callsubr
        </CharString>
        <CharString name="dvG_DA">
          253 -15 651 -37 callsubr
          474 hlineto
          282 callgsubr
          -82 -286 20 -193 404 callgsubr
          345 callsubr
          vhcurveto
          -61 callgsubr
        </CharString>
        <CharString name="dvG_DHA">
          353 696 96 callsubr
          -78 -1 -72 -2 -67 vhcurveto
          -65 -37 -72 -40 -71 204 callsubr
          18 hlineto
          101 callsubr
          -535 hlineto
          -70 callgsubr
          228 1 hlineto
          10 1 11 1 12 1 rrcurveto
          -27 -27 -10 -34 -28 vvcurveto
          -46 21 -41 32 -30 vhcurveto
          -20 -23 -12 -31 -37 vvcurveto
          -80 93 -95 118 63 53 24 42 37 vhcurveto
          -6 -40 -1 -48 -14 410 callgsubr
          48 6 8 1 3 8 14 callgsubr
        </CharString>
        <CharString name="dvG_DH_VA">
          674 665 112 callgsubr
          21 -6 -7 17 hvcurveto
          4 83 callgsubr
          33 -33 24 -50 vhcurveto
          -215 62 -315 -201 hhcurveto
          -57 -46 41 55 32 15 24 18 16 119 callsubr
          -35 -28 -29 -8 -16 -24 hvcurveto
          -15 21 -8 25 25 vvcurveto
          49 36 348 callsubr
          -537 hlineto
          -70 callgsubr
          176 hlineto
          22 28 1 2 36 hvcurveto
          -27 -26 -9 -34 -28 vvcurveto
          -46 21 -41 31 -30 vhcurveto
          -20 -23 -12 -30 -38 vvcurveto
          -79 87 -93 111 90 64 71 72 27 vhcurveto
          -71 33 75 -47 74 hhcurveto
          46 49 19 38 29 hvcurveto
          -6 -40 -3 -40 -40 vvcurveto
          -43 10 -45 47 3 17 1 3 3 vhcurveto
          -9 13 -2 39 34 147 4 -103 callgsubr
        </CharString>
        <CharString name="dvG_DH_YA">
          725 1113 586 rmoveto
          10 -17 3 -28 -42 vvcurveto
          -74 -1 -68 -2 9 callgsubr
          -248 65 rmoveto
          116 callgsubr
          vvcurveto
          -56 -61 -39 -47 -31 vhcurveto
          -61 -90 389 callsubr
          -54 392 callsubr
          19 16 hvcurveto
          -7 18 20 209 callsubr
          -538 hlineto
          -70 callgsubr
          181 hlineto
          21 26 1 2 35 hvcurveto
          -27 -26 -9 -35 -27 vvcurveto
          -46 21 -41 31 -30 vhcurveto
          -20 -23 -12 -30 -38 vvcurveto
          -78 86 -89 107 89 72 71 67 27 vhcurveto
          -57 39 81 -52 90 hhcurveto
          53 214 callsubr
          hvcurveto
          -5 -44 -2 -46 -28 vvcurveto
          -44 8 -46 48 5 9 -99 callsubr
        </CharString>
        <CharString name="dvG_GA">
          299 11 callsubr
          243 -78 callgsubr
          236 hlineto
          10 -14 1 293 callgsubr
          55 5 9 1 3 8 vhcurveto
          -9 13 -2 -95 callgsubr
        </CharString>
        <CharString name="dvG_GHA">
          352 743 195 callgsubr
          -79 -1 -71 -1 -67 vhcurveto
          -64 -36 -69 -41 -73 114 callsubr
          -523 65 -37 callsubr
          228 hlineto
          1 2 6 1 6 0 6 1 rlinecurve
          -17 -27 -7 -29 -26 vvcurveto
          -45 21 -42 32 -31 vhcurveto
          -20 -23 -13 -30 -38 vvcurveto
          -82 96 -99 116 62 54 23 43 37 vhcurveto
          -6 -41 -1 -49 -13 vvcurveto
          -45 13 -41 44 19 callgsubr
        </CharString>
        <CharString name="dvG_JA">
          461 313 651 rmoveto
          0 -2 vlineto
          -357 hlineto
          -70 callgsubr
          228 0 2 hlineto
          -2 callsubr
        </CharString>
        <CharString name="dvG_LA">
          468 11 callsubr
          709 hlineto
          10 -14 1 -38 -35 -34 0 -32 -31 vvcurveto
          21 -26 -31 12 -38 hhcurveto
          -48 -42 -25 -34 -28 hvcurveto
          40 -40 -54 25 -47 hhcurveto
          -81 -67 -52 -106 -135 130 -136 50 -28 callsubr
        </CharString>
        <CharString name="dvG_MA">
          317 707 586 24 callsubr
          -529 65 -37 callsubr
          278 -11 callsubr
          210 hlineto
          -1 -70 -1 -65 -65 13 callgsubr
          5 9 1 3 8 -107 callgsubr
        </CharString>
        <CharString name="dvG_NA">
          -4 -46 651 45 callsubr
          231 102 callsubr
          -84 -1 -76 -1 -71 vhcurveto
          -161 -89 -124 -50 -55 357 callsubr
          16 -8 19 -13 24 vhcurveto
          162 106 rlineto
          -5 -36 -3 -62 -30 vvcurveto
          -43 10 -46 48 5 9 1 3 8 vhcurveto
          -9 13 -2 -95 callgsubr
        </CharString>
        <CharString name="dvG_NNA">
          490 627 107 callsubr
          -486 65 -37 callsubr
          235 100 callgsubr
        </CharString>
        <CharString name="dvG_N_YA">
          325 713 -93 callsubr
          -574 65 45 callsubr
          321 hlineto
          25 callsubr
          -91 -153 -34 -55 vvcurveto
          -24 12 -28 21 -27 vhcurveto
          -152 -82 -121 -50 -53 357 callsubr
          16 -7 19 -13 24 vhcurveto
          139 91 16 10 11 10 7 8 rlinecurve
          -39 44 62 -31 68 hhcurveto
          53 214 callsubr
          hvcurveto
          -5 -44 -2 -46 -28 vvcurveto
          -44 9 -46 47 6 8 -99 callsubr
        </CharString>
        <CharString name="dvG_R">
          139 callsubr
          256 -284 251 callsubr
        </CharString>
</ttFont>
